SplineFontDB: 3.2
FontName: Untitled1
FullName: Untitled1
FamilyName: Untitled1
Weight: Regular
Copyright: Copyright (c) 2024, Daniel
UComments: "2024-6-3: Created with FontForge (http://fontforge.org)"
Version: 001.000
ItalicAngle: 0
UnderlinePosition: -100
UnderlineWidth: 50
Ascent: 800
Descent: 200
InvalidEm: 0
LayerCount: 2
Layer: 0 0 "Back" 1
Layer: 1 0 "Fore" 0
XUID: [1021 937 884642011 3446246]
OS2Version: 0
OS2_WeightWidthSlopeOnly: 0
OS2_UseTypoMetrics: 1
CreationTime: 1717458591
ModificationTime: 1717459018
OS2TypoAscent: 0
OS2TypoAOffset: 1
OS2TypoDescent: 0
OS2TypoDOffset: 1
OS2TypoLinegap: 0
OS2WinAscent: 0
OS2WinAOffset: 1
OS2WinDescent: 0
OS2WinDOffset: 1
HheadAscent: 0
HheadAOffset: 1
HheadDescent: 0
HheadDOffset: 1
OS2Vendor: 'PfEd'
Lookup: 4 0 1 "ligatures" { "ligsubtable"  } ['liga' ('latn' <'dflt' > 'xsux' <'dflt' > ) ]
DEI: 91125
Encoding: ISO8859-1
UnicodeInterp: none
NameList: AGL For New Fonts
DisplaySize: -48
AntiAlias: 1
FitToEm: 0
BeginChars: 622 366

StartChar: U12038
Encoding: 256 73784 0
Width: 1250
VWidth: 100
Flags: W
HStem: 275.908 48.8418<176.171 1149.83>
VStem: 100.012 48.0615<110.06 215.511 385.023 490.593> 126.948 48.916<153.179 275.912 324.74 447.473>
LayerCount: 2
Fore
SplineSet
124.491210938 491.947265625 m 2xa0
 135.408203125 491.9296875 144.686523438 484.90625 148.073242188 475.130859375 c 0xc0
 164.356445312 426.280273438 173.620117188 375.633789062 175.864257812 324.740234375 c 2
 175.864257812 324.740234375 597.537434896 324.743272569 878.654911748 324.743272569 c 0
 1019.21365017 324.743272569 1124.63346354 324.742513021 1124.63574219 324.740234375 c 0
 1124.76953125 324.7421875 1124.89550781 324.75 1125.02929688 324.75 c 0
 1138.82714844 324.75 1150.02929688 313.547851562 1150.02929688 299.75 c 0
 1150.02929688 299.616210938 1150.02832031 299.483398438 1150.02636719 299.349609375 c 0
 1149.20996094 286.286132812 1138.35058594 275.908203125 1125.08300781 275.908203125 c 0
 1124.93359375 275.908203125 1124.78417969 275.909179688 1124.63574219 275.912109375 c 2
 175.864257812 275.912109375 l 2xa0
 173.620117188 225.017578125 164.356445312 174.372070312 148.073242188 125.521484375 c 0
 144.682617188 115.734375 135.383789062 108.709960938 124.448242188 108.709960938 c 0
 121.790039062 108.709960938 119.227539062 109.125976562 116.823242188 109.896484375 c 0
 107.036132812 113.287109375 100.01171875 122.5859375 100.01171875 133.521484375 c 0xc0
 100.01171875 136.1796875 100.427734375 138.7421875 101.198242188 141.146484375 c 0
 117.959960938 191.430664062 126.54296875 243.899414062 126.948242188 296.421875 c 0
 126.772460938 297.379882812 126.651367188 298.356445312 126.588867188 299.349609375 c 0
 126.586914062 299.482421875 126.584960938 299.5859375 126.584960938 299.719726562 c 0
 126.584960938 301.173828125 126.709960938 302.598632812 126.948242188 303.984375 c 0
 126.567382812 356.587890625 117.985351562 409.143554688 101.198242188 459.505859375 c 0
 100.427734375 461.91015625 100 464.466796875 100 467.125976562 c 0
 100 478.060546875 107.036132812 487.365234375 116.823242188 490.755859375 c 0
 119.227539062 491.525390625 121.790039062 491.947265625 124.448242188 491.947265625 c 2
 124.491210938 491.947265625 l 2xa0
EndSplineSet
EndChar

StartChar: U12400
Encoding: 257 74752 1
Width: 1250
VWidth: 100
Flags: W
HStem: 275.908 48.8418<175.864 460.358 510.047 1149.83>
VStem: 100.012 48.0615<110.06 215.511 385.023 490.593> 126.948 48.916<153.179 275.912 324.74 447.473> 433.984 48.0732<131.56 216.271 384.381 490.593> 460.358 49.4902<153.179 275.912 324.74 447.473>
LayerCount: 2
Fore
SplineSet
124.491210938 491.947265625 m 2xa0
 135.408203125 491.9296875 144.686523438 484.90625 148.073242188 475.130859375 c 0xc0
 164.356445312 426.280273438 173.620117188 375.633789062 175.864257812 324.740234375 c 2
 460.358398438 324.740234375 l 1xa8
 458.153320312 370.379882812 449.76171875 415.76953125 435.182617188 459.505859375 c 0
 434.412109375 461.91015625 433.984375 464.466796875 433.984375 467.125976562 c 0
 433.984375 478.060546875 441.020507812 487.365234375 450.807617188 490.755859375 c 0
 453.211914062 491.526367188 455.768554688 491.954101562 458.427734375 491.954101562 c 0
 469.362304688 491.954101562 478.666992188 484.91796875 482.057617188 475.130859375 c 0x90
 498.340820312 426.280273438 507.604492188 375.633789062 509.848632812 324.740234375 c 2
 509.848632812 324.740234375 783.084309896 324.743272569 965.243453414 324.743272569 c 0
 1056.32302517 324.743272569 1124.63346354 324.742513021 1124.63574219 324.740234375 c 0
 1124.76953125 324.7421875 1124.89550781 324.75 1125.02929688 324.75 c 0
 1138.82714844 324.75 1150.02929688 313.547851562 1150.02929688 299.75 c 0
 1150.02929688 299.616210938 1150.02832031 299.483398438 1150.02636719 299.349609375 c 0
 1149.20996094 286.286132812 1138.35058594 275.908203125 1125.08300781 275.908203125 c 0
 1124.93359375 275.908203125 1124.78417969 275.909179688 1124.63574219 275.912109375 c 2
 509.848632812 275.912109375 l 2x88
 507.604492188 225.017578125 498.341796875 174.372070312 482.057617188 125.521484375 c 0x90
 478.666992188 115.734375 469.368164062 108.709960938 458.432617188 108.709960938 c 0
 455.774414062 108.709960938 453.211914062 109.125976562 450.807617188 109.896484375 c 0
 444.1484375 111.541992188 438.541015625 115.830078125 435.182617188 121.615234375 c 0
 433.911132812 124.611328125 433.208007812 127.94140625 433.208007812 131.3984375 c 0
 433.208007812 134.85546875 433.911132812 138.150390625 435.182617188 141.146484375 c 0
 449.76171875 184.8828125 458.153320312 230.272460938 460.358398438 275.912109375 c 1
 175.864257812 275.912109375 l 2xa8
 173.620117188 225.017578125 164.356445312 174.372070312 148.073242188 125.521484375 c 0
 144.682617188 115.734375 135.383789062 108.709960938 124.448242188 108.709960938 c 0
 121.790039062 108.709960938 119.227539062 109.125976562 116.823242188 109.896484375 c 0
 107.036132812 113.287109375 100.01171875 122.5859375 100.01171875 133.521484375 c 0xc0
 100.01171875 136.1796875 100.427734375 138.7421875 101.198242188 141.146484375 c 0
 117.959960938 191.430664062 126.54296875 243.899414062 126.948242188 296.421875 c 0
 126.772460938 297.379882812 126.651367188 298.356445312 126.588867188 299.349609375 c 0
 126.586914062 299.482421875 126.584960938 299.5859375 126.584960938 299.719726562 c 0
 126.584960938 301.173828125 126.709960938 302.598632812 126.948242188 303.984375 c 0
 126.567382812 356.587890625 117.985351562 409.143554688 101.198242188 459.505859375 c 0
 100.427734375 461.91015625 100 464.466796875 100 467.125976562 c 0
 100 478.060546875 107.036132812 487.365234375 116.823242188 490.755859375 c 0
 119.227539062 491.525390625 121.790039062 491.947265625 124.448242188 491.947265625 c 2
 124.491210938 491.947265625 l 2xa0
EndSplineSet
EndChar

StartChar: U1212c
Encoding: 258 74028 2
Width: 1250
VWidth: 100
Flags: W
HStem: 275.908 48.8418<175.864 460.358 510.047 1149.83>
VStem: 100.012 48.0615<110.06 215.511 385.023 490.593> 126.948 48.916<153.179 275.912 324.74 447.473> 433.984 48.0732<131.56 216.271 384.381 490.593> 460.358 49.4902<153.179 275.912 324.74 447.473>
LayerCount: 2
Fore
SplineSet
124.491210938 491.947265625 m 2xa0
 135.408203125 491.9296875 144.686523438 484.90625 148.073242188 475.130859375 c 0xc0
 164.356445312 426.280273438 173.620117188 375.633789062 175.864257812 324.740234375 c 2
 460.358398438 324.740234375 l 1xa8
 458.153320312 370.379882812 449.76171875 415.76953125 435.182617188 459.505859375 c 0
 434.412109375 461.91015625 433.984375 464.466796875 433.984375 467.125976562 c 0
 433.984375 478.060546875 441.020507812 487.365234375 450.807617188 490.755859375 c 0
 453.211914062 491.526367188 455.768554688 491.954101562 458.427734375 491.954101562 c 0
 469.362304688 491.954101562 478.666992188 484.91796875 482.057617188 475.130859375 c 0x90
 498.340820312 426.280273438 507.604492188 375.633789062 509.848632812 324.740234375 c 2
 509.848632812 324.740234375 783.084309896 324.743272569 965.243453414 324.743272569 c 0
 1056.32302517 324.743272569 1124.63346354 324.742513021 1124.63574219 324.740234375 c 0
 1124.76953125 324.7421875 1124.89550781 324.75 1125.02929688 324.75 c 0
 1138.82714844 324.75 1150.02929688 313.547851562 1150.02929688 299.75 c 0
 1150.02929688 299.616210938 1150.02832031 299.483398438 1150.02636719 299.349609375 c 0
 1149.20996094 286.286132812 1138.35058594 275.908203125 1125.08300781 275.908203125 c 0
 1124.93359375 275.908203125 1124.78417969 275.909179688 1124.63574219 275.912109375 c 2
 509.848632812 275.912109375 l 2x88
 507.604492188 225.017578125 498.341796875 174.372070312 482.057617188 125.521484375 c 0x90
 478.666992188 115.734375 469.368164062 108.709960938 458.432617188 108.709960938 c 0
 455.774414062 108.709960938 453.211914062 109.125976562 450.807617188 109.896484375 c 0
 444.1484375 111.541992188 438.541015625 115.830078125 435.182617188 121.615234375 c 0
 433.911132812 124.611328125 433.208007812 127.94140625 433.208007812 131.3984375 c 0
 433.208007812 134.85546875 433.911132812 138.150390625 435.182617188 141.146484375 c 0
 449.76171875 184.8828125 458.153320312 230.272460938 460.358398438 275.912109375 c 1
 175.864257812 275.912109375 l 2xa8
 173.620117188 225.017578125 164.356445312 174.372070312 148.073242188 125.521484375 c 0
 144.682617188 115.734375 135.383789062 108.709960938 124.448242188 108.709960938 c 0
 121.790039062 108.709960938 119.227539062 109.125976562 116.823242188 109.896484375 c 0
 107.036132812 113.287109375 100.01171875 122.5859375 100.01171875 133.521484375 c 0xc0
 100.01171875 136.1796875 100.427734375 138.7421875 101.198242188 141.146484375 c 0
 117.959960938 191.430664062 126.54296875 243.899414062 126.948242188 296.421875 c 0
 126.772460938 297.379882812 126.651367188 298.356445312 126.588867188 299.349609375 c 0
 126.586914062 299.482421875 126.584960938 299.5859375 126.584960938 299.719726562 c 0
 126.584960938 301.173828125 126.709960938 302.598632812 126.948242188 303.984375 c 0
 126.567382812 356.587890625 117.985351562 409.143554688 101.198242188 459.505859375 c 0
 100.427734375 461.91015625 100 464.466796875 100 467.125976562 c 0
 100 478.060546875 107.036132812 487.365234375 116.823242188 490.755859375 c 0
 119.227539062 491.525390625 121.790039062 491.947265625 124.448242188 491.947265625 c 2
 124.491210938 491.947265625 l 2xa0
EndSplineSet
EndChar

StartChar: U1227e
Encoding: 259 74366 3
Width: 2249
VWidth: 100
Flags: W
HStem: 148.771 48.918<677.815 800.548 849.376 972.109> 176.562 48.0664<634.695 740.143 909.663 1015.23> 248.771 48.916<1477.81 1600.55 1649.38 1772.11> 275.908 48.8418<175.864 460.358 510.047 1149.83 1434.7 1545.01 1704.78 1815.23> 450.781 48.8312<271.124 400.417 489.554 599.636 650.417 798.854 849.693 1048.6> 525 50.7843<273.056 400.417 449.245 599.636 650.417 798.854 849.693 1048.59> 599.219 60.6152<451.167 599.636 650.417 796.203> 599.219 50.7812<271.319 307.46 942.593 1025.53>
VStem: 100.012 48.0615<110.06 215.511 385.023 490.593> 126.948 48.916<153.179 275.912 324.74 447.473> 200.012 48.0615<376.726 449.39> 224.258 48.7974<500.739 525 575.781 598.853> 400.417 48.8281<375.964 408.443 499.609 525 575.781 599.219> 443.776 42.3818<358.926 408.449> 460.358 49.4902<225.278 275.912 324.74 407.156> 599.636 50.7843<376.045 450.765 499.609 525 575.781 599.219> 798.854 50.7843<-123.751 148.691 376.045 450.765 499.609 525 575.781 599.219> 1175 49.1016<-374.018 -261.841 861.841 974.018> 1600.54 48.8418<-225.193 10.2969 89.3008 248.771>
LayerCount: 2
Fore
SplineSet
1199.62597656 974.322265625 m 2x0d11e0
 1199.68847656 974.323242188 l 2
 1200.79589844 974.323242188 1201.88671875 974.250976562 1202.95605469 974.111328125 c 0
 1214.92871094 972.2578125 1224.13183594 961.919921875 1224.13183594 949.431640625 c 0
 1224.13183594 948.323242188 1224.05957031 947.23046875 1223.91894531 946.16015625 c 0
 1216.63769531 895.185546875 1202.27246094 845.7421875 1181.51855469 799.216796875 c 2
 1181.51855469 799.216796875 2134.90332031 322.545898438 2134.94238281 322.505859375 c 0
 2139.64941406 320.244140625 2143.50195312 316.592773438 2146.01269531 312.03515625 c 0
 2146.109375 311.876953125 2146.20410156 311.71875 2146.29785156 311.55859375 c 0
 2148.03027344 308.225585938 2149.04882812 304.421875 2149.11230469 300.423828125 c 2
 2149.11230469 300.418945312 l 1
 2149.11230469 300.4140625 l 1
 2149.11230469 300.409179688 l 1
 2149.11230469 300.404296875 l 2
 2149.11328125 300.3515625 2149.11328125 300.302734375 2149.11425781 300.25 c 2
 2149.11425781 300.245117188 l 1
 2149.11425781 300.240234375 l 2
 2149.11523438 300.1875 2149.11621094 300.138671875 2149.11621094 300.0859375 c 2
 2149.11621094 300.001953125 l 1
 2149.11621094 299.921875 l 2
 2149.11621094 299.869140625 2149.11523438 299.8125 2149.11425781 299.759765625 c 2
 2149.11425781 299.754882812 l 1
 2149.11425781 299.75 l 2
 2149.11328125 299.697265625 2149.11328125 299.6484375 2149.11230469 299.595703125 c 2
 2149.11230469 299.590820312 l 1
 2149.11230469 299.5859375 l 2
 2149.05078125 295.583984375 2148.03125 291.77734375 2146.29785156 288.44140625 c 0
 2146.20410156 288.28125 2146.109375 288.123046875 2146.01269531 287.96484375 c 0
 2143.50195312 283.407226562 2139.64941406 279.755859375 2134.94238281 277.494140625 c 2
 1649.37597656 34.7109375 l 1
 1649.37597656 34.7109375 1649.37901476 -69.6019965278 1649.37901476 -139.145978009 c 0
 1649.37901476 -173.91796875 1649.37825521 -199.997721354 1649.37597656 -200 c 0
 1649.37792969 -200.133789062 1649.38574219 -200.259765625 1649.38574219 -200.393554688 c 0
 1649.38574219 -214.19140625 1638.18359375 -225.393554688 1624.38574219 -225.393554688 c 0
 1624.25195312 -225.393554688 1624.11914062 -225.392578125 1623.98535156 -225.390625 c 0
 1610.921875 -224.57421875 1600.54394531 -213.71484375 1600.54394531 -200.447265625 c 0
 1600.54394531 -200.297851562 1600.54492188 -200.1484375 1600.54785156 -200 c 2
 1600.54785156 10.296875 l 1
 1181.51855469 -199.216796875 l 2
 1202.27246094 -245.7421875 1216.63769531 -295.185546875 1223.91894531 -346.16015625 c 0
 1224.05957031 -347.23046875 1224.10644531 -348.297851562 1224.10644531 -349.40625 c 0
 1224.10644531 -361.895507812 1214.92871094 -372.2578125 1202.95605469 -374.111328125 c 0
 1201.88574219 -374.251953125 1200.81835938 -374.298828125 1199.70996094 -374.298828125 c 0
 1187.22070312 -374.298828125 1176.85839844 -365.120117188 1175.00488281 -353.146484375 c 0
 1167.49902344 -300.59765625 1151.67578125 -249.754882812 1128.49121094 -202.53515625 c 0
 1127.57226562 -201.288085938 1126.76855469 -199.953125 1126.09082031 -198.544921875 c 0
 1125.71191406 -197.649414062 1125.37597656 -196.70703125 1125.10253906 -195.76171875 c 0
 1101.25097656 -148.966796875 1070.109375 -105.875976562 1032.63183594 -68.3984375 c 0
 1028.22851562 -63.890625 1025.51269531 -57.716796875 1025.51269531 -50.923828125 c 0
 1025.51269531 -44.130859375 1028.22851562 -37.966796875 1032.63183594 -33.458984375 c 0
 1037.13964844 -29.0556640625 1043.31347656 -26.3408203125 1050.10546875 -26.3408203125 c 0
 1056.8984375 -26.3408203125 1063.06152344 -29.0556640625 1067.56933594 -33.458984375 c 0
 1103.97949219 -69.869140625 1134.91503906 -111.02734375 1159.68261719 -155.544921875 c 2
 1600.54785156 64.88671875 l 1
 1600.54785156 248.771484375 l 2
 1549.65332031 251.015625 1499.0078125 260.279296875 1450.15722656 276.5625 c 0
 1440.37011719 279.953125 1433.34570312 289.251953125 1433.34570312 300.1875 c 0
 1433.34570312 302.845703125 1433.76171875 305.408203125 1434.53222656 307.8125 c 0
 1437.92285156 317.599609375 1447.22167969 324.624023438 1458.15722656 324.624023438 c 0
 1460.81542969 324.624023438 1463.37792969 324.208007812 1465.78222656 323.4375 c 0
 1516.06445312 306.676757812 1568.53125 298.09375 1621.05175781 297.6875 c 0
 1622.01171875 297.86328125 1622.99023438 297.984375 1623.98535156 298.046875 c 0
 1624.12011719 298.048828125 1624.22460938 298.05078125 1624.359375 298.05078125 c 0
 1625.8125 298.05078125 1627.23828125 297.92578125 1628.62402344 297.6875 c 0
 1681.22558594 298.068359375 1733.78222656 306.651367188 1784.14160156 323.4375 c 0
 1786.54589844 324.208007812 1789.10253906 324.635742188 1791.76171875 324.635742188 c 0
 1802.69628906 324.635742188 1812.00097656 317.599609375 1815.39160156 307.8125 c 0
 1816.16210938 305.408203125 1816.58984375 302.8515625 1816.58984375 300.192382812 c 0
 1816.58984375 289.2578125 1809.5546875 279.953125 1799.76660156 276.5625 c 0
 1750.91601562 260.279296875 1700.26953125 251.015625 1649.37597656 248.771484375 c 2x2d11e0
 1649.37597656 89.30078125 l 1
 2070.77441406 300 l 1
 1159.68261719 755.544921875 l 2
 1134.91503906 711.02734375 1103.97949219 669.869140625 1067.56933594 633.458984375 c 0
 1063.06152344 629.056640625 1056.91210938 626.34375 1050.12011719 626.34375 c 0
 1049.68554688 626.34375 1049.25292969 626.354492188 1048.82324219 626.376953125 c 1
 1048.84667969 625.931640625 1048.85839844 625.510742188 1048.85839844 625.059570312 c 0
 1048.85839844 624.909179688 1048.85742188 624.758789062 1048.85449219 624.609375 c 0
 1048.85742188 624.4609375 1048.83789062 624.319335938 1048.83789062 624.169921875 c 0
 1048.83789062 610.90234375 1038.48046875 600.03515625 1025.41699219 599.21875 c 2
 849.635742188 599.21875 l 1
 849.635742188 575.78125 l 1
 849.635742188 575.78125 927.769856771 575.784288194 979.853190104 575.784288194 c 0
 1005.89485677 575.784288194 1025.42382812 575.783528646 1025.41699219 575.78125 c 1
 1038.48046875 574.96484375 1048.85839844 564.10546875 1048.85839844 550.837890625 c 0
 1048.85839844 550.688476562 1048.85742188 550.5390625 1048.85449219 550.390625 c 0
 1048.85742188 550.2421875 1048.83789062 550.100585938 1048.83789062 549.951171875 c 0
 1048.83789062 536.68359375 1038.48046875 525.81640625 1025.41699219 525 c 2
 849.635742188 525 l 1
 849.635742188 499.609375 l 1
 849.635742188 499.609375 927.769856771 499.612413194 979.853190104 499.612413194 c 0
 1005.89485677 499.612413194 1025.42382812 499.611653646 1025.41699219 499.609375 c 1
 1038.48046875 498.79296875 1048.85839844 487.93359375 1048.85839844 474.666015625 c 0
 1048.85839844 474.516601562 1048.85742188 474.3671875 1048.85449219 474.21875 c 0
 1048.08984375 461.643554688 1037.9921875 451.545898438 1025.41699219 450.78125 c 2
 849.635742188 450.78125 l 1
 849.635742188 450.78125 849.638780382 427.85546875 849.638780382 412.577690972 c 0
 849.638780382 404.938802083 849.638020833 399.211914062 849.635742188 399.21875 c 1
 848.819335938 386.155273438 837.959960938 375.77734375 824.692382812 375.77734375 c 0
 824.54296875 375.77734375 824.393554688 375.778320312 824.245117188 375.78125 c 0
 824.096679688 375.778320312 823.955078125 375.797851562 823.805664062 375.797851562 c 0
 810.538085938 375.797851562 799.670898438 386.155273438 798.854492188 399.21875 c 2
 798.854492188 450.78125 l 1
 650.416992188 450.78125 l 1
 650.416992188 450.78125 650.420030382 427.85546875 650.420030382 412.577690972 c 0
 650.420030382 404.938802083 650.419270833 399.211914062 650.416992188 399.21875 c 1
 649.600585938 386.155273438 638.741210938 375.77734375 625.473632812 375.77734375 c 0
 625.32421875 375.77734375 625.174804688 375.778320312 625.026367188 375.78125 c 0
 624.877929688 375.778320312 624.736328125 375.797851562 624.586914062 375.797851562 c 0
 611.319335938 375.797851562 600.452148438 386.155273438 599.635742188 399.21875 c 2
 599.635742188 450.78125 l 1
 489.553710938 450.78125 l 1
 501.2109375 409.541015625 507.975585938 367.2265625 509.848632812 324.740234375 c 2
 509.848632812 324.740234375 783.084309896 324.743272569 965.243453414 324.743272569 c 0
 1056.32302517 324.743272569 1124.63346354 324.742513021 1124.63574219 324.740234375 c 0
 1124.76953125 324.7421875 1124.89550781 324.75 1125.02929688 324.75 c 0
 1138.82714844 324.75 1150.02929688 313.547851562 1150.02929688 299.75 c 0
 1150.02929688 299.616210938 1150.02832031 299.483398438 1150.02636719 299.349609375 c 0
 1149.20996094 286.286132812 1138.35058594 275.908203125 1125.08300781 275.908203125 c 0
 1124.93359375 275.908203125 1124.78417969 275.909179688 1124.63574219 275.912109375 c 2
 509.848632812 275.912109375 l 2x1d13e0
 507.604492188 225.017578125 498.341796875 174.372070312 482.057617188 125.521484375 c 0
 478.666992188 115.734375 469.368164062 108.709960938 458.432617188 108.709960938 c 0
 455.774414062 108.709960938 453.211914062 109.125976562 450.807617188 109.896484375 c 0
 444.1484375 111.541992188 438.541015625 115.830078125 435.182617188 121.615234375 c 0
 433.911132812 124.611328125 433.198242188 127.912109375 433.198242188 131.370117188 c 0
 433.198242188 133.458984375 433.455078125 135.48828125 433.938476562 137.427734375 c 1
 422.291992188 125.78125 l 1
 422.291992188 125.78125 475.96875 70.2509765625 475.989257812 70.232421875 c 0
 477.046875 69.4208984375 478.017578125 68.544921875 478.932617188 67.578125 c 0
 483.3984375 63.0615234375 486.155273438 56.849609375 486.155273438 50.001953125 c 2
 486.155273438 49.927734375 l 1
 486.155273438 49.912109375 l 1
 486.155273438 49.896484375 l 1
 486.155273438 49.876953125 l 1
 486.155273438 49.857421875 l 1
 486.155273438 49.8408203125 l 1
 486.155273438 49.82421875 l 1
 486.155273438 49.8046875 l 1
 486.155273438 49.78515625 l 1
 486.155273438 49.7685546875 l 1
 486.155273438 49.751953125 l 1
 486.155273438 49.732421875 l 1
 486.155273438 49.712890625 l 1
 486.158203125 49.6044921875 l 2
 486.158203125 42.7568359375 483.399414062 36.5478515625 478.932617188 32.03125 c 0
 478.080078125 31.1884765625 477.18359375 30.4208984375 476.217773438 29.70703125 c 2
 422.291992188 -24.21875 l 1
 422.291992188 -24.21875 478.932617188 -82.8212890625 478.932617188 -82.8125 c 1
 483.399414062 -87.330078125 486.158203125 -93.546875 486.158203125 -100.39453125 c 0
 486.158203125 -107.243164062 483.399414062 -113.451171875 478.932617188 -117.96875 c 0
 474.415039062 -122.435546875 468.198242188 -125.194335938 461.350585938 -125.194335938 c 0
 454.501953125 -125.194335938 448.293945312 -122.435546875 443.776367188 -117.96875 c 2
 443.776367188 -117.96875 369.557617188 -41.7880859375 369.557617188 -41.796875 c 1
 365.091796875 -37.279296875 362.333007812 -31.0625 362.333007812 -24.21484375 c 0
 362.333007812 -17.3662109375 365.091796875 -11.158203125 369.557617188 -6.640625 c 2
 426.233398438 50.03515625 l 1
 426.233398438 50.03515625 369.557617188 108.211914062 369.557617188 108.203125 c 1
 365.091796875 112.720703125 362.333007812 118.9375 362.333007812 125.78515625 c 0
 362.333007812 132.633789062 365.091796875 138.841796875 369.557617188 143.359375 c 2
 369.557617188 143.359375 443.782226562 217.567382812 443.776367188 217.578125 c 0x1d05e0
 446.8515625 220.828125 450.794921875 223.244140625 455.227539062 224.478515625 c 0
 457.817382812 241.538085938 459.52734375 258.70703125 460.358398438 275.912109375 c 1
 175.864257812 275.912109375 l 2x1d43e0
 173.620117188 225.017578125 164.356445312 174.372070312 148.073242188 125.521484375 c 0
 144.682617188 115.734375 135.383789062 108.709960938 124.448242188 108.709960938 c 0
 121.790039062 108.709960938 119.227539062 109.125976562 116.823242188 109.896484375 c 0
 107.036132812 113.287109375 100.01171875 122.5859375 100.01171875 133.521484375 c 0x1d81e0
 100.01171875 136.1796875 100.427734375 138.7421875 101.198242188 141.146484375 c 0
 117.959960938 191.430664062 126.54296875 243.899414062 126.948242188 296.421875 c 0
 126.772460938 297.379882812 126.651367188 298.356445312 126.588867188 299.349609375 c 0
 126.586914062 299.482421875 126.584960938 299.5859375 126.584960938 299.719726562 c 0
 126.584960938 301.173828125 126.709960938 302.598632812 126.948242188 303.984375 c 0x1d41e0
 126.567382812 356.587890625 117.985351562 409.143554688 101.198242188 459.505859375 c 0
 100.427734375 461.91015625 100 464.466796875 100 467.125976562 c 0
 100 478.060546875 107.036132812 487.365234375 116.823242188 490.755859375 c 0
 119.227539062 491.526367188 121.784179688 491.954101562 124.443359375 491.954101562 c 0
 135.377929688 491.954101562 144.682617188 484.91796875 148.073242188 475.130859375 c 0x1d81e0
 164.356445312 426.280273438 173.620117188 375.633789062 175.864257812 324.740234375 c 2
 460.358398438 324.740234375 l 1
 459 352.846679688 455.295898438 380.859375 449.245117188 408.44921875 c 1
 449.245117188 408.44921875 449.251953125 399.198242188 449.245117188 399.21875 c 1
 448.428710938 386.155273438 437.569335938 375.77734375 424.301757812 375.77734375 c 0
 424.15234375 375.77734375 424.002929688 375.778320312 423.854492188 375.78125 c 0
 411.279296875 376.545898438 401.181640625 386.643554688 400.416992188 399.21875 c 2
 400.416992188 450.78125 l 1
 263.711914062 450.78125 l 2
 259.705078125 431.013671875 254.4921875 411.443359375 248.073242188 392.1875 c 0
 244.682617188 382.400390625 235.383789062 375.375976562 224.448242188 375.375976562 c 0
 221.790039062 375.375976562 219.227539062 375.791992188 216.823242188 376.5625 c 0
 207.036132812 379.953125 200.01171875 389.251953125 200.01171875 400.1875 c 0x1d6be0
 200.01171875 402.845703125 200.427734375 405.408203125 201.198242188 407.8125 c 0
 216.571592002 453.931562295 224.258266909 502.160574818 224.258266909 550.389537401 c 0
 224.258266909 597.584148457 216.897763877 644.778711692 202.176757812 689.99609375 c 0
 200.791015625 693.102539062 200.0078125 696.55859375 200.0078125 700.177734375 c 2
 200.008789062 700.3984375 l 1
 200.001953125 700.588867188 l 2
 200.001953125 711.5234375 207.036132812 720.828125 216.823242188 724.21875 c 0
 219.227539062 724.989257812 221.818359375 725.39453125 224.477539062 725.39453125 c 0
 229.197265625 725.39453125 233.614257812 724.083984375 237.381835938 721.806640625 c 0
 298.03125 701.873046875 359.88671875 686.745117188 422.370117188 676.42578125 c 0
 422.862304688 676.486328125 423.353515625 676.53125 423.854492188 676.5625 c 0
 423.987304688 676.564453125 424.131835938 676.553710938 424.265625 676.553710938 c 0
 427.750976562 676.553710938 431.0703125 675.838867188 434.084960938 674.548828125 c 0
 494.771484375 665.120117188 556.012695312 660.215820312 617.276367188 659.833984375 c 0
 619.602539062 660.549804688 622.065429688 660.940429688 624.625 660.940429688 c 0
 624.758789062 660.940429688 624.892578125 660.939453125 625.026367188 660.9375 c 0
 625.159179688 660.939453125 625.28515625 660.935546875 625.41796875 660.935546875 c 0
 627.978515625 660.935546875 630.448242188 660.549804688 632.774414062 659.833984375 c 0x1e11e0
 693.044921875 660.208984375 753.29296875 664.962890625 813.012695312 674.09375 c 0
 816.286132812 675.668945312 819.971679688 676.565429688 823.844726562 676.565429688 c 0
 823.978515625 676.565429688 824.112304688 676.564453125 824.245117188 676.5625 c 0
 824.375976562 676.564453125 824.474609375 676.56640625 824.60546875 676.56640625 c 0
 825.58984375 676.56640625 826.561523438 676.509765625 827.516601562 676.3984375 c 0
 891.750976562 686.998046875 955.32421875 702.677734375 1017.60449219 723.4375 c 0
 1020.00878906 724.208007812 1022.56542969 724.635742188 1025.22460938 724.635742188 c 0
 1036.15917969 724.635742188 1045.46386719 717.599609375 1048.85449219 707.8125 c 0
 1049.625 705.408203125 1050.05273438 702.8515625 1050.05273438 700.192382812 c 0
 1050.05273438 689.2578125 1043.01660156 679.953125 1033.22949219 676.5625 c 0
 1003.27832031 666.579101562 973.044921875 657.724609375 942.592773438 650 c 1
 942.592773438 650 1025.41601562 650 1025.41699219 650 c 0
 1025.45605469 649.997070312 1025.49316406 649.995117188 1025.53222656 649.9921875 c 1
 1025.52050781 650.307617188 1025.51269531 650.615234375 1025.51269531 650.93359375 c 0
 1025.51269531 657.7265625 1028.22851562 663.890625 1032.63183594 668.3984375 c 0
 1070.109375 705.875976562 1101.25097656 748.966796875 1125.10253906 795.76171875 c 0
 1125.37597656 796.70703125 1125.71191406 797.649414062 1126.09082031 798.544921875 c 0
 1126.76855469 799.953125 1127.57226562 801.288085938 1128.49121094 802.53515625 c 0
 1151.67578125 849.754882812 1167.49902344 900.59765625 1175.00488281 953.146484375 c 0
 1176.85351562 965.092773438 1187.17578125 974.280273438 1199.62597656 974.322265625 c 2x0d11e0
260.959960938 662.7265625 m 1
 261.93359375 658.494140625 262.849609375 654.251953125 263.711914062 650 c 2
 307.459960938 650 l 1
 291.899414062 653.947265625 276.397460938 658.189453125 260.959960938 662.7265625 c 1
271.319335938 599.21875 m 1
 272.08203125 591.418945312 272.659179688 583.603515625 273.055664062 575.78125 c 2
 400.416992188 575.78125 l 1
 400.416992188 599.21875 l 1x0d19e0
 271.319335938 599.21875 l 1
449.245117188 599.21875 m 1
 449.245117188 575.78125 l 1
 599.635742188 575.78125 l 1
 599.635742188 599.21875 l 1x0e09e0
 449.245117188 599.21875 l 1
650.416992188 599.21875 m 1
 650.416992188 575.78125 l 1
 798.854492188 575.78125 l 1
 798.854492188 599.21875 l 1x0d01e0
 650.416992188 599.21875 l 1
273.055664062 525 m 2x0c19e0
 272.626953125 516.524414062 271.983398438 508.05859375 271.124023438 499.609375 c 1
 400.416992188 499.609375 l 1
 400.416992188 525 l 1
 273.055664062 525 l 2x0c19e0
449.245117188 525 m 1
 449.245117188 499.609375 l 1
 599.635742188 499.609375 l 1
 599.635742188 525 l 1
 449.245117188 525 l 1
650.416992188 525 m 1
 650.416992188 499.609375 l 1
 798.854492188 499.609375 l 1
 798.854492188 525 l 1
 650.416992188 525 l 1
658.112304688 224.62890625 m 2x4c01e0
 658.158203125 224.623046875 l 2
 660.81640625 224.623046875 663.377929688 224.20703125 665.782226562 223.4375 c 0
 716.063476562 206.676757812 768.530273438 198.095703125 821.049804688 197.689453125 c 0x8c01e0
 822.010742188 197.864257812 822.989257812 197.985351562 823.985351562 198.046875 c 0
 824.12109375 198.048828125 824.2265625 198.05078125 824.362304688 198.05078125 c 0
 825.81640625 198.05078125 827.2421875 197.92578125 828.627929688 197.6875 c 0
 881.229492188 198.068359375 933.782226562 206.651367188 984.141601562 223.4375 c 0
 986.545898438 224.208007812 989.102539062 224.635742188 991.76171875 224.635742188 c 0
 1002.69628906 224.635742188 1012.00097656 217.599609375 1015.39160156 207.8125 c 0
 1016.16210938 205.408203125 1016.58984375 202.8515625 1016.58984375 200.192382812 c 0
 1016.58984375 189.2578125 1009.55371094 179.953125 999.766601562 176.5625 c 0x4c01e0
 950.916015625 160.279296875 900.26953125 151.015625 849.375976562 148.771484375 c 2
 849.375976562 148.771484375 849.379014757 37.8500434028 849.379014757 -36.0915075231 c 0
 849.379014757 -73.0622829861 849.378255208 -100.788085938 849.375976562 -100.78125 c 1
 848.559570312 -113.844726562 837.700195312 -124.22265625 824.432617188 -124.22265625 c 0
 824.283203125 -124.22265625 824.133789062 -124.221679688 823.985351562 -124.21875 c 0
 811.41015625 -123.454101562 801.3125 -113.356445312 800.547851562 -100.78125 c 2
 800.547851562 148.771484375 l 2x8c01e0
 749.653320312 151.015625 699.0078125 160.279296875 650.157226562 176.5625 c 0
 640.370117188 179.953125 633.345703125 189.251953125 633.345703125 200.1875 c 0
 633.345703125 202.845703125 633.76171875 205.408203125 634.532226562 207.8125 c 0
 637.91796875 217.586914062 647.196289062 224.610351562 658.112304688 224.62890625 c 2x4c01e0
EndSplineSet
EndChar

StartChar: U12044
Encoding: 260 73796 4
Width: 1750
VWidth: 100
Flags: W
HStem: 275.908 48.8418<175.864 345.124 394.614 769.817 993.33 1649.83> 748.771 48.916<821.565 944.298 993.126 1115.86> 776.562 48.0664<778.445 883.897 1053.41 1158.98>
VStem: 100.012 48.0615<110.06 215.506 385.023 490.593> 126.948 48.916<153.179 275.912 324.74 447.473> 318.762 48.0615<110.06 216.271 384.381 490.593> 944.294 48.8418<-225.193 101.432 171.783 275.912 324.74 428.256 498.568 748.771>
LayerCount: 2
Fore
SplineSet
1379.19238281 825.390625 m 0x86
 1386.10546875 825.229492188 1392.33886719 822.262695312 1396.77050781 817.578125 c 0
 1401.23730469 813.060546875 1403.99707031 806.84375 1403.99707031 799.99609375 c 0
 1403.99707031 793.147460938 1401.23730469 786.939453125 1396.77050781 782.421875 c 2
 1248.33300781 633.984375 l 1
 1248.33300781 633.984375 1396.77050781 483.584960938 1396.77050781 483.59375 c 1
 1401.23730469 479.076171875 1403.99707031 472.859375 1403.99707031 466.01171875 c 0
 1403.99707031 459.163085938 1401.23730469 452.955078125 1396.77050781 448.4375 c 0
 1392.25390625 443.970703125 1386.03613281 441.2109375 1379.18847656 441.2109375 c 0
 1372.33984375 441.2109375 1366.13085938 443.970703125 1361.61425781 448.4375 c 2
 1361.61425781 448.4375 1195.59863281 616.415039062 1195.59863281 616.40625 c 1
 1191.1328125 620.923828125 1188.37402344 627.140625 1188.37402344 633.98828125 c 0
 1188.37402344 640.836914062 1191.1328125 647.044921875 1195.59863281 651.5625 c 2
 1195.59863281 651.5625 1361.62402344 817.571289062 1361.61425781 817.578125 c 1
 1366.04589844 822.262695312 1372.27929688 825.229492188 1379.19238281 825.390625 c 0x86
801.862304688 824.62890625 m 2xae
 801.908203125 824.623046875 l 2
 804.56640625 824.623046875 807.127929688 824.20703125 809.532226562 823.4375 c 0
 859.81640625 806.67578125 912.28515625 798.092773438 964.807617188 797.6875 c 0
 965.765625 797.86328125 966.7421875 797.984375 967.735351562 798.046875 c 0
 967.868164062 798.048828125 967.971679688 798.05078125 968.10546875 798.05078125 c 0
 969.559570312 798.05078125 970.984375 797.92578125 972.370117188 797.6875 c 0xce
 1024.97363281 798.068359375 1077.52929688 806.650390625 1127.89160156 823.4375 c 0
 1130.29589844 824.208007812 1132.85253906 824.635742188 1135.51171875 824.635742188 c 0
 1146.44628906 824.635742188 1155.75097656 817.599609375 1159.14160156 807.8125 c 0
 1159.91210938 805.408203125 1160.33984375 802.8515625 1160.33984375 800.192382812 c 0
 1160.33984375 789.2578125 1153.3046875 779.953125 1143.51660156 776.5625 c 0xae
 1094.66601562 760.279296875 1044.01953125 751.015625 993.125976562 748.771484375 c 2
 993.125976562 748.771484375 993.125976562 489.290039062 993.125976562 489.24609375 c 0
 993.166992188 488.662109375 993.1875 488.116210938 993.1875 487.522460938 c 0
 993.1875 486.927734375 993.166992188 486.337890625 993.125976562 485.75390625 c 2
 993.125976562 324.740234375 l 1
 993.125976562 324.740234375 1273.79394531 324.743272569 1460.90794994 324.743272569 c 0
 1554.46495226 324.743272569 1624.63346354 324.742513021 1624.63574219 324.740234375 c 0
 1624.76953125 324.7421875 1624.89550781 324.75 1625.02929688 324.75 c 0
 1638.82714844 324.75 1650.02929688 313.547851562 1650.02929688 299.75 c 0
 1650.02929688 299.616210938 1650.02832031 299.483398438 1650.02636719 299.349609375 c 0
 1649.20996094 286.286132812 1638.35058594 275.908203125 1625.08300781 275.908203125 c 0
 1624.93359375 275.908203125 1624.78417969 275.909179688 1624.63574219 275.912109375 c 2
 993.125976562 275.912109375 l 1
 993.125976562 275.912109375 993.125976562 114.290039062 993.125976562 114.24609375 c 0
 993.166992188 113.662109375 993.1875 113.116210938 993.1875 112.522460938 c 0
 993.1875 111.927734375 993.166992188 111.337890625 993.125976562 110.75390625 c 2
 993.125976562 110.75390625 993.129014757 -27.3559027778 993.129014757 -119.431134259 c 0
 993.129014757 -165.46875 993.128255208 -199.997721354 993.125976562 -200 c 0
 993.127929688 -200.133789062 993.135742188 -200.259765625 993.135742188 -200.393554688 c 0
 993.135742188 -214.19140625 981.93359375 -225.393554688 968.135742188 -225.393554688 c 0
 968.001953125 -225.393554688 967.869140625 -225.392578125 967.735351562 -225.390625 c 0
 954.671875 -224.57421875 944.293945312 -213.71484375 944.293945312 -200.447265625 c 0
 944.293945312 -200.297851562 944.294921875 -200.1484375 944.297851562 -200 c 2
 944.297851562 101.431640625 l 1
 769.817382812 275.912109375 l 1
 394.614257812 275.912109375 l 2
 392.370117188 225.017578125 383.107421875 174.372070312 366.823242188 125.521484375 c 0
 363.432617188 115.734375 354.133789062 108.709960938 343.198242188 108.709960938 c 0
 340.540039062 108.709960938 337.977539062 109.125976562 335.573242188 109.896484375 c 0
 325.786132812 113.287109375 318.76171875 122.5859375 318.76171875 133.521484375 c 0
 318.76171875 136.1796875 319.177734375 138.7421875 319.948242188 141.146484375 c 0
 334.52734375 184.8828125 342.918945312 230.272460938 345.124023438 275.912109375 c 1
 175.864257812 275.912109375 l 2xce
 173.620117188 225.017578125 164.356445312 174.372070312 148.073242188 125.521484375 c 0
 144.682617188 115.734375 135.383789062 108.709960938 124.448242188 108.709960938 c 0
 121.790039062 108.709960938 119.227539062 109.125976562 116.823242188 109.896484375 c 0
 107.036132812 113.287109375 100.01171875 122.5859375 100.01171875 133.521484375 c 0xd6
 100.01171875 136.1796875 100.427734375 138.7421875 101.198242188 141.146484375 c 0
 117.958007812 191.426757812 126.540039062 243.892578125 126.946289062 296.412109375 c 0
 126.771484375 297.374023438 126.650390625 298.353515625 126.588867188 299.349609375 c 0
 126.586914062 299.482421875 126.584960938 299.5859375 126.584960938 299.719726562 c 0
 126.584960938 301.173828125 126.709960938 302.598632812 126.948242188 303.984375 c 0xce
 126.567382812 356.587890625 117.985351562 409.143554688 101.198242188 459.505859375 c 0
 100.427734375 461.91015625 100 464.466796875 100 467.125976562 c 0
 100 478.060546875 107.036132812 487.365234375 116.823242188 490.755859375 c 0
 119.227539062 491.526367188 121.784179688 491.954101562 124.443359375 491.954101562 c 0
 135.377929688 491.954101562 144.682617188 484.91796875 148.073242188 475.130859375 c 0xd6
 164.356445312 426.280273438 173.620117188 375.633789062 175.864257812 324.740234375 c 2
 345.124023438 324.740234375 l 1
 342.918945312 370.379882812 334.52734375 415.76953125 319.948242188 459.505859375 c 0
 319.177734375 461.91015625 318.75 464.466796875 318.75 467.125976562 c 0
 318.75 478.060546875 325.786132812 487.365234375 335.573242188 490.755859375 c 0
 337.977539062 491.526367188 340.534179688 491.954101562 343.193359375 491.954101562 c 0
 354.127929688 491.954101562 363.432617188 484.91796875 366.823242188 475.130859375 c 0
 383.106445312 426.280273438 392.370117188 375.633789062 394.614257812 324.740234375 c 2
 770.469726562 324.740234375 l 1
 944.297851562 498.568359375 l 1
 944.297851562 748.771484375 l 2xce
 893.403320312 751.015625 842.7578125 760.279296875 793.907226562 776.5625 c 0
 784.120117188 779.953125 777.095703125 789.251953125 777.095703125 800.1875 c 0
 777.095703125 802.845703125 777.51171875 805.408203125 778.282226562 807.8125 c 0
 781.66796875 817.586914062 790.946289062 824.610351562 801.862304688 824.62890625 c 2xae
944.297851562 428.255859375 m 1
 816.041992188 300 l 1
 944.297851562 171.744140625 l 1
 944.297851562 171.744140625 944.29437934 225.559678819 944.29437934 261.428891782 c 0
 944.29437934 279.363498264 944.295247396 292.811523437 944.297851562 292.802734375 c 1
 943.58984375 294.868164062 943.13671875 297.081054688 942.995117188 299.349609375 c 0
 942.993164062 299.481445312 942.999023438 299.611328125 942.999023438 299.744140625 c 0
 942.999023438 302.529296875 943.455078125 305.209960938 944.297851562 307.712890625 c 2
 944.297851562 428.255859375 l 1
1379.19238281 158.724609375 m 0
 1386.10546875 158.563476562 1392.33886719 155.596679688 1396.77050781 150.912109375 c 0
 1401.23730469 146.39453125 1403.99707031 140.177734375 1403.99707031 133.330078125 c 0
 1403.99707031 126.481445312 1401.23730469 120.2734375 1396.77050781 115.755859375 c 2
 1248.33300781 -32.681640625 l 1
 1248.33300781 -32.681640625 1396.77050781 -183.081054688 1396.77050781 -183.072265625 c 1
 1401.23730469 -187.58984375 1403.99707031 -193.806640625 1403.99707031 -200.654296875 c 0
 1403.99707031 -207.502929688 1401.23730469 -213.7109375 1396.77050781 -218.228515625 c 0
 1392.25390625 -222.6953125 1386.03613281 -225.455078125 1379.18847656 -225.455078125 c 0
 1372.33984375 -225.455078125 1366.13085938 -222.6953125 1361.61425781 -218.228515625 c 2
 1361.61425781 -218.228515625 1195.59863281 -50.2509765625 1195.59863281 -50.259765625 c 1
 1191.1328125 -45.7421875 1188.37402344 -39.525390625 1188.37402344 -32.677734375 c 0
 1188.37402344 -25.8291015625 1191.1328125 -19.62109375 1195.59863281 -15.103515625 c 2
 1195.59863281 -15.103515625 1361.62402344 150.905273438 1361.61425781 150.912109375 c 1
 1366.04589844 155.596679688 1372.27929688 158.563476562 1379.19238281 158.724609375 c 0
EndSplineSet
EndChar

StartChar: U122d3
Encoding: 261 74451 5
Width: 1750
VWidth: 100
Flags: W
HStem: -24.2227 48.8418<706.831 1149.83> 175 50.7812<728.776 1111.17> 275.908 48.8418<175.864 292.386 341.967 649.828 1176.01 1649.83> 374.219 50.7812<728.776 1111.33> 575.391 48.819<706.696 1149.84>
VStem: 100.012 48.0615<110.06 215.508 385.023 490.593> 126.948 48.916<153.179 275.912 324.74 447.473> 266.027 48.0615<110.06 216.271 384.381 490.593> 292.388 49.4883<153.179 275.912 324.74 447.473> 600.012 48.0615<-223.274 -138.482 738.482 823.274> 681.053 49.4397<225.781 374.219> 1100.01 48.0615<110.06 174.134 426.518 490.593> 1126.95 48.916<226.879 275.912 324.74 372.333>
LayerCount: 2
Fore
SplineSet
457.317382812 825.390625 m 0xf860
 464.23046875 825.229492188 470.463867188 822.262695312 474.895507812 817.578125 c 0
 479.362304688 813.060546875 482.122070312 806.84375 482.122070312 799.99609375 c 0
 482.122070312 793.147460938 479.362304688 786.939453125 474.895507812 782.421875 c 2
 326.458007812 633.984375 l 1
 326.458007812 633.984375 474.895507812 483.584960938 474.895507812 483.59375 c 1
 479.362304688 479.076171875 482.122070312 472.859375 482.122070312 466.01171875 c 0
 482.122070312 459.163085938 479.362304688 452.955078125 474.895507812 448.4375 c 0
 470.377929688 443.970703125 464.161132812 441.211914062 457.313476562 441.211914062 c 0
 450.46484375 441.211914062 444.256835938 443.970703125 439.739257812 448.4375 c 2
 439.739257812 448.4375 273.723632812 616.415039062 273.723632812 616.40625 c 1
 269.2578125 620.923828125 266.499023438 627.140625 266.499023438 633.98828125 c 0
 266.499023438 640.836914062 269.2578125 647.044921875 273.723632812 651.5625 c 2
 273.723632812 651.5625 439.749023438 817.571289062 439.739257812 817.578125 c 1
 444.170898438 822.262695312 450.404296875 825.229492188 457.317382812 825.390625 c 0xf860
624.528320312 824.62890625 m 2
 635.428710938 824.594726562 644.690429688 817.576171875 648.073242188 807.8125 c 0
 668.2109375 747.3984375 684.657226562 686.090820312 697.415039062 624.21875 c 2
 697.415039062 624.21875 887.287868924 624.209635417 1013.87178096 624.209635417 c 0
 1077.16373698 624.209635417 1124.63346354 624.211914062 1124.63574219 624.21875 c 0
 1124.78417969 624.221679688 1124.92578125 624.202148438 1125.07519531 624.202148438 c 0
 1138.34277344 624.202148438 1149.20996094 613.844726562 1150.02636719 600.78125 c 0
 1150.02832031 600.647460938 1150.03613281 600.521484375 1150.03613281 600.387695312 c 0
 1150.03613281 586.58984375 1138.83398438 575.387695312 1125.03613281 575.387695312 c 0
 1124.90234375 575.387695312 1124.76953125 575.388671875 1124.63574219 575.390625 c 2
 706.696289062 575.390625 l 1
 715.380859375 525.512695312 721.690429688 475.326171875 725.620117188 425 c 2
 1111.33496094 425 l 1
 1108.37597656 436.59765625 1104.99707031 448.108398438 1101.19824219 459.505859375 c 0
 1100.42773438 461.91015625 1100 464.466796875 1100 467.125976562 c 0
 1100 478.060546875 1107.03613281 487.365234375 1116.82324219 490.755859375 c 0
 1119.22753906 491.526367188 1121.78417969 491.954101562 1124.44335938 491.954101562 c 0
 1135.37792969 491.954101562 1144.68261719 484.91796875 1148.07324219 475.130859375 c 0xf870
 1164.35644531 426.280273438 1173.62011719 375.633789062 1175.86425781 324.740234375 c 2
 1175.86425781 324.740234375 1375.31521267 324.743272569 1508.28454138 324.743272569 c 0
 1574.76920573 324.743272569 1624.63346354 324.742513021 1624.63574219 324.740234375 c 0
 1624.76953125 324.7421875 1624.89550781 324.75 1625.02929688 324.75 c 0
 1638.82714844 324.75 1650.02929688 313.547851562 1650.02929688 299.75 c 0
 1650.02929688 299.616210938 1650.02832031 299.483398438 1650.02636719 299.349609375 c 0
 1649.20996094 286.286132812 1638.35058594 275.908203125 1625.08300781 275.908203125 c 0
 1624.93359375 275.908203125 1624.78417969 275.909179688 1624.63574219 275.912109375 c 2
 1175.86425781 275.912109375 l 2xf868
 1173.62011719 225.017578125 1164.35644531 174.372070312 1148.07324219 125.521484375 c 0
 1144.68261719 115.734375 1135.38378906 108.709960938 1124.44824219 108.709960938 c 0
 1121.79003906 108.709960938 1119.22753906 109.125976562 1116.82324219 109.896484375 c 0
 1107.03613281 113.287109375 1100.01171875 122.5859375 1100.01171875 133.521484375 c 0xf870
 1100.01171875 136.1796875 1100.42773438 138.7421875 1101.19824219 141.146484375 c 0
 1104.92675781 152.331054688 1108.25 163.623046875 1111.16894531 175 c 1
 725.620117188 175 l 2
 721.690429688 124.673828125 715.380859375 74.4873046875 706.696289062 24.609375 c 1
 706.696289062 24.609375 892.444118924 24.6124131944 1016.27803096 24.6124131944 c 0
 1078.19498698 24.6124131944 1124.63346354 24.6116536458 1124.63574219 24.609375 c 0
 1124.76953125 24.611328125 1124.89550781 24.619140625 1125.02929688 24.619140625 c 0
 1138.82714844 24.619140625 1150.02929688 13.4169921875 1150.02929688 -0.380859375 c 0
 1150.02929688 -0.5146484375 1150.02832031 -0.6474609375 1150.02636719 -0.78125 c 0
 1149.20996094 -13.8447265625 1138.35058594 -24.22265625 1125.08300781 -24.22265625 c 0
 1124.93359375 -24.22265625 1124.78417969 -24.2216796875 1124.63574219 -24.21875 c 2
 697.415039062 -24.21875 l 2
 684.657226562 -86.0908203125 668.2109375 -147.3984375 648.073242188 -207.8125 c 0
 644.682617188 -217.599609375 635.383789062 -224.624023438 624.448242188 -224.624023438 c 0
 621.790039062 -224.624023438 619.227539062 -224.208007812 616.823242188 -223.4375 c 0
 607.036132812 -220.046875 600.01171875 -210.748046875 600.01171875 -199.8125 c 0
 600.01171875 -197.154296875 600.427734375 -194.591796875 601.198242188 -192.1875 c 0
 622.322265625 -128.814453125 639.254882812 -64.4140625 651.997070312 0.60546875 c 0
 652.099609375 3.1826171875 652.600585938 5.68359375 653.426757812 8.00390625 c 0
 665.342773438 70.40625 673.404296875 133.365234375 677.610351562 196.51953125 c 0
 677.44921875 197.665039062 677.3671875 198.802734375 677.3671875 199.9921875 c 0
 677.3671875 200.125 677.368164062 200.2578125 677.370117188 200.390625 c 0
 677.368164062 200.525390625 677.370117188 200.6484375 677.370117188 200.783203125 c 0
 677.370117188 203.139648438 677.697265625 205.419921875 678.307617188 207.58203125 c 0
 680.137695312 238.360351562 681.052734375 269.180175781 681.052734375 300 c 0
 681.052734375 330.819824219 680.137695312 361.639648438 678.307617188 392.41796875 c 0
 677.697265625 394.580078125 677.3671875 396.84765625 677.3671875 399.204101562 c 0
 677.3671875 399.33984375 677.368164062 399.474609375 677.370117188 399.609375 c 0
 677.368164062 399.7421875 677.366210938 399.842773438 677.366210938 399.975585938 c 0
 677.366210938 401.165039062 677.44921875 402.334960938 677.610351562 403.48046875 c 0
 673.404296875 466.634765625 665.342773438 529.59375 653.426757812 591.99609375 c 0
 652.600585938 594.31640625 652.099609375 596.817382812 651.997070312 599.39453125 c 0
 639.254882812 664.4140625 622.322265625 728.814453125 601.198242188 792.1875 c 0
 600.427734375 794.591796875 600 797.1484375 600 799.807617188 c 0
 600 810.7421875 607.036132812 820.046875 616.823242188 823.4375 c 0
 619.227539062 824.208007812 621.7890625 824.62890625 624.448242188 824.62890625 c 2
 624.528320312 824.62890625 l 2
124.491210938 491.947265625 m 2
 135.408203125 491.9296875 144.686523438 484.90625 148.073242188 475.130859375 c 0xfc60
 164.356445312 426.280273438 173.620117188 375.633789062 175.864257812 324.740234375 c 2
 292.385742188 324.740234375 l 1
 290.180664062 370.379882812 281.791015625 415.76953125 267.213867188 459.505859375 c 0
 266.443359375 461.91015625 266.015625 464.466796875 266.015625 467.125976562 c 0
 266.015625 478.060546875 273.051757812 487.365234375 282.838867188 490.755859375 c 0
 285.243164062 491.526367188 287.799804688 491.954101562 290.458984375 491.954101562 c 0
 301.393554688 491.954101562 310.698242188 484.91796875 314.088867188 475.130859375 c 0xfb60
 330.37109375 426.280273438 339.6328125 375.633789062 341.875976562 324.740234375 c 2
 341.875976562 324.740234375 467.543945312 324.743272569 551.324616609 324.743272569 c 0
 593.214952257 324.743272569 624.633463542 324.742513021 624.635742188 324.740234375 c 0
 624.76953125 324.7421875 624.895507812 324.75 625.029296875 324.75 c 0
 638.827148438 324.75 650.029296875 313.547851562 650.029296875 299.75 c 0
 650.029296875 299.616210938 650.028320312 299.483398438 650.026367188 299.349609375 c 0
 649.209960938 286.286132812 638.350585938 275.908203125 625.083007812 275.908203125 c 0
 624.93359375 275.908203125 624.784179688 275.909179688 624.635742188 275.912109375 c 2
 341.875976562 275.912109375 l 2xf8e0
 339.6328125 225.017578125 330.37109375 174.372070312 314.088867188 125.521484375 c 0
 310.698242188 115.734375 301.399414062 108.709960938 290.463867188 108.709960938 c 0
 287.805664062 108.709960938 285.243164062 109.125976562 282.838867188 109.896484375 c 0
 273.051757812 113.287109375 266.02734375 122.5859375 266.02734375 133.521484375 c 0xf960
 266.02734375 136.1796875 266.443359375 138.7421875 267.213867188 141.146484375 c 0
 281.791015625 184.8828125 290.182617188 230.272460938 292.387695312 275.912109375 c 1
 175.864257812 275.912109375 l 2xfae0
 173.620117188 225.017578125 164.356445312 174.372070312 148.073242188 125.521484375 c 0
 144.682617188 115.734375 135.383789062 108.709960938 124.448242188 108.709960938 c 0
 121.790039062 108.709960938 119.227539062 109.125976562 116.823242188 109.896484375 c 0
 107.036132812 113.287109375 100.01171875 122.5859375 100.01171875 133.521484375 c 0xfc60
 100.01171875 136.1796875 100.427734375 138.7421875 101.198242188 141.146484375 c 0
 117.958984375 191.428710938 126.541992188 243.895507812 126.948242188 296.416015625 c 0
 126.772460938 297.375976562 126.651367188 298.354492188 126.588867188 299.349609375 c 0
 126.586914062 299.482421875 126.584960938 299.584960938 126.584960938 299.717773438 c 0
 126.584960938 301.171875 126.709960938 302.596679688 126.948242188 303.982421875 c 0xfa60
 126.568359375 356.586914062 117.985351562 409.143554688 101.198242188 459.505859375 c 0
 100.427734375 461.91015625 100 464.466796875 100 467.125976562 c 0
 100 478.060546875 107.036132812 487.365234375 116.823242188 490.755859375 c 0
 119.227539062 491.525390625 121.790039062 491.947265625 124.448242188 491.947265625 c 2
 124.491210938 491.947265625 l 2
728.776367188 374.21875 m 1
 729.920410156 349.492675781 730.492431641 324.746337891 730.492431641 300 c 0
 730.492431641 275.253662109 729.920410156 250.507324219 728.776367188 225.78125 c 1
 1121.43847656 225.78125 l 2
 1124.92871094 249.186523438 1126.765625 272.795898438 1126.94824219 296.416015625 c 0
 1126.77246094 297.375976562 1126.65136719 298.354492188 1126.58886719 299.349609375 c 0
 1126.58691406 299.482421875 1126.58496094 299.584960938 1126.58496094 299.717773438 c 0
 1126.58496094 301.171875 1126.70996094 302.596679688 1126.94824219 303.982421875 c 0xf868
 1126.77832031 327.467773438 1124.97460938 350.944335938 1121.53417969 374.21875 c 2
 728.776367188 374.21875 l 1
457.317382812 158.724609375 m 0
 464.23046875 158.563476562 470.463867188 155.596679688 474.895507812 150.912109375 c 0
 479.362304688 146.39453125 482.122070312 140.177734375 482.122070312 133.330078125 c 0
 482.122070312 126.481445312 479.362304688 120.2734375 474.895507812 115.755859375 c 2
 326.458007812 -32.681640625 l 1
 326.458007812 -32.681640625 474.895507812 -183.081054688 474.895507812 -183.072265625 c 1
 479.362304688 -187.58984375 482.12109375 -193.806640625 482.12109375 -200.654296875 c 0
 482.12109375 -207.502929688 479.362304688 -213.7109375 474.895507812 -218.228515625 c 0
 470.377929688 -222.6953125 464.161132812 -225.454101562 457.313476562 -225.454101562 c 0
 450.46484375 -225.454101562 444.256835938 -222.6953125 439.739257812 -218.228515625 c 2
 439.739257812 -218.228515625 273.723632812 -50.2509765625 273.723632812 -50.259765625 c 1
 269.2578125 -45.7421875 266.499023438 -39.525390625 266.499023438 -32.677734375 c 0
 266.499023438 -25.8291015625 269.2578125 -19.62109375 273.723632812 -15.103515625 c 2
 273.723632812 -15.103515625 439.749023438 150.905273438 439.739257812 150.912109375 c 1
 444.170898438 155.596679688 450.404296875 158.563476562 457.317382812 158.724609375 c 0
EndSplineSet
EndChar

StartChar: U12108
Encoding: 262 73992 6
Width: 1750
VWidth: 100
Flags: W
HStem: 275.908 48.8418<175.864 460.358 509.849 731.405 802.37 849.245 900.026 1099.25 1150.03 1349.25 1400.1 1649.83> 694.344 49.2378<913.239 1099.25 1150.03 1334.54> 776.562 48.0615<601.361 687.393 1564.19 1647.91>
VStem: 100.012 48.0615<110.06 215.512 385.022 490.593> 126.948 48.916<153.179 275.912 324.74 447.473> 849.242 50.7939<-225.193 275.758 324.74 709.932> 1099.24 50.7939<-225.193 275.758 324.74 694.344> 1349.24 50.7939<-225.193 275.758 324.74 709.932>
LayerCount: 2
Fore
SplineSet
791.301757812 825.390625 m 0xef
 798.21484375 825.229492188 804.448242188 822.262695312 808.879882812 817.578125 c 0
 813.346679688 813.060546875 816.10546875 806.84375 816.10546875 799.99609375 c 0
 816.10546875 793.147460938 813.346679688 786.939453125 808.879882812 782.421875 c 2
 803.514648438 777.056640625 l 1
 909.374674186 754.739939297 1017.00530417 743.581558994 1124.63593702 743.581558994 c 0
 1290.8729432 743.581558994 1457.10995623 770.200133195 1616.82324219 823.4375 c 0
 1619.22753906 824.208007812 1621.78417969 824.635742188 1624.44335938 824.635742188 c 0
 1635.37792969 824.635742188 1644.68261719 817.599609375 1648.07324219 807.8125 c 0
 1648.84375 805.408203125 1649.27148438 802.8515625 1649.27148438 800.192382812 c 0
 1649.27148438 789.2578125 1642.23535156 779.953125 1632.44824219 776.5625 c 0
 1556.17773438 751.138671875 1478.48339844 731.599609375 1400.02636719 717.939453125 c 2
 1400.02636719 324.740234375 l 1
 1400.02636719 324.740234375 1499.84971788 324.743272569 1566.40064381 324.743272569 c 0
 1599.67610677 324.743272569 1624.63346354 324.742513021 1624.63574219 324.740234375 c 0
 1624.76953125 324.7421875 1624.89550781 324.75 1625.02929688 324.75 c 0
 1638.82714844 324.75 1650.02929688 313.547851562 1650.02929688 299.75 c 0
 1650.02929688 299.616210938 1650.02832031 299.483398438 1650.02636719 299.349609375 c 0
 1649.20996094 286.286132812 1638.35058594 275.908203125 1625.08300781 275.908203125 c 0
 1624.93359375 275.908203125 1624.78417969 275.909179688 1624.63574219 275.912109375 c 2
 1400.02636719 275.912109375 l 1
 1400.02636719 275.912109375 1400.02940538 64.3986545139 1400.02940538 -76.6123408565 c 0
 1400.02940538 -147.117838542 1400.02864583 -199.997721354 1400.02636719 -200 c 0
 1400.02832031 -200.133789062 1400.03613281 -200.259765625 1400.03613281 -200.393554688 c 0
 1400.03613281 -214.19140625 1388.83398438 -225.393554688 1375.03613281 -225.393554688 c 0
 1374.90234375 -225.393554688 1374.76953125 -225.392578125 1374.63574219 -225.390625 c 0
 1374.50195312 -225.392578125 1374.37597656 -225.400390625 1374.2421875 -225.400390625 c 0
 1360.44433594 -225.400390625 1349.2421875 -214.198242188 1349.2421875 -200.400390625 c 0
 1349.2421875 -200.266601562 1349.24316406 -200.133789062 1349.24511719 -200 c 2
 1349.24511719 275.912109375 l 1
 1150.02636719 275.912109375 l 1
 1150.02636719 275.912109375 1150.02940538 64.3986545139 1150.02940538 -76.6123408565 c 0
 1150.02940538 -147.117838542 1150.02864583 -199.997721354 1150.02636719 -200 c 0
 1150.02832031 -200.133789062 1150.03613281 -200.259765625 1150.03613281 -200.393554688 c 0
 1150.03613281 -214.19140625 1138.83398438 -225.393554688 1125.03613281 -225.393554688 c 0
 1124.90234375 -225.393554688 1124.76953125 -225.392578125 1124.63574219 -225.390625 c 0
 1124.50195312 -225.392578125 1124.37597656 -225.400390625 1124.2421875 -225.400390625 c 0
 1110.44433594 -225.400390625 1099.2421875 -214.198242188 1099.2421875 -200.400390625 c 0
 1099.2421875 -200.266601562 1099.24316406 -200.133789062 1099.24511719 -200 c 2
 1099.24511719 275.912109375 l 1
 900.026367188 275.912109375 l 1
 900.026367188 275.912109375 900.029405382 64.3986545139 900.029405382 -76.6123408565 c 0
 900.029405382 -147.117838542 900.028645833 -199.997721354 900.026367188 -200 c 0
 900.028320312 -200.133789062 900.036132812 -200.259765625 900.036132812 -200.393554688 c 0
 900.036132812 -214.19140625 888.833984375 -225.393554688 875.036132812 -225.393554688 c 0
 874.90234375 -225.393554688 874.76953125 -225.392578125 874.635742188 -225.390625 c 0
 874.501953125 -225.392578125 874.375976562 -225.400390625 874.2421875 -225.400390625 c 0
 860.444335938 -225.400390625 849.2421875 -214.198242188 849.2421875 -200.400390625 c 0
 849.2421875 -200.266601562 849.243164062 -200.133789062 849.245117188 -200 c 2
 849.245117188 275.912109375 l 1
 802.370117188 275.912109375 l 1
 576.458007812 50 l 1
 576.458007812 50 808.879882812 -182.430664062 808.879882812 -182.421875 c 1
 813.346679688 -186.939453125 816.10546875 -193.15625 816.10546875 -200.00390625 c 0
 816.10546875 -206.852539062 813.346679688 -213.060546875 808.879882812 -217.578125 c 0
 804.362304688 -222.044921875 798.145507812 -224.8046875 791.297851562 -224.8046875 c 0
 784.44921875 -224.8046875 778.241210938 -222.044921875 773.723632812 -217.578125 c 2
 773.723632812 -217.578125 523.723632812 32.4306640625 523.723632812 32.421875 c 1
 519.2578125 36.939453125 516.499023438 43.15625 516.499023438 50.00390625 c 0
 516.499023438 56.8525390625 519.2578125 63.060546875 523.723632812 67.578125 c 2
 732.057617188 275.912109375 l 1
 509.848632812 275.912109375 l 2
 507.604492188 225.017578125 498.341796875 174.372070312 482.057617188 125.521484375 c 0
 478.666992188 115.734375 469.368164062 108.709960938 458.432617188 108.709960938 c 0
 455.774414062 108.709960938 453.211914062 109.125976562 450.807617188 109.896484375 c 0
 444.1484375 111.541992188 438.541015625 115.830078125 435.182617188 121.615234375 c 0
 433.911132812 124.611328125 433.208007812 127.94140625 433.208007812 131.3984375 c 0
 433.208007812 134.85546875 433.911132812 138.150390625 435.182617188 141.146484375 c 0
 449.76171875 184.8828125 458.153320312 230.272460938 460.358398438 275.912109375 c 1
 175.864257812 275.912109375 l 2xef
 173.620117188 225.017578125 164.356445312 174.372070312 148.073242188 125.521484375 c 0
 144.682617188 115.734375 135.383789062 108.709960938 124.448242188 108.709960938 c 0
 121.790039062 108.709960938 119.227539062 109.125976562 116.823242188 109.896484375 c 0
 107.036132812 113.287109375 100.01171875 122.5859375 100.01171875 133.521484375 c 0xf7
 100.01171875 136.1796875 100.427734375 138.7421875 101.198242188 141.146484375 c 0
 117.959960938 191.430664062 126.54296875 243.900390625 126.948242188 296.423828125 c 0
 126.772460938 297.381835938 126.651367188 298.357421875 126.588867188 299.349609375 c 0
 126.586914062 299.481445312 126.584960938 299.583984375 126.584960938 299.715820312 c 0
 126.584960938 301.169921875 126.709960938 302.594726562 126.948242188 303.98046875 c 0xef
 126.568359375 356.5859375 117.986328125 409.142578125 101.198242188 459.505859375 c 0
 100.427734375 461.91015625 100 464.466796875 100 467.125976562 c 0
 100 478.060546875 107.036132812 487.365234375 116.823242188 490.755859375 c 0
 119.227539062 491.526367188 121.784179688 491.954101562 124.443359375 491.954101562 c 0
 135.377929688 491.954101562 144.682617188 484.91796875 148.073242188 475.130859375 c 0xf7
 164.356445312 426.280273438 173.620117188 375.633789062 175.864257812 324.740234375 c 2
 460.358398438 324.740234375 l 1
 458.153320312 370.379882812 449.76171875 415.76953125 435.182617188 459.505859375 c 0
 434.412109375 461.91015625 433.984375 464.466796875 433.984375 467.125976562 c 0
 433.984375 478.060546875 441.020507812 487.365234375 450.807617188 490.755859375 c 0
 453.211914062 491.526367188 455.768554688 491.954101562 458.427734375 491.954101562 c 0
 469.362304688 491.954101562 478.666992188 484.91796875 482.057617188 475.130859375 c 0
 498.340820312 426.280273438 507.604492188 375.633789062 509.848632812 324.740234375 c 2
 731.405273438 324.740234375 l 1
 731.405273438 324.740234375 523.723632812 532.430664062 523.723632812 532.421875 c 1
 519.2578125 536.939453125 516.499023438 543.15625 516.499023438 550.00390625 c 0
 516.499023438 556.852539062 519.2578125 563.060546875 523.723632812 567.578125 c 2
 705.864257812 749.71875 l 1
 675.997070312 757.788085938 646.303710938 766.735351562 616.823242188 776.5625 c 0
 607.036132812 779.953125 600.01171875 789.251953125 600.01171875 800.1875 c 0
 600.01171875 802.845703125 600.427734375 805.408203125 601.198242188 807.8125 c 0
 604.588867188 817.599609375 613.887695312 824.624023438 624.823242188 824.624023438 c 0
 627.481445312 824.624023438 630.043945312 824.208007812 632.448242188 823.4375 c 0
 670.090820312 810.889648438 708.095703125 799.822265625 746.377929688 790.232421875 c 2
 746.377929688 790.232421875 773.733398438 817.571289062 773.723632812 817.578125 c 1
 778.155273438 822.262695312 784.388671875 825.229492188 791.301757812 825.390625 c 0xef
762.075195312 735.6171875 m 2
 576.458007812 550 l 1
 801.717773438 324.740234375 l 1
 849.245117188 324.740234375 l 1
 849.245117188 717.939453125 l 2
 820.071289062 723.018554688 791.00390625 728.911132812 762.075195312 735.6171875 c 2
900.026367188 709.931640625 m 1
 900.026367188 324.740234375 l 1
 1099.24511719 324.740234375 l 1
 1099.24511719 694.34375 l 2
 1032.65917969 695.396484375 966.124023438 700.592773438 900.026367188 709.931640625 c 1
1349.24511719 709.931640625 m 1
 1283.14746094 700.592773438 1216.61230469 695.396484375 1150.02636719 694.34375 c 2
 1150.02636719 324.740234375 l 1
 1349.24511719 324.740234375 l 1
 1349.24511719 709.931640625 l 1
EndSplineSet
EndChar

StartChar: U122fb
Encoding: 263 74491 7
Width: 1250
VWidth: 100
Flags: W
HStem: 275.908 48.8418<175.864 460.358 509.884 600.548 649.376 1149.83>
VStem: 100.012 48.0615<110.06 215.511 385.023 490.593> 126.948 48.916<153.179 275.912 324.74 447.473> 433.984 48.0732<131.56 216.271 384.381 490.593> 460.358 49.4902<153.179 275.912 324.74 447.473> 600.544 48.8418<-225.193 275.758>
LayerCount: 2
Fore
SplineSet
124.491210938 491.947265625 m 2xa4
 135.408203125 491.9296875 144.686523438 484.90625 148.073242188 475.130859375 c 0xc4
 164.356445312 426.280273438 173.620117188 375.633789062 175.864257812 324.740234375 c 2
 460.358398438 324.740234375 l 1xac
 458.153320312 370.379882812 449.76171875 415.76953125 435.182617188 459.505859375 c 0
 434.412109375 461.91015625 433.984375 464.466796875 433.984375 467.125976562 c 0
 433.984375 478.060546875 441.020507812 487.365234375 450.807617188 490.755859375 c 0
 453.211914062 491.526367188 455.768554688 491.954101562 458.427734375 491.954101562 c 0
 469.362304688 491.954101562 478.666992188 484.91796875 482.057617188 475.130859375 c 0x94
 498.340820312 426.280273438 507.604492188 375.633789062 509.848632812 324.740234375 c 2
 509.848632812 324.740234375 558.665039062 324.741102431 591.206705729 324.741102431 c 0
 607.477539062 324.741102431 619.6796875 324.740885417 619.676757812 324.740234375 c 1
 621.068359375 325.076171875 622.513671875 325.298828125 623.985351562 325.390625 c 0
 624.118164062 325.392578125 624.229492188 325.392578125 624.36328125 325.392578125 c 0
 626.321289062 325.392578125 628.2265625 325.166992188 630.055664062 324.740234375 c 2
 630.055664062 324.740234375 849.865993924 324.743272569 996.408239294 324.743272569 c 0
 1069.67936198 324.743272569 1124.63346354 324.742513021 1124.63574219 324.740234375 c 0
 1124.76953125 324.7421875 1124.89550781 324.75 1125.02929688 324.75 c 0
 1138.82714844 324.75 1150.02929688 313.547851562 1150.02929688 299.75 c 0
 1150.02929688 299.616210938 1150.02832031 299.483398438 1150.02636719 299.349609375 c 0
 1149.20996094 286.286132812 1138.35058594 275.908203125 1125.08300781 275.908203125 c 0
 1124.93359375 275.908203125 1124.78417969 275.909179688 1124.63574219 275.912109375 c 2
 649.375976562 275.912109375 l 1
 649.375976562 275.912109375 649.379014757 64.3986545139 649.379014757 -76.6123408565 c 0
 649.379014757 -147.117838542 649.378255208 -199.997721354 649.375976562 -200 c 0
 649.377929688 -200.133789062 649.385742188 -200.259765625 649.385742188 -200.393554688 c 0
 649.385742188 -214.19140625 638.18359375 -225.393554688 624.385742188 -225.393554688 c 0
 624.251953125 -225.393554688 624.119140625 -225.392578125 623.985351562 -225.390625 c 0
 610.921875 -224.57421875 600.543945312 -213.71484375 600.543945312 -200.447265625 c 0
 600.543945312 -200.297851562 600.544921875 -200.1484375 600.547851562 -200 c 2
 600.547851562 275.912109375 l 1
 509.848632812 275.912109375 l 2x8c
 507.604492188 225.017578125 498.341796875 174.372070312 482.057617188 125.521484375 c 0x94
 478.666992188 115.734375 469.368164062 108.709960938 458.432617188 108.709960938 c 0
 455.774414062 108.709960938 453.211914062 109.125976562 450.807617188 109.896484375 c 0
 444.1484375 111.541992188 438.541015625 115.830078125 435.182617188 121.615234375 c 0
 433.911132812 124.611328125 433.208007812 127.94140625 433.208007812 131.3984375 c 0
 433.208007812 134.85546875 433.911132812 138.150390625 435.182617188 141.146484375 c 0
 449.76171875 184.8828125 458.153320312 230.272460938 460.358398438 275.912109375 c 1
 175.864257812 275.912109375 l 2xac
 173.620117188 225.017578125 164.356445312 174.372070312 148.073242188 125.521484375 c 0
 144.682617188 115.734375 135.383789062 108.709960938 124.448242188 108.709960938 c 0
 121.790039062 108.709960938 119.227539062 109.125976562 116.823242188 109.896484375 c 0
 107.036132812 113.287109375 100.01171875 122.5859375 100.01171875 133.521484375 c 0xc4
 100.01171875 136.1796875 100.427734375 138.7421875 101.198242188 141.146484375 c 0
 117.959960938 191.430664062 126.54296875 243.899414062 126.948242188 296.421875 c 0
 126.772460938 297.379882812 126.651367188 298.356445312 126.588867188 299.349609375 c 0
 126.586914062 299.482421875 126.584960938 299.5859375 126.584960938 299.719726562 c 0
 126.584960938 301.173828125 126.709960938 302.598632812 126.948242188 303.984375 c 0
 126.567382812 356.587890625 117.985351562 409.143554688 101.198242188 459.505859375 c 0
 100.427734375 461.91015625 100 464.466796875 100 467.125976562 c 0
 100 478.060546875 107.036132812 487.365234375 116.823242188 490.755859375 c 0
 119.227539062 491.525390625 121.790039062 491.947265625 124.448242188 491.947265625 c 2
 124.491210938 491.947265625 l 2xa4
EndSplineSet
EndChar

StartChar: U1202d
Encoding: 264 73773 8
Width: 1250
VWidth: 100
Flags: W
HStem: 275.908 48.8418<175.864 460.358 509.849 600.548 649.53 1149.83> 748.771 48.916<477.815 600.548 649.376 772.109> 776.562 48.0664<434.695 540.147 709.659 815.228>
VStem: 100.012 48.0615<110.06 215.511 385.023 490.593> 126.948 48.916<153.179 275.912 324.74 447.473> 433.984 48.0732<384.381 490.593> 600.544 48.8418<-225.193 275.758 324.74 748.771>
LayerCount: 2
Fore
SplineSet
458.112304688 824.62890625 m 2xae
 458.158203125 824.623046875 l 2
 460.81640625 824.623046875 463.377929688 824.20703125 465.782226562 823.4375 c 0
 516.06640625 806.67578125 568.53515625 798.092773438 621.057617188 797.6875 c 0
 622.015625 797.86328125 622.9921875 797.984375 623.985351562 798.046875 c 0
 624.118164062 798.048828125 624.221679688 798.05078125 624.35546875 798.05078125 c 0
 625.809570312 798.05078125 627.234375 797.92578125 628.620117188 797.6875 c 0xce
 681.223632812 798.068359375 733.779296875 806.650390625 784.141601562 823.4375 c 0
 786.545898438 824.208007812 789.102539062 824.635742188 791.76171875 824.635742188 c 0
 802.696289062 824.635742188 812.000976562 817.599609375 815.391601562 807.8125 c 0
 816.162109375 805.408203125 816.58984375 802.8515625 816.58984375 800.192382812 c 0
 816.58984375 789.2578125 809.553710938 779.953125 799.766601562 776.5625 c 0xae
 750.916015625 760.279296875 700.26953125 751.015625 649.375976562 748.771484375 c 2
 649.375976562 324.740234375 l 1
 649.375976562 324.740234375 860.599500868 324.743272569 1001.4172092 324.743272569 c 0
 1071.82606337 324.743272569 1124.63346354 324.742513021 1124.63574219 324.740234375 c 0
 1124.76953125 324.7421875 1124.89550781 324.75 1125.02929688 324.75 c 0
 1138.82714844 324.75 1150.02929688 313.547851562 1150.02929688 299.75 c 0
 1150.02929688 299.616210938 1150.02832031 299.483398438 1150.02636719 299.349609375 c 0
 1149.20996094 286.286132812 1138.35058594 275.908203125 1125.08300781 275.908203125 c 0
 1124.93359375 275.908203125 1124.78417969 275.909179688 1124.63574219 275.912109375 c 2
 649.375976562 275.912109375 l 1
 649.375976562 275.912109375 649.379014757 64.3986545139 649.379014757 -76.6123408565 c 0
 649.379014757 -147.117838542 649.378255208 -199.997721354 649.375976562 -200 c 0
 649.377929688 -200.133789062 649.385742188 -200.259765625 649.385742188 -200.393554688 c 0
 649.385742188 -214.19140625 638.18359375 -225.393554688 624.385742188 -225.393554688 c 0
 624.251953125 -225.393554688 624.119140625 -225.392578125 623.985351562 -225.390625 c 0
 610.921875 -224.57421875 600.543945312 -213.71484375 600.543945312 -200.447265625 c 0
 600.543945312 -200.297851562 600.544921875 -200.1484375 600.547851562 -200 c 2
 600.547851562 275.912109375 l 1
 509.848632812 275.912109375 l 2
 507.604492188 225.017578125 498.341796875 174.372070312 482.057617188 125.521484375 c 0
 478.666992188 115.734375 469.368164062 108.709960938 458.432617188 108.709960938 c 0
 455.774414062 108.709960938 453.211914062 109.125976562 450.807617188 109.896484375 c 0
 444.1484375 111.541992188 438.541015625 115.830078125 435.182617188 121.615234375 c 0
 433.911132812 124.611328125 433.208007812 127.94140625 433.208007812 131.3984375 c 0
 433.208007812 134.85546875 433.911132812 138.150390625 435.182617188 141.146484375 c 0
 449.76171875 184.8828125 458.153320312 230.272460938 460.358398438 275.912109375 c 1
 175.864257812 275.912109375 l 2xce
 173.620117188 225.017578125 164.356445312 174.372070312 148.073242188 125.521484375 c 0
 144.682617188 115.734375 135.383789062 108.709960938 124.448242188 108.709960938 c 0
 121.790039062 108.709960938 119.227539062 109.125976562 116.823242188 109.896484375 c 0
 107.036132812 113.287109375 100.01171875 122.5859375 100.01171875 133.521484375 c 0xd6
 100.01171875 136.1796875 100.427734375 138.7421875 101.198242188 141.146484375 c 0
 117.959960938 191.430664062 126.54296875 243.899414062 126.948242188 296.421875 c 0
 126.772460938 297.379882812 126.651367188 298.356445312 126.588867188 299.349609375 c 0
 126.586914062 299.482421875 126.584960938 299.5859375 126.584960938 299.719726562 c 0
 126.584960938 301.173828125 126.709960938 302.598632812 126.948242188 303.984375 c 0xce
 126.567382812 356.587890625 117.985351562 409.143554688 101.198242188 459.505859375 c 0
 100.427734375 461.91015625 100 464.466796875 100 467.125976562 c 0
 100 478.060546875 107.036132812 487.365234375 116.823242188 490.755859375 c 0
 119.227539062 491.526367188 121.784179688 491.954101562 124.443359375 491.954101562 c 0
 135.377929688 491.954101562 144.682617188 484.91796875 148.073242188 475.130859375 c 0xd6
 164.356445312 426.280273438 173.620117188 375.633789062 175.864257812 324.740234375 c 2
 460.358398438 324.740234375 l 1
 458.153320312 370.379882812 449.76171875 415.76953125 435.182617188 459.505859375 c 0
 434.412109375 461.91015625 433.984375 464.466796875 433.984375 467.125976562 c 0
 433.984375 478.060546875 441.020507812 487.365234375 450.807617188 490.755859375 c 0
 453.211914062 491.526367188 455.768554688 491.954101562 458.427734375 491.954101562 c 0
 469.362304688 491.954101562 478.666992188 484.91796875 482.057617188 475.130859375 c 0
 498.340820312 426.280273438 507.604492188 375.633789062 509.848632812 324.740234375 c 2
 600.547851562 324.740234375 l 1
 600.547851562 748.771484375 l 2xce
 549.653320312 751.015625 499.0078125 760.279296875 450.157226562 776.5625 c 0
 440.370117188 779.953125 433.345703125 789.251953125 433.345703125 800.1875 c 0
 433.345703125 802.845703125 433.76171875 805.408203125 434.532226562 807.8125 c 0
 437.91796875 817.586914062 447.196289062 824.610351562 458.112304688 824.62890625 c 2xae
EndSplineSet
EndChar

StartChar: U12033
Encoding: 265 73779 9
Width: 1750
VWidth: 100
Flags: W
HStem: -57.4219 48.8281<842.526 1433.88> 275.908 48.8418<176.063 815.844 1120.31 1433.88> 609.244 48.8281<842.526 1433.88> 748.771 48.916<1311.15 1433.88 1482.71 1605.44> 776.562 48.0615<1268.03 1373.48 1542.99 1648.56>
VStem: 100.012 48.0615<110.06 215.508 385.022 490.593> 126.948 48.916<153.179 275.912 324.74 447.473> 766.678 48.0615<-223.274 -117.822 51.684 157.259 443.392 548.845 718.35 823.925> 793.612 48.9141<-180.155 -57.4219 -8.59375 114.14 486.51 609.244 658.072 780.806> 1044.46 48.0615<110.06 215.507 385.026 490.593> 1071.39 48.9141<153.179 275.912 324.74 447.473> 1433.88 48.8418<-225.193 -57.4219 -8.59375 275.912 324.74 609.244 658.072 748.771>
LayerCount: 2
Fore
SplineSet
791.159179688 825.28125 m 2xf090
 802.075195312 825.262695312 811.353515625 818.23828125 814.739257812 808.462890625 c 0xf110
 831.021484375 759.614257812 840.283203125 708.966796875 842.526367188 658.072265625 c 2
 1433.87988281 658.072265625 l 1
 1433.87988281 748.771484375 l 2xf090
 1382.98535156 751.015625 1332.33789062 760.279296875 1283.48925781 776.5625 c 0
 1273.70117188 779.953125 1266.67773438 789.251953125 1266.67773438 800.1875 c 0
 1266.67773438 802.845703125 1267.09375 805.408203125 1267.86425781 807.8125 c 0
 1271.25488281 817.599609375 1280.55371094 824.624023438 1291.48925781 824.624023438 c 0xe890
 1294.14746094 824.624023438 1296.70996094 824.208007812 1299.11425781 823.4375 c 0
 1349.39648438 806.676757812 1401.86816406 798.092773438 1454.39160156 797.6875 c 0
 1455.34960938 797.86328125 1456.32519531 797.984375 1457.31738281 798.046875 c 0
 1457.45117188 798.048828125 1457.5546875 798.05078125 1457.68945312 798.05078125 c 0
 1459.14355469 798.05078125 1460.56835938 797.92578125 1461.95410156 797.6875 c 0xf090
 1514.55957031 798.068359375 1567.11425781 806.650390625 1617.47363281 823.4375 c 0
 1619.87792969 824.208007812 1622.43457031 824.635742188 1625.09375 824.635742188 c 0
 1636.02832031 824.635742188 1645.33300781 817.599609375 1648.72363281 807.8125 c 0
 1649.49414062 805.408203125 1649.921875 802.8515625 1649.921875 800.192382812 c 0
 1649.921875 789.2578125 1642.88574219 779.953125 1633.09863281 776.5625 c 0xe890
 1584.24902344 760.278320312 1533.60253906 751.015625 1482.70800781 748.771484375 c 2
 1482.70800781 748.771484375 1482.70800781 633.522460938 1482.70800781 633.5078125 c 0
 1482.70996094 633.368164062 1482.71191406 633.2421875 1482.71191406 633.102539062 c 0
 1482.71191406 632.961914062 1482.70996094 632.821289062 1482.70800781 632.681640625 c 2
 1482.70800781 632.681640625 1482.70800781 304.427734375 1482.70800781 304.400390625 c 0
 1482.99609375 302.883789062 1483.14648438 301.345703125 1483.14648438 299.745117188 c 0
 1483.14648438 299.61328125 1483.14550781 299.481445312 1483.14355469 299.349609375 c 0
 1483.07226562 298.217773438 1482.92480469 297.10546875 1482.70800781 296.01953125 c 2
 1482.70800781 296.01953125 1482.70800781 -33.1416015625 1482.70800781 -33.15625 c 0
 1482.70996094 -33.296875 1482.71191406 -33.421875 1482.71191406 -33.5625 c 0
 1482.71191406 -33.7041015625 1482.70996094 -33.84375 1482.70800781 -33.984375 c 2
 1482.70800781 -33.984375 1482.71104601 -107.766059028 1482.71104601 -156.955873843 c 0
 1482.71104601 -181.55078125 1482.71028646 -199.997721354 1482.70800781 -200 c 0
 1482.70996094 -200.133789062 1482.71777344 -200.259765625 1482.71777344 -200.393554688 c 0
 1482.71777344 -214.19140625 1471.515625 -225.393554688 1457.71777344 -225.393554688 c 0
 1457.58398438 -225.393554688 1457.45117188 -225.392578125 1457.31738281 -225.390625 c 0
 1444.25390625 -224.57421875 1433.87597656 -213.71484375 1433.87597656 -200.447265625 c 0
 1433.87597656 -200.297851562 1433.87695312 -200.1484375 1433.87988281 -200 c 2
 1433.87988281 -57.421875 l 1
 842.526367188 -57.421875 l 2xf090
 840.283203125 -108.31640625 831.021484375 -158.962890625 814.739257812 -207.8125 c 0
 811.348632812 -217.599609375 802.049804688 -224.624023438 791.114257812 -224.624023438 c 0
 788.456054688 -224.624023438 785.893554688 -224.208007812 783.489257812 -223.4375 c 0
 773.702148438 -220.046875 766.677734375 -210.748046875 766.677734375 -199.8125 c 0xf110
 766.677734375 -197.154296875 767.09375 -194.591796875 767.864257812 -192.1875 c 0
 784.624023438 -141.904296875 793.208007812 -89.4326171875 793.612304688 -36.908203125 c 0
 793.4375 -35.951171875 793.317382812 -34.9755859375 793.254882812 -33.984375 c 0
 793.252929688 -33.8515625 793.250976562 -33.7490234375 793.250976562 -33.6162109375 c 0
 793.250976562 -32.1669921875 793.375 -30.74609375 793.612304688 -29.36328125 c 0xf090
 793.233398438 23.2470703125 784.651367188 75.806640625 767.864257812 126.171875 c 0
 767.09375 128.576171875 766.666015625 131.1328125 766.666015625 133.791992188 c 0
 766.666015625 144.7265625 773.702148438 154.03125 783.489257812 157.421875 c 0
 785.893554688 158.192382812 788.450195312 158.620117188 791.109375 158.620117188 c 0
 802.043945312 158.620117188 811.348632812 151.583984375 814.739257812 141.796875 c 0xf110
 831.021484375 92.947265625 840.283203125 42.30078125 842.526367188 -8.59375 c 2
 1433.87988281 -8.59375 l 1
 1433.87988281 275.912109375 l 1
 1120.30761719 275.912109375 l 2xf0b0
 1118.06347656 225.017578125 1108.80175781 174.372070312 1092.51855469 125.521484375 c 0
 1089.12792969 115.734375 1079.82910156 108.709960938 1068.89355469 108.709960938 c 0
 1066.23535156 108.709960938 1063.67285156 109.125976562 1061.26855469 109.896484375 c 0
 1051.48144531 113.287109375 1044.45703125 122.5859375 1044.45703125 133.521484375 c 0xf050
 1044.45703125 136.1796875 1044.87304688 138.7421875 1045.64355469 141.146484375 c 0
 1062.40429688 191.427734375 1070.98535156 243.89453125 1071.39160156 296.4140625 c 0
 1071.21679688 297.375 1071.09570312 298.353515625 1071.03417969 299.349609375 c 0
 1071.03222656 299.484375 1071.03027344 299.58984375 1071.03027344 299.725585938 c 0
 1071.03027344 301.178710938 1071.15527344 302.604492188 1071.39355469 303.990234375 c 0xf030
 1071.01269531 356.591796875 1062.43066406 409.145507812 1045.64355469 459.505859375 c 0
 1044.87304688 461.91015625 1044.4453125 464.466796875 1044.4453125 467.125976562 c 0
 1044.4453125 478.060546875 1051.48144531 487.365234375 1061.26855469 490.755859375 c 0
 1063.67285156 491.526367188 1066.22949219 491.954101562 1068.88867188 491.954101562 c 0
 1079.82324219 491.954101562 1089.12792969 484.91796875 1092.51855469 475.130859375 c 0xf050
 1108.80175781 426.280273438 1118.06347656 375.633789062 1120.30761719 324.740234375 c 2
 1433.87988281 324.740234375 l 1
 1433.87988281 609.244140625 l 1
 842.526367188 609.244140625 l 2xf0b0
 840.283203125 558.349609375 831.020507812 507.702148438 814.739257812 458.853515625 c 0
 811.348632812 449.06640625 802.049804688 442.041992188 791.114257812 442.041992188 c 0
 788.456054688 442.041992188 785.893554688 442.458007812 783.489257812 443.228515625 c 0
 773.702148438 446.619140625 766.677734375 455.91796875 766.677734375 466.853515625 c 0xf110
 766.677734375 469.51171875 767.09375 472.07421875 767.864257812 474.478515625 c 0
 784.624023438 524.76171875 793.208007812 577.235351562 793.612304688 629.759765625 c 0
 793.4375 630.715820312 793.317382812 631.690429688 793.254882812 632.681640625 c 0
 793.252929688 632.814453125 793.250976562 632.916992188 793.250976562 633.049804688 c 0
 793.250976562 634.499023438 793.375 635.919921875 793.612304688 637.302734375 c 0
 793.233398438 689.913085938 784.651367188 742.473632812 767.864257812 792.837890625 c 0
 767.09375 795.2421875 766.666015625 797.798828125 766.666015625 800.458007812 c 0
 766.666015625 811.392578125 773.702148438 820.697265625 783.489257812 824.087890625 c 0
 785.89453125 824.859375 788.459960938 825.28125 791.120117188 825.28125 c 2
 791.159179688 825.28125 l 2xf090
124.491210938 491.947265625 m 2
 135.408203125 491.9296875 144.686523438 484.90625 148.073242188 475.130859375 c 0xe410
 164.356445312 426.280273438 173.620117188 375.633789062 175.864257812 324.740234375 c 2
 175.864257812 324.740234375 449.099934896 324.743272569 631.259078414 324.743272569 c 0
 722.338650174 324.743272569 790.649088542 324.742513021 790.651367188 324.740234375 c 0
 790.78515625 324.7421875 790.911132812 324.75 791.044921875 324.75 c 0
 804.842773438 324.75 816.044921875 313.547851562 816.044921875 299.75 c 0
 816.044921875 299.616210938 816.043945312 299.483398438 816.041992188 299.349609375 c 0
 815.225585938 286.286132812 804.366210938 275.908203125 791.098632812 275.908203125 c 0
 790.94921875 275.908203125 790.799804688 275.909179688 790.651367188 275.912109375 c 2
 175.864257812 275.912109375 l 2xe210
 173.620117188 225.017578125 164.356445312 174.372070312 148.073242188 125.521484375 c 0
 144.682617188 115.734375 135.383789062 108.709960938 124.448242188 108.709960938 c 0
 121.790039062 108.709960938 119.227539062 109.125976562 116.823242188 109.896484375 c 0
 107.036132812 113.287109375 100.01171875 122.5859375 100.01171875 133.521484375 c 0xe410
 100.01171875 136.1796875 100.427734375 138.7421875 101.198242188 141.146484375 c 0
 117.958984375 191.428710938 126.541992188 243.895507812 126.948242188 296.416015625 c 0
 126.772460938 297.375976562 126.651367188 298.354492188 126.588867188 299.349609375 c 0
 126.586914062 299.481445312 126.584960938 299.583984375 126.584960938 299.715820312 c 0
 126.584960938 301.169921875 126.709960938 302.594726562 126.948242188 303.98046875 c 0xe210
 126.568359375 356.5859375 117.986328125 409.142578125 101.198242188 459.505859375 c 0
 100.427734375 461.91015625 100 464.466796875 100 467.125976562 c 0
 100 478.060546875 107.036132812 487.365234375 116.823242188 490.755859375 c 0
 119.227539062 491.525390625 121.790039062 491.947265625 124.448242188 491.947265625 c 2
 124.491210938 491.947265625 l 2
EndSplineSet
EndChar

StartChar: U12224
Encoding: 266 74276 10
Width: 1749
VWidth: 100
Flags: W
HStem: 320.979 48.819<538.254 899.835> 503.193 48.8418<175.969 524.828 718.755 898.689> 684.598 48.819<538.254 899.835> 717.807 49.438<1157.19 1342.74> 776.562 48.0732<872.195 958.561 1541.36 1627.73>
VStem: 100.012 48.0615<337.345 442.795 612.311 717.878> 126.948 48.916<380.464 503.197 552.025 674.758> 475.012 48.0615<231.298 319.803 370.982 459.487 594.917 683.422 734.601 823.106> 655.566 48.0615<413.107 501.611 552.791 641.296> 943.612 48.4727<382.489 462.906> 1106.4 50.7939<274.807 721.428> 1193.88 48.4707<215.823 296.064> 1342.73 50.7939<274.807 721.564>
LayerCount: 2
Fore
SplineSet
895.590820312 824.62890625 m 2xd9f8
 895.658203125 824.623046875 l 2
 898.31640625 824.623046875 900.877929688 824.20703125 903.282226562 823.4375 c 0
 976.197265625 799.131835938 1051.1171875 782.711914062 1126.74316406 774.17578125 c 0
 1128.2578125 774.462890625 1129.79199219 774.612304688 1131.38867188 774.612304688 c 0
 1131.52539062 774.612304688 1131.66210938 774.611328125 1131.79785156 774.609375 c 0
 1131.93066406 774.611328125 1132.07617188 774.600585938 1132.20996094 774.600585938 c 0
 1135.73828125 774.600585938 1139.09667969 773.868164062 1142.14160156 772.546875 c 0
 1177.98528291 769.012207031 1213.96710967 767.245117086 1249.94895552 767.245117086 c 0
 1285.94074248 767.245117086 1321.93254853 769.013183594 1357.78613281 772.548828125 c 0
 1360.83007812 773.869140625 1364.19824219 774.612304688 1367.72558594 774.612304688 c 0
 1367.859375 774.612304688 1367.9921875 774.611328125 1368.12597656 774.609375 c 0
 1368.26171875 774.611328125 1368.37011719 774.612304688 1368.50683594 774.612304688 c 0
 1370.10449219 774.612304688 1371.66601562 774.462890625 1373.18066406 774.17578125 c 0
 1448.80566406 782.711914062 1523.7265625 799.131835938 1596.64160156 823.4375 c 0
 1599.04589844 824.208007812 1601.60253906 824.635742188 1604.26171875 824.635742188 c 0
 1615.19628906 824.635742188 1624.50097656 817.599609375 1627.89160156 807.8125 c 0
 1628.66210938 805.408203125 1629.08984375 802.8515625 1629.08984375 800.192382812 c 0
 1629.08984375 789.2578125 1622.0546875 779.953125 1612.26660156 776.5625 c 0
 1540.79101562 752.737304688 1467.50683594 736.158203125 1393.51660156 726.82421875 c 2
 1393.51660156 726.82421875 1393.51963976 537.127604167 1393.51963976 410.661168981 c 0
 1393.51963976 347.427951389 1393.51888021 300.002278646 1393.51660156 300 c 0
 1393.51855469 299.866210938 1393.52636719 299.740234375 1393.52636719 299.606445312 c 0
 1393.52636719 285.80859375 1382.32421875 274.606445312 1368.52636719 274.606445312 c 0
 1368.39257812 274.606445312 1368.25976562 274.607421875 1368.12597656 274.609375 c 0
 1367.9921875 274.607421875 1367.86621094 274.599609375 1367.73242188 274.599609375 c 0
 1353.93457031 274.599609375 1342.73242188 285.801757812 1342.73242188 299.599609375 c 0
 1342.73242188 299.733398438 1342.73339844 299.866210938 1342.73535156 300 c 2
 1342.73535156 721.564453125 l 1
 1311.86376953 719.059570312 1280.9128418 717.807128906 1249.96191406 717.807128906 c 0
 1219.01098633 717.807128906 1188.06005859 719.059570312 1157.18847656 721.564453125 c 1
 1157.18847656 721.564453125 1157.19151476 534.205512153 1157.19151476 409.297526042 c 0
 1157.19151476 346.843532986 1157.19075521 300.002278646 1157.18847656 300 c 0
 1157.19042969 299.866210938 1157.19824219 299.740234375 1157.19824219 299.606445312 c 0
 1157.19824219 285.80859375 1145.99609375 274.606445312 1132.19824219 274.606445312 c 0
 1132.06445312 274.606445312 1131.93164062 274.607421875 1131.79785156 274.609375 c 0
 1131.6640625 274.607421875 1131.53808594 274.599609375 1131.40429688 274.599609375 c 0
 1117.60644531 274.599609375 1106.40429688 285.801757812 1106.40429688 299.599609375 c 0
 1106.40429688 299.733398438 1106.40527344 299.866210938 1106.40722656 300 c 2
 1106.40722656 726.82421875 l 2
 1032.41601562 736.158203125 959.1328125 752.737304688 887.657226562 776.5625 c 0
 877.870117188 779.953125 870.845703125 789.251953125 870.845703125 800.1875 c 0
 870.845703125 802.845703125 871.26171875 805.408203125 872.032226562 807.8125 c 0
 875.416015625 817.580078125 884.684570312 824.600585938 895.590820312 824.62890625 c 2xd9f8
499.348632812 824.4609375 m 2
 499.443359375 824.467773438 l 2
 510.377929688 824.467773438 519.682617188 817.431640625 523.073242188 807.64453125 c 0
 531.146484375 783.423828125 536.169921875 758.508789062 538.145507812 733.42578125 c 2
 538.145507812 733.42578125 687.693684896 733.416666667 787.394495081 733.416666667 c 0
 837.244900174 733.416666667 874.633463542 733.418945312 874.635742188 733.42578125 c 0
 874.784179688 733.428710938 874.92578125 733.409179688 875.075195312 733.409179688 c 0
 888.342773438 733.409179688 899.209960938 723.051757812 900.026367188 709.98828125 c 0
 900.028320312 709.854492188 900.036132812 709.728515625 900.036132812 709.594726562 c 0
 900.036132812 695.796875 888.833984375 684.594726562 875.036132812 684.594726562 c 0
 874.90234375 684.594726562 874.76953125 684.595703125 874.635742188 684.59765625 c 2
 538.145507812 684.59765625 l 2xe9f8
 536.169921875 659.513671875 531.146484375 634.600585938 523.073242188 610.37890625 c 0
 519.682617188 600.591796875 510.383789062 593.567382812 499.448242188 593.567382812 c 0
 496.790039062 593.567382812 494.227539062 593.983398438 491.823242188 594.75390625 c 0
 482.036132812 598.14453125 475.01171875 607.443359375 475.01171875 618.37890625 c 0
 475.01171875 621.037109375 475.427734375 623.599609375 476.198242188 626.00390625 c 0
 485.177734375 652.943847656 489.667480469 680.978027344 489.667480469 709.012084961 c 0
 489.667480469 737.046142578 485.177734375 765.080078125 476.198242188 792.01953125 c 0
 475.427734375 794.423828125 475 796.98046875 475 799.639648438 c 0
 475 810.57421875 482.036132812 819.87890625 491.823242188 823.26953125 c 0
 494.196289062 824.029296875 496.727539062 824.450195312 499.348632812 824.4609375 c 2
124.213867188 719.232421875 m 0
 124.293945312 719.233398438 124.362304688 719.240234375 124.443359375 719.240234375 c 0
 135.377929688 719.240234375 144.682617188 712.204101562 148.073242188 702.416015625 c 0xcdf8
 164.356445312 653.565429688 173.620117188 602.918945312 175.864257812 552.025390625 c 2
 175.864257812 552.025390625 319.759657118 552.028428819 415.691948785 552.028428819 c 0
 463.658094618 552.028428819 499.633463542 552.027669271 499.635742188 552.025390625 c 0
 499.76953125 552.02734375 499.895507812 552.03515625 500.029296875 552.03515625 c 0
 513.827148438 552.03515625 525.029296875 540.833007812 525.029296875 527.03515625 c 0
 525.029296875 526.901367188 525.028320312 526.768554688 525.026367188 526.634765625 c 0
 524.209960938 513.571289062 513.350585938 503.193359375 500.083007812 503.193359375 c 0
 499.93359375 503.193359375 499.784179688 503.194335938 499.635742188 503.197265625 c 2
 175.864257812 503.197265625 l 2xcbf8
 173.620117188 452.302734375 164.357421875 401.65625 148.073242188 352.806640625 c 0
 144.682617188 343.01953125 135.383789062 335.995117188 124.448242188 335.995117188 c 0
 121.790039062 335.995117188 119.227539062 336.411132812 116.823242188 337.181640625 c 0
 107.036132812 340.572265625 100.01171875 349.87109375 100.01171875 360.806640625 c 0xcdf8
 100.01171875 363.46484375 100.427734375 366.02734375 101.198242188 368.431640625 c 0
 117.959960938 418.713867188 126.54296875 471.18359375 126.948242188 523.70703125 c 0
 126.772460938 524.665039062 126.651367188 525.641601562 126.588867188 526.634765625 c 0
 126.586914062 526.76953125 126.584960938 526.874023438 126.584960938 527.008789062 c 0
 126.584960938 528.461914062 126.709960938 529.887695312 126.948242188 531.2734375 c 0xcbf8
 126.567382812 583.876953125 117.985351562 636.430664062 101.198242188 686.791015625 c 0
 100.427734375 689.1953125 100 691.751953125 100 694.411132812 c 0
 100 705.345703125 107.036132812 714.650390625 116.823242188 718.041015625 c 0
 119.155273438 718.788085938 121.641601562 719.208007812 124.213867188 719.232421875 c 0
679.905273438 642.650390625 m 2
 679.998046875 642.657226562 l 2
 690.932617188 642.657226562 700.237304688 635.62109375 703.627929688 625.833984375 c 0
 711.703125 601.612304688 716.728515625 576.69921875 718.704101562 551.615234375 c 2
 718.704101562 551.615234375 788.402018229 551.605685764 834.860930266 551.605685764 c 0
 858.090386285 551.605685764 875.510091146 551.608072917 875.502929688 551.615234375 c 1
 888.078125 550.850585938 898.17578125 540.752929688 898.940429688 528.177734375 c 0
 898.943359375 528.029296875 898.923828125 527.887695312 898.923828125 527.73828125 c 0
 898.923828125 514.470703125 888.56640625 503.603515625 875.502929688 502.787109375 c 2
 718.704101562 502.787109375 l 2
 716.728515625 477.703125 711.703125 452.7890625 703.627929688 428.568359375 c 0
 700.237304688 418.78125 690.938476562 411.756835938 680.002929688 411.756835938 c 0
 677.344726562 411.756835938 674.782226562 412.172851562 672.377929688 412.943359375 c 0
 662.590820312 416.333984375 655.56640625 425.6328125 655.56640625 436.568359375 c 0
 655.56640625 439.2265625 655.982421875 441.7890625 656.752929688 444.193359375 c 0
 665.733886719 471.130371094 670.224365234 499.164550781 670.224365234 527.19934082 c 0
 670.224365234 555.234130859 665.733886719 583.26953125 656.752929688 610.208984375 c 0
 655.982421875 612.61328125 655.5546875 615.169921875 655.5546875 617.829101562 c 0
 655.5546875 628.763671875 662.590820312 638.068359375 672.377929688 641.458984375 c 0
 674.751953125 642.219726562 677.283203125 642.639648438 679.905273438 642.650390625 c 2
967.614257812 463.857421875 m 2
 967.639648438 463.854492188 l 2
 969.818359375 463.854492188 971.932617188 463.575195312 973.948242188 463.05078125 c 0
 984.412109375 460.064453125 992.084960938 450.4375 992.084960938 439.01953125 c 0
 992.084960938 436.842773438 991.805664062 434.73046875 991.282226562 432.716796875 c 0
 977.734375 383.0390625 957.34765625 335.758789062 930.983398438 292.16796875 c 2
 1140.06933594 152.77734375 l 1
 1163.55175781 191.975585938 1181.74804688 234.396484375 1193.87792969 278.873046875 c 0
 1196.86328125 289.337890625 1206.49121094 297.01171875 1217.90917969 297.01171875 c 0
 1220.0859375 297.01171875 1222.19824219 296.732421875 1224.21191406 296.208984375 c 0
 1234.67675781 293.22265625 1242.34863281 283.595703125 1242.34863281 272.177734375 c 0
 1242.34863281 270 1242.0703125 267.887695312 1241.54589844 265.873046875 c 0
 1227.99804688 216.1953125 1207.61328125 168.915039062 1181.24902344 125.32421875 c 2
 1181.24902344 125.32421875 1639.11914062 -179.958007812 1639.15332031 -179.9453125 c 0
 1645.15820312 -184.513671875 1649.00195312 -191.747070312 1649.00195312 -199.866210938 c 0
 1649.00195312 -205.141601562 1647.36523438 -210.037109375 1644.57128906 -214.072265625 c 0
 1640.00488281 -220.095703125 1632.75683594 -223.952148438 1624.62304688 -223.952148438 c 0
 1620.04882812 -223.952148438 1615.75976562 -222.720703125 1612.06933594 -220.572265625 c 2
 1154.16308594 84.697265625 l 2
 1124.06542969 43.595703125 1088.26367188 6.59375 1047.61816406 -25.01953125 c 0
 1043.42285156 -28.2041015625 1038.18066406 -30.125 1032.51171875 -30.125 c 0
 1024.59472656 -30.125 1017.53222656 -26.4365234375 1012.95019531 -20.685546875 c 0
 1008.88574219 -16.2392578125 1006.40136719 -10.33203125 1006.40136719 -3.837890625 c 0
 1006.40136719 -3.310546875 1006.41796875 -2.787109375 1006.45019531 -2.267578125 c 0
 1007.73046875 4.5087890625 1011.72363281 10.3271484375 1017.28417969 13.982421875 c 0
 1053.67382812 42.2861328125 1085.83398438 75.3984375 1112.98535156 112.150390625 c 1
 903.897460938 251.541015625 l 2
 873.799804688 210.439453125 837.998046875 173.436523438 797.352539062 141.82421875 c 0
 793.157226562 138.639648438 787.915039062 136.71875 782.24609375 136.71875 c 0
 774.329101562 136.71875 767.266601562 140.407226562 762.684570312 146.158203125 c 0
 759.5 150.353515625 757.579101562 155.595703125 757.579101562 161.264648438 c 0
 757.579101562 169.181640625 761.267578125 176.244140625 767.018554688 180.826171875 c 0
 808.85546875 213.365234375 845.099609375 252.262695312 874.571289062 295.73828125 c 0
 874.961914062 296.643554688 875.408203125 297.529296875 875.899414062 298.375 c 0
 876.748046875 299.69140625 877.701171875 300.903320312 878.774414062 302.03515625 c 0
 907.63671875 346.014648438 929.645507812 394.50390625 943.612304688 445.716796875 c 0
 946.594726562 456.169921875 956.213867188 463.83984375 967.614257812 463.857421875 c 2
499.348632812 460.841796875 m 2
 499.443359375 460.848632812 l 2
 510.377929688 460.848632812 519.682617188 453.8125 523.073242188 444.025390625 c 0
 531.146484375 419.8046875 536.169921875 394.889648438 538.145507812 369.806640625 c 2
 538.145507812 369.806640625 687.693684896 369.797526042 787.394495081 369.797526042 c 0
 837.244900174 369.797526042 874.633463542 369.799804688 874.635742188 369.806640625 c 0
 874.784179688 369.809570312 874.92578125 369.790039062 875.075195312 369.790039062 c 0
 888.342773438 369.790039062 899.209960938 359.432617188 900.026367188 346.369140625 c 0
 900.028320312 346.235351562 900.036132812 346.109375 900.036132812 345.975585938 c 0
 900.036132812 332.177734375 888.833984375 320.975585938 875.036132812 320.975585938 c 0
 874.90234375 320.975585938 874.76953125 320.9765625 874.635742188 320.978515625 c 2
 538.145507812 320.978515625 l 2
 536.169921875 295.89453125 531.146484375 270.981445312 523.073242188 246.759765625 c 0
 519.682617188 236.97265625 510.383789062 229.948242188 499.448242188 229.948242188 c 0
 496.790039062 229.948242188 494.227539062 230.364257812 491.823242188 231.134765625 c 0
 482.036132812 234.525390625 475.01171875 243.82421875 475.01171875 254.759765625 c 0
 475.01171875 257.41796875 475.427734375 259.98046875 476.198242188 262.384765625 c 0
 485.177734375 289.324707031 489.667480469 317.358642578 489.667480469 345.392578125 c 0
 489.667480469 373.426513672 485.177734375 401.460449219 476.198242188 428.400390625 c 0
 475.427734375 430.8046875 475 433.361328125 475 436.020507812 c 0
 475 446.955078125 482.036132812 456.259765625 491.823242188 459.650390625 c 0
 494.196289062 460.41015625 496.727539062 460.831054688 499.348632812 460.841796875 c 2
EndSplineSet
EndChar

StartChar: U12261
Encoding: 267 74337 11
Width: 1250
VWidth: 100
Flags: W
HStem: 275.908 48.8418<175.864 363.567 434.755 1149.83>
VStem: 100.012 48.0615<110.06 215.511 385.023 490.593> 126.948 48.916<153.179 275.912 324.74 447.473>
LayerCount: 2
Fore
SplineSet
874.635742188 825.390625 m 0xa0
 881.548828125 825.229492188 887.782226562 822.262695312 892.213867188 817.578125 c 0
 896.680664062 813.060546875 899.439453125 806.84375 899.439453125 799.99609375 c 0
 899.439453125 793.147460938 896.680664062 786.939453125 892.213867188 782.421875 c 2
 434.532226562 324.740234375 l 1
 434.532226562 324.740234375 741.241861979 324.743272569 945.71697772 324.743272569 c 0
 1047.95453559 324.743272569 1124.63346354 324.742513021 1124.63574219 324.740234375 c 0
 1124.76953125 324.7421875 1124.89550781 324.75 1125.02929688 324.75 c 0
 1138.82714844 324.75 1150.02929688 313.547851562 1150.02929688 299.75 c 0
 1150.02929688 299.616210938 1150.02832031 299.483398438 1150.02636719 299.349609375 c 0
 1149.20996094 286.286132812 1138.35058594 275.908203125 1125.08300781 275.908203125 c 0
 1124.93359375 275.908203125 1124.78417969 275.909179688 1124.63574219 275.912109375 c 2
 433.879882812 275.912109375 l 1
 433.879882812 275.912109375 892.213867188 -182.430664062 892.213867188 -182.421875 c 1
 896.680664062 -186.939453125 899.439453125 -193.15625 899.439453125 -200.00390625 c 0
 899.439453125 -206.852539062 896.680664062 -213.060546875 892.213867188 -217.578125 c 0
 887.696289062 -222.044921875 881.479492188 -224.803710938 874.631835938 -224.803710938 c 0
 867.783203125 -224.803710938 861.575195312 -222.044921875 857.057617188 -217.578125 c 2
 363.567382812 275.912109375 l 1
 175.864257812 275.912109375 l 2xa0
 173.620117188 225.017578125 164.356445312 174.372070312 148.073242188 125.521484375 c 0
 144.682617188 115.734375 135.383789062 108.709960938 124.448242188 108.709960938 c 0
 121.790039062 108.709960938 119.227539062 109.125976562 116.823242188 109.896484375 c 0
 107.036132812 113.287109375 100.01171875 122.5859375 100.01171875 133.521484375 c 0xc0
 100.01171875 136.1796875 100.427734375 138.7421875 101.198242188 141.146484375 c 0
 117.959960938 191.430664062 126.54296875 243.899414062 126.948242188 296.421875 c 0
 126.772460938 297.379882812 126.651367188 298.356445312 126.588867188 299.349609375 c 0
 126.586914062 299.482421875 126.584960938 299.5859375 126.584960938 299.719726562 c 0
 126.584960938 301.173828125 126.709960938 302.598632812 126.948242188 303.984375 c 0xa0
 126.567382812 356.587890625 117.985351562 409.143554688 101.198242188 459.505859375 c 0
 100.427734375 461.91015625 100 464.466796875 100 467.125976562 c 0
 100 478.060546875 107.036132812 487.365234375 116.823242188 490.755859375 c 0
 119.227539062 491.526367188 121.784179688 491.954101562 124.443359375 491.954101562 c 0
 135.377929688 491.954101562 144.682617188 484.91796875 148.073242188 475.130859375 c 0xc0
 164.356445312 426.280273438 173.620117188 375.633789062 175.864257812 324.740234375 c 2
 364.219726562 324.740234375 l 1
 364.219726562 324.740234375 857.067382812 817.571289062 857.057617188 817.578125 c 1
 861.489257812 822.262695312 867.72265625 825.229492188 874.635742188 825.390625 c 0xa0
EndSplineSet
EndChar

StartChar: U121b0
Encoding: 268 74160 12
Width: 1250
VWidth: 100
Flags: W
HStem: 275.912 48.8281<175.864 529.618 601.849 1064.74>
VStem: 100.012 48.0615<110.06 215.511 385.023 490.593> 126.948 48.916<153.179 275.912 324.74 447.473>
LayerCount: 2
Fore
SplineSet
1124.63574219 825.390625 m 0xa0
 1131.54882812 825.229492188 1137.78222656 822.262695312 1142.21386719 817.578125 c 0
 1146.68066406 813.060546875 1149.43945312 806.84375 1149.43945312 799.99609375 c 0
 1149.43945312 793.147460938 1146.68066406 786.939453125 1142.21386719 782.421875 c 2
 909.791992188 550 l 1
 909.791992188 550 1140.09375 319.696289062 1140.11425781 319.677734375 c 0
 1146.1484375 315.112304688 1150.02929688 307.891601562 1150.02929688 299.749023438 c 0
 1150.02929688 299.615234375 1150.02832031 299.482421875 1150.02636719 299.349609375 c 0
 1149.71875 294.4375 1147.9765625 289.865234375 1145.23339844 286.125 c 0
 1145.22753906 286.116210938 1145.22167969 286.106445312 1145.21582031 286.09765625 c 2
 1145.20214844 286.080078125 l 2
 1145.12597656 285.965820312 1145.04980469 285.853515625 1144.97167969 285.740234375 c 0
 1144.92675781 285.67578125 1144.88183594 285.612304688 1144.83691406 285.548828125 c 0
 1144.81445312 285.516601562 1144.79199219 285.485351562 1144.76855469 285.453125 c 0
 1144.72265625 285.389648438 1144.67773438 285.327148438 1144.63183594 285.263671875 c 0
 1144.24023438 284.725585938 1143.83398438 284.212890625 1143.40136719 283.708984375 c 0
 1143.34960938 283.649414062 1143.29882812 283.591796875 1143.24707031 283.533203125 c 0
 1142.91113281 283.149414062 1142.57226562 282.784179688 1142.21386719 282.421875 c 2
 909.791992188 50 l 1
 909.791992188 50 1142.21386719 -182.430664062 1142.21386719 -182.421875 c 1
 1146.68066406 -186.939453125 1149.43945312 -193.15625 1149.43945312 -200.00390625 c 0
 1149.43945312 -206.852539062 1146.68066406 -213.060546875 1142.21386719 -217.578125 c 0
 1137.69628906 -222.044921875 1131.47949219 -224.803710938 1124.63183594 -224.803710938 c 0
 1117.78320312 -224.803710938 1111.57519531 -222.044921875 1107.05761719 -217.578125 c 2
 1107.05761719 -217.578125 857.057617188 32.4306640625 857.057617188 32.421875 c 1
 852.591796875 36.939453125 849.833007812 43.15625 849.833007812 50.00390625 c 0
 849.833007812 56.8525390625 852.591796875 63.060546875 857.057617188 67.578125 c 2
 1065.39160156 275.912109375 l 1
 600.041992188 275.912109375 l 1
 600.041992188 275.912109375 892.864257812 -15.1123046875 892.864257812 -15.103515625 c 1
 897.331054688 -19.62109375 900.090820312 -25.837890625 900.090820312 -32.685546875 c 0
 900.090820312 -39.5341796875 897.331054688 -45.7421875 892.864257812 -50.259765625 c 0
 888.346679688 -54.7265625 882.129882812 -57.486328125 875.282226562 -57.486328125 c 0
 868.43359375 -57.486328125 862.225585938 -54.7265625 857.708007812 -50.259765625 c 2
 529.618164062 275.912109375 l 1
 175.864257812 275.912109375 l 2xa0
 173.620117188 225.017578125 164.356445312 174.372070312 148.073242188 125.521484375 c 0
 144.682617188 115.734375 135.383789062 108.709960938 124.448242188 108.709960938 c 0
 121.790039062 108.709960938 119.227539062 109.125976562 116.823242188 109.896484375 c 0
 107.036132812 113.287109375 100.01171875 122.5859375 100.01171875 133.521484375 c 0xc0
 100.01171875 136.1796875 100.427734375 138.7421875 101.198242188 141.146484375 c 0
 117.959960938 191.430664062 126.54296875 243.899414062 126.948242188 296.421875 c 0
 126.772460938 297.379882812 126.651367188 298.356445312 126.588867188 299.349609375 c 0
 126.586914062 299.482421875 126.584960938 299.5859375 126.584960938 299.719726562 c 0
 126.584960938 301.173828125 126.709960938 302.598632812 126.948242188 303.984375 c 0xa0
 126.567382812 356.587890625 117.985351562 409.143554688 101.198242188 459.505859375 c 0
 100.427734375 461.91015625 100 464.466796875 100 467.125976562 c 0
 100 478.060546875 107.036132812 487.365234375 116.823242188 490.755859375 c 0
 119.227539062 491.526367188 121.784179688 491.954101562 124.443359375 491.954101562 c 0
 135.377929688 491.954101562 144.682617188 484.91796875 148.073242188 475.130859375 c 0xc0
 164.356445312 426.280273438 173.620117188 375.633789062 175.864257812 324.740234375 c 2
 531.536132812 324.740234375 l 1
 531.536132812 324.740234375 857.717773438 650.905273438 857.708007812 650.912109375 c 1
 862.139648438 655.596679688 868.373046875 658.563476562 875.286132812 658.724609375 c 0
 882.19921875 658.563476562 888.432617188 655.596679688 892.864257812 650.912109375 c 0
 897.331054688 646.39453125 900.090820312 640.177734375 900.090820312 633.330078125 c 0
 900.090820312 626.481445312 897.331054688 620.2734375 892.864257812 615.755859375 c 2
 601.848632812 324.740234375 l 1
 1064.73925781 324.740234375 l 1
 1064.73925781 324.740234375 857.057617188 532.430664062 857.057617188 532.421875 c 1
 852.591796875 536.939453125 849.833007812 543.15625 849.833007812 550.00390625 c 0
 849.833007812 556.852539062 852.591796875 563.060546875 857.057617188 567.578125 c 2
 857.057617188 567.578125 1107.06738281 817.571289062 1107.05761719 817.578125 c 1
 1111.48925781 822.262695312 1117.72265625 825.229492188 1124.63574219 825.390625 c 0xa0
EndSplineSet
EndChar

StartChar: U12041
Encoding: 269 73793 13
Width: 1249
VWidth: 100
Flags: W
HStem: 275.912 48.8281<175.864 946.903>
VStem: 100.012 48.0615<110.06 215.51 385.024 490.593> 126.948 48.916<153.179 275.912 324.74 447.473>
LayerCount: 2
Fore
SplineSet
1123.98535156 492.056640625 m 0xa0
 1130.8984375 491.895507812 1137.13183594 488.928710938 1141.56347656 484.244140625 c 0
 1146.03027344 479.7265625 1148.7890625 473.509765625 1148.7890625 466.662109375 c 0
 1148.7890625 459.813476562 1146.03027344 453.60546875 1141.56347656 449.087890625 c 2
 993.125976562 300.650390625 l 1
 993.125976562 300.650390625 1141.56347656 150.250976562 1141.56347656 150.259765625 c 1
 1146.03027344 145.7421875 1148.7890625 139.525390625 1148.7890625 132.677734375 c 0
 1148.7890625 125.829101562 1146.03027344 119.62109375 1141.56347656 115.103515625 c 0
 1137.04589844 110.63671875 1130.82910156 107.877929688 1123.98144531 107.877929688 c 0
 1117.1328125 107.877929688 1110.92480469 110.63671875 1106.40722656 115.103515625 c 2
 947.467773438 275.912109375 l 1
 175.864257812 275.912109375 l 2xa0
 173.620117188 225.017578125 164.356445312 174.372070312 148.073242188 125.521484375 c 0
 144.682617188 115.734375 135.383789062 108.709960938 124.448242188 108.709960938 c 0
 121.790039062 108.709960938 119.227539062 109.125976562 116.823242188 109.896484375 c 0
 107.036132812 113.287109375 100.01171875 122.5859375 100.01171875 133.521484375 c 0xc0
 100.01171875 136.1796875 100.427734375 138.7421875 101.198242188 141.146484375 c 0
 117.958984375 191.4296875 126.54296875 243.8984375 126.948242188 296.419921875 c 0
 126.772460938 297.37890625 126.651367188 298.356445312 126.588867188 299.349609375 c 0
 126.586914062 299.483398438 126.584960938 299.586914062 126.584960938 299.721679688 c 0
 126.584960938 301.17578125 126.709960938 302.600585938 126.948242188 303.986328125 c 0xa0
 126.567382812 356.58984375 117.985351562 409.14453125 101.198242188 459.505859375 c 0
 100.427734375 461.91015625 100 464.466796875 100 467.125976562 c 0
 100 478.060546875 107.036132812 487.365234375 116.823242188 490.755859375 c 0
 119.227539062 491.526367188 121.784179688 491.954101562 124.443359375 491.954101562 c 0
 135.377929688 491.954101562 144.682617188 484.91796875 148.073242188 475.130859375 c 0xc0
 164.356445312 426.280273438 173.620117188 375.633789062 175.864257812 324.740234375 c 2
 946.903320312 324.740234375 l 1
 946.903320312 324.740234375 1106.41699219 484.237304688 1106.40722656 484.244140625 c 1
 1110.83886719 488.928710938 1117.07226562 491.895507812 1123.98535156 492.056640625 c 0xa0
EndSplineSet
EndChar

StartChar: U12458
Encoding: 270 74840 14
Width: 1249
VWidth: 100
Flags: W
HStem: 275.912 48.8281<175.864 946.903>
VStem: 100.012 48.0615<110.06 215.51 385.024 490.593> 126.948 48.916<153.179 275.912 324.74 447.473>
LayerCount: 2
Fore
SplineSet
1123.98535156 492.056640625 m 0xa0
 1130.8984375 491.895507812 1137.13183594 488.928710938 1141.56347656 484.244140625 c 0
 1146.03027344 479.7265625 1148.7890625 473.509765625 1148.7890625 466.662109375 c 0
 1148.7890625 459.813476562 1146.03027344 453.60546875 1141.56347656 449.087890625 c 2
 993.125976562 300.650390625 l 1
 993.125976562 300.650390625 1141.56347656 150.250976562 1141.56347656 150.259765625 c 1
 1146.03027344 145.7421875 1148.7890625 139.525390625 1148.7890625 132.677734375 c 0
 1148.7890625 125.829101562 1146.03027344 119.62109375 1141.56347656 115.103515625 c 0
 1137.04589844 110.63671875 1130.82910156 107.877929688 1123.98144531 107.877929688 c 0
 1117.1328125 107.877929688 1110.92480469 110.63671875 1106.40722656 115.103515625 c 2
 947.467773438 275.912109375 l 1
 175.864257812 275.912109375 l 2xa0
 173.620117188 225.017578125 164.356445312 174.372070312 148.073242188 125.521484375 c 0
 144.682617188 115.734375 135.383789062 108.709960938 124.448242188 108.709960938 c 0
 121.790039062 108.709960938 119.227539062 109.125976562 116.823242188 109.896484375 c 0
 107.036132812 113.287109375 100.01171875 122.5859375 100.01171875 133.521484375 c 0xc0
 100.01171875 136.1796875 100.427734375 138.7421875 101.198242188 141.146484375 c 0
 117.958984375 191.4296875 126.54296875 243.8984375 126.948242188 296.419921875 c 0
 126.772460938 297.37890625 126.651367188 298.356445312 126.588867188 299.349609375 c 0
 126.586914062 299.483398438 126.584960938 299.586914062 126.584960938 299.721679688 c 0
 126.584960938 301.17578125 126.709960938 302.600585938 126.948242188 303.986328125 c 0xa0
 126.567382812 356.58984375 117.985351562 409.14453125 101.198242188 459.505859375 c 0
 100.427734375 461.91015625 100 464.466796875 100 467.125976562 c 0
 100 478.060546875 107.036132812 487.365234375 116.823242188 490.755859375 c 0
 119.227539062 491.526367188 121.784179688 491.954101562 124.443359375 491.954101562 c 0
 135.377929688 491.954101562 144.682617188 484.91796875 148.073242188 475.130859375 c 0xc0
 164.356445312 426.280273438 173.620117188 375.633789062 175.864257812 324.740234375 c 2
 946.903320312 324.740234375 l 1
 946.903320312 324.740234375 1106.41699219 484.237304688 1106.40722656 484.244140625 c 1
 1110.83886719 488.928710938 1117.07226562 491.895507812 1123.98535156 492.056640625 c 0xa0
EndSplineSet
EndChar

StartChar: U12074
Encoding: 271 73844 15
Width: 2249
VWidth: 100
Flags: W
HStem: 248.771 48.916<1477.81 1600.55 1649.38 1772.11> 275.908 48.8418<176.171 1149.83 1434.7 1545.01 1704.78 1815.23>
VStem: 100.012 48.0615<110.06 215.511 385.023 490.593> 126.948 48.916<153.179 275.912 324.74 447.473> 1175 49.1016<-374.018 -261.841 861.841 974.018> 1600.54 48.8418<-225.193 10.2969 89.3008 248.771>
LayerCount: 2
Fore
SplineSet
1199.62597656 974.322265625 m 2x8c
 1199.68847656 974.323242188 l 2
 1200.79589844 974.323242188 1201.88671875 974.250976562 1202.95605469 974.111328125 c 0
 1214.92871094 972.2578125 1224.13183594 961.919921875 1224.13183594 949.431640625 c 0
 1224.13183594 948.323242188 1224.05957031 947.23046875 1223.91894531 946.16015625 c 0
 1216.63769531 895.185546875 1202.27246094 845.7421875 1181.51855469 799.216796875 c 2
 1181.51855469 799.216796875 2134.90332031 322.545898438 2134.94238281 322.505859375 c 0
 2139.64941406 320.244140625 2143.50195312 316.592773438 2146.01269531 312.03515625 c 0
 2146.109375 311.876953125 2146.20410156 311.71875 2146.29785156 311.55859375 c 0
 2148.03027344 308.225585938 2149.04882812 304.421875 2149.11230469 300.423828125 c 2
 2149.11230469 300.418945312 l 1
 2149.11230469 300.4140625 l 1
 2149.11230469 300.409179688 l 1
 2149.11230469 300.404296875 l 2
 2149.11328125 300.3515625 2149.11328125 300.302734375 2149.11425781 300.25 c 2
 2149.11425781 300.245117188 l 1
 2149.11425781 300.240234375 l 2
 2149.11523438 300.1875 2149.11523438 300.138671875 2149.11621094 300.0859375 c 2
 2149.11621094 300.001953125 l 1
 2149.11621094 299.921875 l 2
 2149.11523438 299.869140625 2149.11523438 299.8125 2149.11425781 299.759765625 c 2
 2149.11425781 299.754882812 l 1
 2149.11425781 299.75 l 2
 2149.11328125 299.697265625 2149.11328125 299.6484375 2149.11230469 299.595703125 c 2
 2149.11230469 299.590820312 l 1
 2149.11230469 299.5859375 l 2
 2149.05078125 295.583984375 2148.03125 291.77734375 2146.29785156 288.44140625 c 0
 2146.20410156 288.28125 2146.109375 288.123046875 2146.01269531 287.96484375 c 0
 2143.50195312 283.407226562 2139.64941406 279.755859375 2134.94238281 277.494140625 c 2
 1649.37597656 34.7109375 l 1
 1649.37597656 34.7109375 1649.37901476 -69.6019965278 1649.37901476 -139.145978009 c 0
 1649.37901476 -173.91796875 1649.37825521 -199.997721354 1649.37597656 -200 c 0
 1649.37792969 -200.133789062 1649.38574219 -200.259765625 1649.38574219 -200.393554688 c 0
 1649.38574219 -214.19140625 1638.18359375 -225.393554688 1624.38574219 -225.393554688 c 0
 1624.25195312 -225.393554688 1624.11914062 -225.392578125 1623.98535156 -225.390625 c 0
 1610.921875 -224.57421875 1600.54394531 -213.71484375 1600.54394531 -200.447265625 c 0
 1600.54394531 -200.297851562 1600.54492188 -200.1484375 1600.54785156 -200 c 2
 1600.54785156 10.296875 l 1
 1181.51855469 -199.216796875 l 2
 1202.27246094 -245.7421875 1216.63769531 -295.185546875 1223.91894531 -346.16015625 c 0
 1224.05957031 -347.23046875 1224.10644531 -348.297851562 1224.10644531 -349.40625 c 0
 1224.10644531 -361.895507812 1214.92871094 -372.2578125 1202.95605469 -374.111328125 c 0
 1201.88574219 -374.251953125 1200.81835938 -374.298828125 1199.70996094 -374.298828125 c 0
 1187.22070312 -374.298828125 1176.85839844 -365.120117188 1175.00488281 -353.146484375 c 0
 1167.49902344 -300.59765625 1151.67578125 -249.754882812 1128.49121094 -202.53515625 c 0
 1127.57226562 -201.288085938 1126.76855469 -199.953125 1126.09082031 -198.544921875 c 0
 1125.71191406 -197.649414062 1125.37597656 -196.70703125 1125.10253906 -195.76171875 c 0
 1101.25097656 -148.966796875 1070.109375 -105.875976562 1032.63183594 -68.3984375 c 0
 1028.22851562 -63.890625 1025.51269531 -57.716796875 1025.51269531 -50.923828125 c 0
 1025.51269531 -44.130859375 1028.22851562 -37.966796875 1032.63183594 -33.458984375 c 0
 1037.13964844 -29.0556640625 1043.31347656 -26.3408203125 1050.10546875 -26.3408203125 c 0
 1056.8984375 -26.3408203125 1063.06152344 -29.0556640625 1067.56933594 -33.458984375 c 0
 1103.97949219 -69.869140625 1134.91503906 -111.02734375 1159.68261719 -155.544921875 c 2
 1600.54785156 64.88671875 l 1
 1600.54785156 248.771484375 l 2
 1549.65332031 251.015625 1499.0078125 260.279296875 1450.15722656 276.5625 c 0
 1440.37011719 279.953125 1433.34570312 289.251953125 1433.34570312 300.1875 c 0
 1433.34570312 302.845703125 1433.76171875 305.408203125 1434.53222656 307.8125 c 0
 1437.92285156 317.599609375 1447.22167969 324.624023438 1458.15722656 324.624023438 c 0
 1460.81542969 324.624023438 1463.37792969 324.208007812 1465.78222656 323.4375 c 0
 1516.06445312 306.676757812 1568.53125 298.09375 1621.05175781 297.6875 c 0
 1622.01171875 297.86328125 1622.99023438 297.984375 1623.98535156 298.046875 c 0
 1624.12011719 298.048828125 1624.22460938 298.05078125 1624.359375 298.05078125 c 0
 1625.8125 298.05078125 1627.23828125 297.92578125 1628.62402344 297.6875 c 0
 1681.22558594 298.068359375 1733.78222656 306.651367188 1784.14160156 323.4375 c 0
 1786.54589844 324.208007812 1789.10253906 324.635742188 1791.76171875 324.635742188 c 0
 1802.69628906 324.635742188 1812.00097656 317.599609375 1815.39160156 307.8125 c 0
 1816.16210938 305.408203125 1816.58984375 302.8515625 1816.58984375 300.192382812 c 0
 1816.58984375 289.2578125 1809.5546875 279.953125 1799.76660156 276.5625 c 0
 1750.91601562 260.279296875 1700.26953125 251.015625 1649.37597656 248.771484375 c 2
 1649.37597656 89.30078125 l 1
 2070.77441406 300 l 1
 1159.68261719 755.544921875 l 2
 1134.91503906 711.02734375 1103.97949219 669.869140625 1067.56933594 633.458984375 c 0
 1063.06152344 629.055664062 1056.88769531 626.340820312 1050.09570312 626.340820312 c 0
 1043.30273438 626.340820312 1037.13964844 629.055664062 1032.63183594 633.458984375 c 0
 1028.22851562 637.966796875 1025.51269531 644.140625 1025.51269531 650.93359375 c 0
 1025.51269531 657.7265625 1028.22851562 663.890625 1032.63183594 668.3984375 c 0
 1070.109375 705.875976562 1101.25097656 748.966796875 1125.10253906 795.76171875 c 0
 1125.37597656 796.70703125 1125.71191406 797.649414062 1126.09082031 798.544921875 c 0
 1126.76855469 799.953125 1127.57226562 801.288085938 1128.49121094 802.53515625 c 0
 1151.67578125 849.754882812 1167.49902344 900.59765625 1175.00488281 953.146484375 c 0
 1176.85351562 965.092773438 1187.17578125 974.280273438 1199.62597656 974.322265625 c 2x8c
707.317382812 825.390625 m 0
 714.23046875 825.229492188 720.463867188 822.262695312 724.895507812 817.578125 c 0
 729.362304688 813.060546875 732.122070312 806.84375 732.122070312 799.99609375 c 0
 732.122070312 793.147460938 729.362304688 786.939453125 724.895507812 782.421875 c 2
 576.458007812 633.984375 l 1
 576.458007812 633.984375 724.895507812 483.584960938 724.895507812 483.59375 c 1
 729.362304688 479.076171875 732.122070312 472.859375 732.122070312 466.01171875 c 0
 732.122070312 459.163085938 729.362304688 452.955078125 724.895507812 448.4375 c 0
 720.377929688 443.970703125 714.161132812 441.211914062 707.313476562 441.211914062 c 0
 700.46484375 441.211914062 694.256835938 443.970703125 689.739257812 448.4375 c 2
 689.739257812 448.4375 523.723632812 616.415039062 523.723632812 616.40625 c 1
 519.2578125 620.923828125 516.499023438 627.140625 516.499023438 633.98828125 c 0
 516.499023438 640.836914062 519.2578125 647.044921875 523.723632812 651.5625 c 2
 523.723632812 651.5625 689.749023438 817.571289062 689.739257812 817.578125 c 1
 694.170898438 822.262695312 700.404296875 825.229492188 707.317382812 825.390625 c 0
124.491210938 491.947265625 m 2
 135.408203125 491.9296875 144.686523438 484.90625 148.073242188 475.130859375 c 0x6c
 164.356445312 426.280273438 173.620117188 375.633789062 175.864257812 324.740234375 c 2
 175.864257812 324.740234375 597.537434896 324.743272569 878.654911748 324.743272569 c 0
 1019.21365017 324.743272569 1124.63346354 324.742513021 1124.63574219 324.740234375 c 0
 1124.76953125 324.7421875 1124.89550781 324.75 1125.02929688 324.75 c 0
 1138.82714844 324.75 1150.02929688 313.547851562 1150.02929688 299.75 c 0
 1150.02929688 299.616210938 1150.02832031 299.483398438 1150.02636719 299.349609375 c 0
 1149.20996094 286.286132812 1138.35058594 275.908203125 1125.08300781 275.908203125 c 0
 1124.93359375 275.908203125 1124.78417969 275.909179688 1124.63574219 275.912109375 c 2
 175.864257812 275.912109375 l 2x5c
 173.620117188 225.017578125 164.356445312 174.372070312 148.073242188 125.521484375 c 0
 144.682617188 115.734375 135.383789062 108.709960938 124.448242188 108.709960938 c 0
 121.790039062 108.709960938 119.227539062 109.125976562 116.823242188 109.896484375 c 0
 107.036132812 113.287109375 100.01171875 122.5859375 100.01171875 133.521484375 c 0x6c
 100.01171875 136.1796875 100.427734375 138.7421875 101.198242188 141.146484375 c 0
 117.959960938 191.430664062 126.54296875 243.899414062 126.948242188 296.421875 c 0
 126.772460938 297.379882812 126.651367188 298.356445312 126.588867188 299.349609375 c 0
 126.586914062 299.482421875 126.584960938 299.5859375 126.584960938 299.719726562 c 0
 126.584960938 301.173828125 126.709960938 302.598632812 126.948242188 303.984375 c 0x5c
 126.567382812 356.587890625 117.985351562 409.143554688 101.198242188 459.505859375 c 0
 100.427734375 461.91015625 100 464.466796875 100 467.125976562 c 0
 100 478.060546875 107.036132812 487.365234375 116.823242188 490.755859375 c 0
 119.227539062 491.525390625 121.790039062 491.947265625 124.448242188 491.947265625 c 2
 124.491210938 491.947265625 l 2
707.317382812 158.724609375 m 0
 714.23046875 158.563476562 720.463867188 155.596679688 724.895507812 150.912109375 c 0
 729.362304688 146.39453125 732.122070312 140.177734375 732.122070312 133.330078125 c 0
 732.122070312 126.481445312 729.362304688 120.2734375 724.895507812 115.755859375 c 2
 576.458007812 -32.681640625 l 1
 576.458007812 -32.681640625 724.895507812 -183.081054688 724.895507812 -183.072265625 c 1
 729.362304688 -187.58984375 732.12109375 -193.806640625 732.12109375 -200.654296875 c 0
 732.12109375 -207.502929688 729.362304688 -213.7109375 724.895507812 -218.228515625 c 0
 720.377929688 -222.6953125 714.161132812 -225.454101562 707.313476562 -225.454101562 c 0
 700.46484375 -225.454101562 694.256835938 -222.6953125 689.739257812 -218.228515625 c 2
 689.739257812 -218.228515625 523.723632812 -50.2509765625 523.723632812 -50.259765625 c 1
 519.2578125 -45.7421875 516.499023438 -39.525390625 516.499023438 -32.677734375 c 0
 516.499023438 -25.8291015625 519.2578125 -19.62109375 523.723632812 -15.103515625 c 2
 523.723632812 -15.103515625 689.749023438 150.905273438 689.739257812 150.912109375 c 1
 694.170898438 155.596679688 700.404296875 158.563476562 707.317382812 158.724609375 c 0
EndSplineSet
EndChar

StartChar: U1223e
Encoding: 272 74302 16
Width: 1750
VWidth: 100
Flags: W
HStem: 275.912 48.8281<175.864 946.901> 748.771 49.4922<1482.71 1605.44> 776.562 48.0615<1268.03 1373.3 1542.35 1648.56>
VStem: 100.012 48.0615<110.06 215.51 385.024 490.593> 126.948 48.916<153.179 275.912 324.74 447.473> 1433.88 48.8418<-225.193 288.934 359.246 740.754>
LayerCount: 2
Fore
SplineSet
1457.96972656 825.390625 m 0xac
 1464.8828125 825.229492188 1471.11621094 822.262695312 1475.54785156 817.578125 c 0
 1480.01367188 813.061523438 1482.77148438 806.87109375 1482.77148438 800.022460938 c 0
 1482.77148438 799.431640625 1482.75 798.844726562 1482.70996094 798.263671875 c 1xcc
 1528.35058594 800.46875 1573.74023438 808.859375 1617.47363281 823.4375 c 0
 1619.87792969 824.208007812 1622.43457031 824.635742188 1625.09375 824.635742188 c 0
 1636.02832031 824.635742188 1645.33300781 817.599609375 1648.72363281 807.8125 c 0
 1649.49414062 805.408203125 1649.921875 802.8515625 1649.921875 800.192382812 c 0
 1649.921875 789.2578125 1642.88574219 779.953125 1633.09863281 776.5625 c 0xac
 1584.24902344 760.278320312 1533.60253906 751.015625 1482.70800781 748.771484375 c 2
 1482.70800781 748.771484375 1482.70800781 301.818359375 1482.70800781 301.7734375 c 0
 1482.75 301.180664062 1482.77148438 300.625976562 1482.77148438 300.022460938 c 0
 1482.77148438 299.418945312 1482.75 298.819335938 1482.70800781 298.2265625 c 2
 1482.70800781 298.2265625 1482.71104601 76.7955729167 1482.71104601 -70.8271122685 c 0
 1482.71104601 -144.638454861 1482.71028646 -199.997721354 1482.70800781 -200 c 0
 1482.70996094 -200.133789062 1482.71777344 -200.259765625 1482.71777344 -200.393554688 c 0
 1482.71777344 -214.19140625 1471.515625 -225.393554688 1457.71777344 -225.393554688 c 0
 1457.58398438 -225.393554688 1457.45117188 -225.392578125 1457.31738281 -225.390625 c 0
 1444.25390625 -224.57421875 1433.87597656 -213.71484375 1433.87597656 -200.447265625 c 0
 1433.87597656 -200.297851562 1433.87695312 -200.1484375 1433.87988281 -200 c 2
 1433.87988281 288.93359375 l 1
 1207.96972656 514.84375 l 1
 993.125976562 300 l 1
 993.125976562 300 1225.54785156 67.5693359375 1225.54785156 67.578125 c 1
 1230.01464844 63.060546875 1232.7734375 56.84375 1232.7734375 49.99609375 c 0
 1232.7734375 43.1474609375 1230.01464844 36.939453125 1225.54785156 32.421875 c 0
 1221.03027344 27.955078125 1214.81347656 25.1962890625 1207.96582031 25.1962890625 c 0
 1201.1171875 25.1962890625 1194.90917969 27.955078125 1190.39160156 32.421875 c 2
 946.901367188 275.912109375 l 1
 175.864257812 275.912109375 l 2xcc
 173.620117188 225.017578125 164.356445312 174.372070312 148.073242188 125.521484375 c 0
 144.682617188 115.734375 135.383789062 108.709960938 124.448242188 108.709960938 c 0
 121.790039062 108.709960938 119.227539062 109.125976562 116.823242188 109.896484375 c 0
 107.036132812 113.287109375 100.01171875 122.5859375 100.01171875 133.521484375 c 0xd4
 100.01171875 136.1796875 100.427734375 138.7421875 101.198242188 141.146484375 c 0
 117.958984375 191.4296875 126.54296875 243.8984375 126.948242188 296.419921875 c 0
 126.772460938 297.37890625 126.651367188 298.356445312 126.588867188 299.349609375 c 0
 126.586914062 299.483398438 126.584960938 299.586914062 126.584960938 299.721679688 c 0
 126.584960938 301.17578125 126.709960938 302.600585938 126.948242188 303.986328125 c 0xcc
 126.567382812 356.58984375 117.985351562 409.14453125 101.198242188 459.505859375 c 0
 100.427734375 461.91015625 100 464.466796875 100 467.125976562 c 0
 100 478.060546875 107.036132812 487.365234375 116.823242188 490.755859375 c 0
 119.227539062 491.526367188 121.784179688 491.954101562 124.443359375 491.954101562 c 0
 135.377929688 491.954101562 144.682617188 484.91796875 148.073242188 475.130859375 c 0xd4
 164.356445312 426.280273438 173.620117188 375.633789062 175.864257812 324.740234375 c 2
 947.553710938 324.740234375 l 1
 947.553710938 324.740234375 1190.38378906 567.5703125 1190.39160156 567.578125 c 0
 1190.71679688 567.921875 1191.04394531 568.249023438 1191.38769531 568.57421875 c 2
 1377.03613281 754.22265625 l 1
 1345.40234375 758.9140625 1314.09277344 766.361328125 1283.48925781 776.5625 c 0
 1273.70117188 779.953125 1266.67773438 789.251953125 1266.67773438 800.1875 c 0
 1266.67773438 802.845703125 1267.09375 805.408203125 1267.86425781 807.8125 c 0
 1271.25488281 817.599609375 1280.55371094 824.624023438 1291.48925781 824.624023438 c 0
 1294.14746094 824.624023438 1296.70996094 824.208007812 1299.11425781 823.4375 c 0
 1338.98925781 810.145507812 1380.2421875 801.998046875 1421.80566406 798.9921875 c 2
 1421.80566406 798.9921875 1440.40136719 817.571289062 1440.39160156 817.578125 c 1
 1444.82324219 822.262695312 1451.05664062 825.229492188 1457.96972656 825.390625 c 0xac
1433.87988281 740.75390625 m 1
 1243.12597656 550 l 1
 1433.87988281 359.24609375 l 1
 1433.87988281 740.75390625 l 1
EndSplineSet
EndChar

StartChar: U12034
Encoding: 273 73780 17
Width: 1250
VWidth: 100
Flags: W
HStem: 275.912 48.8281<175.864 780.235> 748.771 48.916<811.146 933.88 982.708 1105.44> 776.562 48.0664<768.027 873.479 1042.99 1148.56>
VStem: 100.012 48.0615<110.06 215.508 385.022 490.593> 126.948 48.916<153.179 275.912 324.74 447.473> 933.876 48.8418<-225.193 121.031 191.814 408.072 478.385 748.465>
LayerCount: 2
Fore
SplineSet
623.985351562 825.390625 m 0x84
 630.8984375 825.229492188 637.131835938 822.262695312 641.563476562 817.578125 c 0
 646.030273438 813.060546875 648.7890625 806.84375 648.7890625 799.99609375 c 0
 648.7890625 793.147460938 646.030273438 786.939453125 641.563476562 782.421875 c 2
 493.125976562 633.984375 l 1
 493.125976562 633.984375 641.563476562 483.584960938 641.563476562 483.59375 c 1
 646.030273438 479.076171875 648.7890625 472.859375 648.7890625 466.01171875 c 0
 648.7890625 459.163085938 646.030273438 452.955078125 641.563476562 448.4375 c 0
 637.045898438 443.970703125 630.829101562 441.211914062 623.981445312 441.211914062 c 0
 617.1328125 441.211914062 610.924804688 443.970703125 606.407226562 448.4375 c 2
 606.407226562 448.4375 440.391601562 616.415039062 440.391601562 616.40625 c 1
 435.92578125 620.923828125 433.166992188 627.140625 433.166992188 633.98828125 c 0
 433.166992188 640.836914062 435.92578125 647.044921875 440.391601562 651.5625 c 2
 440.391601562 651.5625 606.416992188 817.571289062 606.407226562 817.578125 c 1
 610.838867188 822.262695312 617.072265625 825.229492188 623.985351562 825.390625 c 0x84
791.446289062 824.62890625 m 2xac
 791.490234375 824.623046875 l 2
 794.1484375 824.623046875 796.709960938 824.20703125 799.114257812 823.4375 c 0
 849.396484375 806.676757812 901.868164062 798.092773438 954.391601562 797.6875 c 0
 955.349609375 797.86328125 956.325195312 797.984375 957.317382812 798.046875 c 0
 957.450195312 798.048828125 957.553710938 798.05078125 957.6875 798.05078125 c 0
 959.141601562 798.05078125 960.56640625 797.92578125 961.952148438 797.6875 c 0xcc
 1014.55761719 798.067382812 1067.11328125 806.650390625 1117.47363281 823.4375 c 0
 1119.87792969 824.208007812 1122.43457031 824.635742188 1125.09375 824.635742188 c 0
 1136.02832031 824.635742188 1145.33300781 817.599609375 1148.72363281 807.8125 c 0
 1149.49414062 805.408203125 1149.921875 802.8515625 1149.921875 800.192382812 c 0
 1149.921875 789.2578125 1142.88574219 779.953125 1133.09863281 776.5625 c 0xac
 1084.24902344 760.278320312 1033.60253906 751.015625 982.708007812 748.771484375 c 2
 982.708007812 748.771484375 982.711046007 327.098307292 982.711046007 45.9808304398 c 0
 982.711046007 -94.5779079861 982.710286458 -199.997721354 982.708007812 -200 c 0
 982.709960938 -200.133789062 982.717773438 -200.259765625 982.717773438 -200.393554688 c 0
 982.717773438 -214.19140625 971.515625 -225.393554688 957.717773438 -225.393554688 c 0
 957.583984375 -225.393554688 957.451171875 -225.392578125 957.317382812 -225.390625 c 0
 944.25390625 -224.57421875 933.875976562 -213.71484375 933.875976562 -200.447265625 c 0
 933.875976562 -200.297851562 933.876953125 -200.1484375 933.879882812 -200 c 2
 933.879882812 121.03125 l 1
 780.799804688 275.912109375 l 1
 175.864257812 275.912109375 l 2xcc
 173.620117188 225.017578125 164.356445312 174.372070312 148.073242188 125.521484375 c 0
 144.682617188 115.734375 135.383789062 108.709960938 124.448242188 108.709960938 c 0
 121.790039062 108.709960938 119.227539062 109.125976562 116.823242188 109.896484375 c 0
 107.036132812 113.287109375 100.01171875 122.5859375 100.01171875 133.521484375 c 0xd4
 100.01171875 136.1796875 100.427734375 138.7421875 101.198242188 141.146484375 c 0
 117.958984375 191.428710938 126.541992188 243.895507812 126.948242188 296.416015625 c 0
 126.772460938 297.375976562 126.651367188 298.354492188 126.588867188 299.349609375 c 0
 126.586914062 299.481445312 126.584960938 299.583984375 126.584960938 299.715820312 c 0
 126.584960938 301.169921875 126.709960938 302.594726562 126.948242188 303.98046875 c 0xcc
 126.568359375 356.5859375 117.986328125 409.142578125 101.198242188 459.505859375 c 0
 100.427734375 461.91015625 100 464.466796875 100 467.125976562 c 0
 100 478.060546875 107.036132812 487.365234375 116.823242188 490.755859375 c 0
 119.227539062 491.526367188 121.784179688 491.954101562 124.443359375 491.954101562 c 0
 135.377929688 491.954101562 144.682617188 484.91796875 148.073242188 475.130859375 c 0xd4
 164.356445312 426.280273438 173.620117188 375.633789062 175.864257812 324.740234375 c 2
 780.235351562 324.740234375 l 1
 933.879882812 478.384765625 l 1
 933.879882812 748.771484375 l 2xcc
 882.985351562 751.015625 832.337890625 760.279296875 783.489257812 776.5625 c 0
 773.702148438 779.953125 766.677734375 789.251953125 766.677734375 800.1875 c 0
 766.677734375 802.845703125 767.09375 805.408203125 767.864257812 807.8125 c 0
 771.250976562 817.587890625 780.529296875 824.611328125 791.446289062 824.62890625 c 2xac
933.879882812 408.072265625 m 1
 826.458007812 300.650390625 l 1
 933.879882812 191.814453125 l 1
 933.879882812 408.072265625 l 1
623.985351562 158.134765625 m 0
 630.833007812 158.134765625 637.046875 155.377929688 641.563476562 150.912109375 c 0
 646.030273438 146.39453125 648.7890625 140.177734375 648.7890625 133.330078125 c 0
 648.7890625 126.481445312 646.030273438 120.2734375 641.563476562 115.755859375 c 2
 493.125976562 -32.681640625 l 1
 493.125976562 -32.681640625 641.563476562 -183.081054688 641.563476562 -183.072265625 c 1
 646.030273438 -187.58984375 648.7890625 -193.806640625 648.7890625 -200.654296875 c 0
 648.7890625 -207.502929688 646.030273438 -213.7109375 641.563476562 -218.228515625 c 0
 637.045898438 -222.6953125 630.829101562 -225.454101562 623.981445312 -225.454101562 c 0
 617.1328125 -225.454101562 610.924804688 -222.6953125 606.407226562 -218.228515625 c 2
 606.407226562 -218.228515625 440.391601562 -50.2509765625 440.391601562 -50.259765625 c 1
 435.92578125 -45.7421875 433.166992188 -39.525390625 433.166992188 -32.677734375 c 0
 433.166992188 -25.8291015625 435.92578125 -19.62109375 440.391601562 -15.103515625 c 2
 440.391601562 -15.103515625 606.412109375 150.909179688 606.407226562 150.912109375 c 1
 610.923828125 155.377929688 617.137695312 158.134765625 623.985351562 158.134765625 c 0
EndSplineSet
EndChar

StartChar: U1222c
Encoding: 274 74284 18
Width: 1249
VWidth: 100
Flags: W
HStem: 275.908 48.8418<176.009 649.828>
VStem: 100.012 48.0615<110.06 215.508 385.023 490.593> 126.948 48.916<153.179 275.912 324.74 447.473>
LayerCount: 2
Fore
SplineSet
874.635742188 825.390625 m 0x80
 881.548828125 825.229492188 887.782226562 822.262695312 892.213867188 817.578125 c 0
 896.680664062 813.060546875 899.439453125 806.84375 899.439453125 799.99609375 c 0
 899.439453125 793.147460938 896.680664062 786.939453125 892.213867188 782.421875 c 2
 659.791992188 550 l 1
 659.791992188 550 891.208007812 318.58203125 891.215820312 318.57421875 c 0
 891.560546875 318.249023438 891.888671875 317.921875 892.213867188 317.578125 c 0
 892.3515625 317.438476562 892.485351562 317.30078125 892.620117188 317.158203125 c 0
 892.647460938 317.129882812 892.673828125 317.102539062 892.700195312 317.07421875 c 0
 892.94140625 316.81640625 893.171875 316.55859375 893.401367188 316.291015625 c 0
 893.426757812 316.26171875 893.451171875 316.232421875 893.475585938 316.203125 c 0
 893.704101562 315.934570312 893.922851562 315.666992188 894.139648438 315.388671875 c 0
 894.1640625 315.358398438 894.1875 315.328125 894.211914062 315.296875 c 0
 895.185546875 314.037109375 896.038085938 312.6875 896.760742188 311.25390625 c 0
 896.778320312 311.219726562 896.795898438 311.184570312 896.813476562 311.150390625 c 0
 896.8828125 311.01171875 896.952148438 310.87109375 897.018554688 310.73046875 c 0
 897.03515625 310.6953125 897.05078125 310.66015625 897.067382812 310.625 c 0
 897.133789062 310.484375 897.19921875 310.340820312 897.262695312 310.19921875 c 0
 897.278320312 310.1640625 897.293945312 310.12890625 897.309570312 310.09375 c 0
 897.46484375 309.740234375 897.615234375 309.375976562 897.754882812 309.013671875 c 0
 897.76953125 308.978515625 897.784179688 308.94140625 897.797851562 308.90625 c 0
 897.825195312 308.833984375 897.853515625 308.759765625 897.879882812 308.6875 c 0
 897.892578125 308.651367188 897.90625 308.614257812 897.918945312 308.578125 c 0
 898.025390625 308.288085938 898.127929688 307.98828125 898.223632812 307.693359375 c 0
 898.235351562 307.657226562 898.247070312 307.620117188 898.258789062 307.583984375 c 0
 898.270507812 307.547851562 898.282226562 307.508789062 898.293945312 307.47265625 c 0
 898.557617188 306.630859375 898.783203125 305.749023438 898.958007812 304.87109375 c 0
 898.965820312 304.833984375 898.973632812 304.794921875 898.981445312 304.7578125 c 0
 899.010742188 304.60546875 899.0390625 304.450195312 899.065429688 304.296875 c 0
 899.072265625 304.259765625 899.078125 304.221679688 899.084960938 304.18359375 c 0
 899.2265625 303.345703125 899.327148438 302.49609375 899.383789062 301.6328125 c 0
 899.38671875 301.59375 899.388671875 301.556640625 899.391601562 301.517578125 c 0
 899.415039062 301.125976562 899.4296875 300.74609375 899.434570312 300.349609375 c 0
 899.435546875 300.310546875 899.435546875 300.2734375 899.436523438 300.234375 c 0
 899.4375 300.15625 899.435546875 300.09375 899.435546875 300.015625 c 0
 899.435546875 297.979492188 899.19140625 295.999023438 898.731445312 294.103515625 c 0
 898.72265625 294.06640625 898.712890625 294.02734375 898.704101562 293.990234375 c 0
 898.30078125 292.359375 897.724609375 290.756835938 897.018554688 289.26953125 c 0
 897.001953125 289.235351562 896.984375 289.200195312 896.967773438 289.166015625 c 0
 896.8671875 288.956054688 896.76171875 288.74609375 896.655273438 288.5390625 c 0
 896.63671875 288.504882812 896.619140625 288.469726562 896.600585938 288.435546875 c 0
 895.456054688 286.241210938 894.012695312 284.2578125 892.295898438 282.505859375 c 0
 892.268554688 282.477539062 892.241210938 282.450195312 892.213867188 282.421875 c 2
 659.791992188 50 l 1
 659.791992188 50 892.213867188 -182.430664062 892.213867188 -182.421875 c 1
 896.680664062 -186.939453125 899.439453125 -193.15625 899.439453125 -200.00390625 c 0
 899.439453125 -206.852539062 896.680664062 -213.060546875 892.213867188 -217.578125 c 0
 887.696289062 -222.044921875 881.479492188 -224.803710938 874.631835938 -224.803710938 c 0
 867.783203125 -224.803710938 861.575195312 -222.044921875 857.057617188 -217.578125 c 2
 857.057617188 -217.578125 607.057617188 32.4306640625 607.057617188 32.421875 c 1
 602.591796875 36.939453125 599.833007812 43.15625 599.833007812 50.00390625 c 0
 599.833007812 56.8525390625 602.591796875 63.060546875 607.057617188 67.578125 c 2
 839.479492188 300 l 1
 839.479492188 300 607.057617188 532.430664062 607.057617188 532.421875 c 1
 602.591796875 536.939453125 599.833007812 543.15625 599.833007812 550.00390625 c 0
 599.833007812 556.852539062 602.591796875 563.060546875 607.057617188 567.578125 c 2
 607.057617188 567.578125 857.067382812 817.571289062 857.057617188 817.578125 c 1
 861.489257812 822.262695312 867.72265625 825.229492188 874.635742188 825.390625 c 0x80
1124.63574219 825.390625 m 0
 1131.54882812 825.229492188 1137.78222656 822.262695312 1142.21386719 817.578125 c 0
 1146.68066406 813.060546875 1149.43945312 806.84375 1149.43945312 799.99609375 c 0
 1149.43945312 793.147460938 1146.68066406 786.939453125 1142.21386719 782.421875 c 2
 909.791992188 550 l 1
 1141.21582031 318.57421875 l 0
 1141.23046875 318.560546875 1141.24414062 318.546875 1141.25878906 318.533203125 c 0
 1141.58789062 318.221679688 1141.90136719 317.907226562 1142.21386719 317.578125 c 0
 1142.3515625 317.438476562 1142.48535156 317.30078125 1142.62011719 317.158203125 c 0
 1142.64746094 317.129882812 1142.67382812 317.102539062 1142.70019531 317.07421875 c 0
 1142.88671875 316.873046875 1143.06640625 316.673828125 1143.24707031 316.466796875 c 0
 1143.29882812 316.408203125 1143.34960938 316.350585938 1143.40136719 316.291015625 c 0
 1143.42675781 316.26171875 1143.45117188 316.232421875 1143.47558594 316.203125 c 0
 1143.70410156 315.934570312 1143.92285156 315.666992188 1144.13964844 315.388671875 c 0
 1144.1640625 315.358398438 1144.1875 315.328125 1144.21191406 315.296875 c 0
 1144.35546875 315.111328125 1144.49414062 314.92578125 1144.63183594 314.736328125 c 0
 1144.67773438 314.672851562 1144.72265625 314.610351562 1144.76855469 314.546875 c 0
 1144.79199219 314.514648438 1144.81445312 314.483398438 1144.83691406 314.451171875 c 0
 1144.88183594 314.387695312 1144.92675781 314.32421875 1144.97167969 314.259765625 c 0
 1145.63574219 313.303710938 1146.23339844 312.299804688 1146.76074219 311.25390625 c 0
 1146.77832031 311.219726562 1146.79589844 311.184570312 1146.81347656 311.150390625 c 0
 1146.8828125 311.01171875 1146.95214844 310.87109375 1147.01855469 310.73046875 c 0
 1147.03515625 310.6953125 1147.05078125 310.66015625 1147.06738281 310.625 c 0
 1147.13378906 310.484375 1147.19921875 310.340820312 1147.26269531 310.19921875 c 0
 1147.27832031 310.1640625 1147.29394531 310.12890625 1147.30957031 310.09375 c 0
 1147.46484375 309.740234375 1147.61523438 309.375976562 1147.75488281 309.013671875 c 0
 1147.76953125 308.978515625 1147.78320312 308.94140625 1147.79785156 308.90625 c 0
 1147.82519531 308.833984375 1147.85351562 308.759765625 1147.87988281 308.6875 c 0
 1147.89257812 308.651367188 1147.90625 308.614257812 1147.91894531 308.578125 c 0
 1148.02539062 308.288085938 1148.12792969 307.98828125 1148.22363281 307.693359375 c 0
 1148.23535156 307.657226562 1148.24707031 307.620117188 1148.25878906 307.583984375 c 0
 1148.27050781 307.547851562 1148.28222656 307.508789062 1148.29394531 307.47265625 c 0
 1148.55761719 306.630859375 1148.78320312 305.749023438 1148.95800781 304.87109375 c 0
 1148.96582031 304.833984375 1148.97363281 304.794921875 1148.98144531 304.7578125 c 0
 1149.01074219 304.60546875 1149.0390625 304.450195312 1149.06542969 304.296875 c 0
 1149.07226562 304.259765625 1149.078125 304.221679688 1149.08496094 304.18359375 c 0
 1149.11132812 304.030273438 1149.13574219 303.875 1149.15917969 303.720703125 c 0
 1149.17089844 303.64453125 1149.18164062 303.567382812 1149.19238281 303.490234375 c 0
 1149.27929688 302.876953125 1149.34277344 302.259765625 1149.38378906 301.6328125 c 0
 1149.38671875 301.59375 1149.38867188 301.556640625 1149.39160156 301.517578125 c 0
 1149.41503906 301.125976562 1149.4296875 300.74609375 1149.43457031 300.349609375 c 0
 1149.43554688 300.310546875 1149.43554688 300.2734375 1149.43652344 300.234375 c 0
 1149.4375 300.15625 1149.43847656 300.107421875 1149.43847656 300.028320312 c 0
 1149.43847656 298.833984375 1149.35449219 297.659179688 1149.19238281 296.509765625 c 0
 1149.18164062 296.432617188 1149.17089844 296.35546875 1149.15917969 296.279296875 c 0
 1149.04882812 295.547851562 1148.90429688 294.813476562 1148.73144531 294.103515625 c 0
 1148.72265625 294.06640625 1148.71289062 294.02734375 1148.70410156 293.990234375 c 0
 1148.30078125 292.359375 1147.72460938 290.756835938 1147.01855469 289.26953125 c 0
 1147.00195312 289.235351562 1146.984375 289.200195312 1146.96777344 289.166015625 c 0
 1146.8671875 288.956054688 1146.76171875 288.74609375 1146.65527344 288.5390625 c 0
 1146.63671875 288.504882812 1146.61914062 288.469726562 1146.60058594 288.435546875 c 0
 1146.11328125 287.500976562 1145.56933594 286.6015625 1144.97167969 285.740234375 c 0
 1144.92675781 285.67578125 1144.88183594 285.612304688 1144.83691406 285.548828125 c 0
 1144.81445312 285.516601562 1144.79199219 285.485351562 1144.76855469 285.453125 c 0
 1144.72265625 285.389648438 1144.67773438 285.327148438 1144.63183594 285.263671875 c 0
 1144.24023438 284.725585938 1143.83398438 284.212890625 1143.40136719 283.708984375 c 0
 1143.34960938 283.649414062 1143.29882812 283.591796875 1143.24707031 283.533203125 c 0
 1142.9375 283.1796875 1142.625 282.841796875 1142.29589844 282.505859375 c 0
 1142.26855469 282.477539062 1142.24121094 282.450195312 1142.21386719 282.421875 c 2
 909.791992188 50 l 1
 909.791992188 50 1142.21386719 -182.430664062 1142.21386719 -182.421875 c 1
 1146.68066406 -186.939453125 1149.43945312 -193.15625 1149.43945312 -200.00390625 c 0
 1149.43945312 -206.852539062 1146.68066406 -213.060546875 1142.21386719 -217.578125 c 0
 1137.69628906 -222.044921875 1131.47949219 -224.803710938 1124.63183594 -224.803710938 c 0
 1117.78320312 -224.803710938 1111.57519531 -222.044921875 1107.05761719 -217.578125 c 2
 1107.05761719 -217.578125 857.057617188 32.4306640625 857.057617188 32.421875 c 1
 852.591796875 36.939453125 849.833007812 43.15625 849.833007812 50.00390625 c 0
 849.833007812 56.8525390625 852.591796875 63.060546875 857.057617188 67.578125 c 2
 1089.47949219 300 l 1
 1089.47949219 300 857.057617188 532.430664062 857.057617188 532.421875 c 1
 852.591796875 536.939453125 849.833007812 543.15625 849.833007812 550.00390625 c 0
 849.833007812 556.852539062 852.591796875 563.060546875 857.057617188 567.578125 c 2
 857.057617188 567.578125 1107.06738281 817.571289062 1107.05761719 817.578125 c 1
 1111.48925781 822.262695312 1117.72265625 825.229492188 1124.63574219 825.390625 c 0
124.491210938 491.947265625 m 2
 135.408203125 491.9296875 144.686523438 484.90625 148.073242188 475.130859375 c 0xc0
 164.356445312 426.280273438 173.620117188 375.633789062 175.864257812 324.740234375 c 2
 175.864257812 324.740234375 375.315212674 324.743272569 508.284541377 324.743272569 c 0
 574.769205729 324.743272569 624.633463542 324.742513021 624.635742188 324.740234375 c 0
 624.76953125 324.7421875 624.895507812 324.75 625.029296875 324.75 c 0
 638.827148438 324.75 650.029296875 313.547851562 650.029296875 299.75 c 0
 650.029296875 299.616210938 650.028320312 299.483398438 650.026367188 299.349609375 c 0
 649.209960938 286.286132812 638.350585938 275.908203125 625.083007812 275.908203125 c 0
 624.93359375 275.908203125 624.784179688 275.909179688 624.635742188 275.912109375 c 2
 175.864257812 275.912109375 l 2xa0
 173.620117188 225.017578125 164.356445312 174.372070312 148.073242188 125.521484375 c 0
 144.682617188 115.734375 135.383789062 108.709960938 124.448242188 108.709960938 c 0
 121.790039062 108.709960938 119.227539062 109.125976562 116.823242188 109.896484375 c 0
 107.036132812 113.287109375 100.01171875 122.5859375 100.01171875 133.521484375 c 0xc0
 100.01171875 136.1796875 100.427734375 138.7421875 101.198242188 141.146484375 c 0
 117.958984375 191.428710938 126.541992188 243.895507812 126.948242188 296.416015625 c 0
 126.772460938 297.375976562 126.651367188 298.354492188 126.588867188 299.349609375 c 0
 126.586914062 299.482421875 126.584960938 299.584960938 126.584960938 299.717773438 c 0
 126.584960938 301.171875 126.709960938 302.596679688 126.948242188 303.982421875 c 0xa0
 126.568359375 356.586914062 117.985351562 409.143554688 101.198242188 459.505859375 c 0
 100.427734375 461.91015625 100 464.466796875 100 467.125976562 c 0
 100 478.060546875 107.036132812 487.365234375 116.823242188 490.755859375 c 0
 119.227539062 491.525390625 121.790039062 491.947265625 124.448242188 491.947265625 c 2
 124.491210938 491.947265625 l 2
EndSplineSet
EndChar

StartChar: U12075
Encoding: 275 73845 19
Width: 2249
VWidth: 100
Flags: W
HStem: 275.912 48.8281<175.864 403.718 453.208 946.903>
VStem: 100.012 48.0615<110.06 215.51 385.024 490.593> 126.948 48.916<153.179 275.912 324.74 447.473> 377.355 48.0615<110.06 216.271 384.381 490.593> 1353.27 48.752<-367.463 -277.968 877.968 967.463>
LayerCount: 2
Fore
SplineSet
1377.49511719 968.123046875 m 2x98
 1377.58984375 968.123046875 l 2
 1379.35742188 968.123046875 1381.08105469 967.939453125 1382.74511719 967.58984375 c 0
 1393.7890625 964.999023438 1402.03515625 955.09765625 1402.03515625 943.268554688 c 0
 1402.03515625 941.501953125 1401.8515625 939.778320312 1401.50292969 938.115234375 c 0
 1390.33398438 887.849609375 1372.21972656 839.653320312 1347.95800781 794.857421875 c 2
 1347.95800781 794.857421875 2138.05273438 320.8046875 2138.07714844 320.787109375 c 0
 2144.62792969 316.27734375 2148.90234375 308.745117188 2148.90234375 300.198242188 c 2
 2148.90136719 300 l 1
 2148.92675781 299.8203125 l 2
 2148.92675781 291.2734375 2144.62792969 283.72265625 2138.07714844 279.212890625 c 2
 1347.95800781 -194.857421875 l 2
 1372.21972656 -239.653320312 1390.33398438 -287.849609375 1401.50292969 -338.115234375 c 0
 1401.8515625 -339.778320312 1402.02246094 -341.482421875 1402.02246094 -343.249023438 c 0
 1402.02246094 -355.078125 1393.7890625 -364.999023438 1382.74511719 -367.58984375 c 0
 1381.08203125 -367.938476562 1379.37695312 -368.109375 1377.61132812 -368.109375 c 0
 1365.78222656 -368.109375 1355.86132812 -359.876953125 1353.27050781 -348.833984375 c 0
 1341.75683594 -297.013671875 1322.07617188 -247.53125 1295.33691406 -202.2265625 c 0
 1294.32226562 -201.049804688 1293.42578125 -199.790039062 1292.64160156 -198.4375 c 0
 1292.19238281 -197.5703125 1291.78710938 -196.66015625 1291.44042969 -195.73828125 c 0
 1264.0703125 -150.911132812 1229.71582031 -110.333984375 1189.47558594 -75.841796875 c 0
 1184.25390625 -71.2587890625 1180.98242188 -64.513671875 1180.98242188 -57.0263671875 c 0
 1180.98242188 -52.626953125 1182.12109375 -48.4912109375 1184.12011719 -44.8984375 c 2
 1184.12011719 -44.8984375 1107.05761719 33.0810546875 1107.05761719 33.072265625 c 1
 1102.59179688 37.58984375 1099.83300781 43.806640625 1099.83300781 50.654296875 c 0
 1099.83300781 57.5029296875 1102.59179688 63.7109375 1107.05761719 68.228515625 c 2
 1107.05761719 68.228515625 1273.08203125 234.244140625 1273.07324219 234.244140625 c 1
 1277.59082031 238.7109375 1283.80761719 241.469726562 1290.65527344 241.469726562 c 0
 1297.50390625 241.469726562 1303.71191406 238.7109375 1308.22949219 234.244140625 c 0
 1312.69628906 229.7265625 1315.45507812 223.509765625 1315.45507812 216.662109375 c 0
 1315.45507812 209.813476562 1312.69628906 203.60546875 1308.22949219 199.087890625 c 2
 1159.79199219 50.650390625 l 1
 1159.79199219 50.650390625 1308.22070312 -99.7578125 1308.22949219 -99.740234375 c 1
 1312.69628906 -104.2578125 1315.44726562 -110.483398438 1315.44726562 -117.33203125 c 0
 1315.44726562 -123.547851562 1313.17480469 -129.236328125 1309.41503906 -133.611328125 c 0
 1314.02636719 -139.975585938 1318.50097656 -146.436523438 1322.83496094 -152.98828125 c 2
 2077.81347656 300 l 1
 1322.83496094 752.98828125 l 2
 1318.41992188 746.314453125 1313.86035156 739.733398438 1309.15722656 733.25390625 c 0
 1313.07128906 728.840820312 1315.45605469 723.018554688 1315.45605469 716.662109375 c 0
 1315.45605469 709.813476562 1312.69628906 703.60546875 1308.22949219 699.087890625 c 2
 1159.79199219 550.650390625 l 1
 1159.79199219 550.650390625 1308.22949219 400.250976562 1308.22949219 400.259765625 c 1
 1312.69628906 395.7421875 1315.45507812 389.525390625 1315.45507812 382.677734375 c 0
 1315.45507812 375.829101562 1312.69628906 369.62109375 1308.22949219 365.103515625 c 0
 1303.71191406 360.63671875 1297.49511719 357.877929688 1290.64746094 357.877929688 c 0
 1283.79882812 357.877929688 1277.59082031 360.63671875 1273.07324219 365.103515625 c 2
 1273.07324219 365.103515625 1107.05761719 533.081054688 1107.05761719 533.072265625 c 1
 1102.59179688 537.58984375 1099.83300781 543.806640625 1099.83300781 550.654296875 c 0
 1099.83300781 557.502929688 1102.59179688 563.7109375 1107.05761719 568.228515625 c 2
 1107.05761719 568.228515625 1183.95410156 645.173828125 1183.98144531 645.15234375 c 1
 1182.06933594 648.685546875 1180.95507812 652.751953125 1180.95507812 657.047851562 c 0
 1180.95507812 664.53515625 1184.25390625 671.258789062 1189.47558594 675.841796875 c 0
 1229.71582031 710.333984375 1264.0703125 750.911132812 1291.44042969 795.73828125 c 0
 1291.78710938 796.66015625 1292.19238281 797.5703125 1292.64160156 798.4375 c 0
 1293.42578125 799.790039062 1294.32226562 801.049804688 1295.33691406 802.2265625 c 0
 1322.07617188 847.53125 1341.75683594 897.013671875 1353.27050781 948.833984375 c 0
 1355.85253906 959.840820312 1365.71777344 968.069335938 1377.49511719 968.123046875 c 2x98
623.985351562 825.390625 m 0
 630.8984375 825.229492188 637.131835938 822.262695312 641.563476562 817.578125 c 0
 646.030273438 813.060546875 648.7890625 806.84375 648.7890625 799.99609375 c 0
 648.7890625 793.147460938 646.030273438 786.939453125 641.563476562 782.421875 c 2
 493.125976562 633.984375 l 1
 493.125976562 633.984375 641.563476562 483.584960938 641.563476562 483.59375 c 1
 646.030273438 479.076171875 648.7890625 472.859375 648.7890625 466.01171875 c 0
 648.7890625 459.163085938 646.030273438 452.955078125 641.563476562 448.4375 c 0
 637.045898438 443.970703125 630.829101562 441.211914062 623.981445312 441.211914062 c 0
 617.1328125 441.211914062 610.924804688 443.970703125 606.407226562 448.4375 c 2
 606.407226562 448.4375 440.391601562 616.415039062 440.391601562 616.40625 c 1
 435.92578125 620.923828125 433.166992188 627.140625 433.166992188 633.98828125 c 0
 433.166992188 640.836914062 435.92578125 647.044921875 440.391601562 651.5625 c 2
 440.391601562 651.5625 606.416992188 817.571289062 606.407226562 817.578125 c 1
 610.838867188 822.262695312 617.072265625 825.229492188 623.985351562 825.390625 c 0
1123.98535156 492.056640625 m 0
 1130.8984375 491.895507812 1137.13183594 488.928710938 1141.56347656 484.244140625 c 0
 1146.03027344 479.7265625 1148.7890625 473.509765625 1148.7890625 466.662109375 c 0
 1148.7890625 459.813476562 1146.03027344 453.60546875 1141.56347656 449.087890625 c 2
 993.125976562 300.650390625 l 1
 993.125976562 300.650390625 1141.56347656 150.250976562 1141.56347656 150.259765625 c 1
 1146.03027344 145.7421875 1148.7890625 139.525390625 1148.7890625 132.677734375 c 0
 1148.7890625 125.829101562 1146.03027344 119.62109375 1141.56347656 115.103515625 c 0
 1137.04589844 110.63671875 1130.82910156 107.877929688 1123.98144531 107.877929688 c 0
 1117.1328125 107.877929688 1110.92480469 110.63671875 1106.40722656 115.103515625 c 2
 947.467773438 275.912109375 l 1
 453.208007812 275.912109375 l 2
 450.963867188 225.017578125 441.701171875 174.372070312 425.416992188 125.521484375 c 0
 422.026367188 115.734375 412.727539062 108.709960938 401.791992188 108.709960938 c 0
 399.133789062 108.709960938 396.571289062 109.125976562 394.166992188 109.896484375 c 0
 384.379882812 113.287109375 377.35546875 122.5859375 377.35546875 133.521484375 c 0
 377.35546875 136.1796875 377.771484375 138.7421875 378.541992188 141.146484375 c 0
 393.12109375 184.8828125 401.512695312 230.272460938 403.717773438 275.912109375 c 1
 175.864257812 275.912109375 l 2xb8
 173.620117188 225.017578125 164.356445312 174.372070312 148.073242188 125.521484375 c 0
 144.682617188 115.734375 135.383789062 108.709960938 124.448242188 108.709960938 c 0
 121.790039062 108.709960938 119.227539062 109.125976562 116.823242188 109.896484375 c 0
 107.036132812 113.287109375 100.01171875 122.5859375 100.01171875 133.521484375 c 0xd8
 100.01171875 136.1796875 100.427734375 138.7421875 101.198242188 141.146484375 c 0
 117.958984375 191.4296875 126.54296875 243.8984375 126.948242188 296.419921875 c 0
 126.772460938 297.37890625 126.651367188 298.356445312 126.588867188 299.349609375 c 0
 126.586914062 299.483398438 126.584960938 299.587890625 126.584960938 299.721679688 c 0
 126.584960938 301.17578125 126.709960938 302.600585938 126.948242188 303.986328125 c 0xb8
 126.567382812 356.58984375 117.985351562 409.14453125 101.198242188 459.505859375 c 0
 100.427734375 461.91015625 100 464.466796875 100 467.125976562 c 0
 100 478.060546875 107.036132812 487.365234375 116.823242188 490.755859375 c 0
 119.227539062 491.526367188 121.784179688 491.954101562 124.443359375 491.954101562 c 0
 135.377929688 491.954101562 144.682617188 484.91796875 148.073242188 475.130859375 c 0xd8
 164.356445312 426.280273438 173.620117188 375.633789062 175.864257812 324.740234375 c 2xb8
 403.717773438 324.740234375 l 1
 401.512695312 370.379882812 393.12109375 415.76953125 378.541992188 459.505859375 c 0
 377.771484375 461.91015625 377.34375 464.466796875 377.34375 467.125976562 c 0
 377.34375 478.060546875 384.379882812 487.365234375 394.166992188 490.755859375 c 0
 396.571289062 491.526367188 399.127929688 491.954101562 401.787109375 491.954101562 c 0
 412.721679688 491.954101562 422.026367188 484.91796875 425.416992188 475.130859375 c 0
 441.700195312 426.280273438 450.963867188 375.633789062 453.208007812 324.740234375 c 2
 946.903320312 324.740234375 l 1
 946.903320312 324.740234375 1106.41699219 484.237304688 1106.40722656 484.244140625 c 1
 1110.83886719 488.928710938 1117.07226562 491.895507812 1123.98535156 492.056640625 c 0
623.985351562 158.134765625 m 0
 630.833007812 158.134765625 637.046875 155.377929688 641.563476562 150.912109375 c 0
 646.030273438 146.39453125 648.7890625 140.177734375 648.7890625 133.330078125 c 0
 648.7890625 126.481445312 646.030273438 120.2734375 641.563476562 115.755859375 c 2
 493.125976562 -32.681640625 l 1
 493.125976562 -32.681640625 641.563476562 -183.081054688 641.563476562 -183.072265625 c 1
 646.030273438 -187.58984375 648.7890625 -193.806640625 648.7890625 -200.654296875 c 0
 648.7890625 -207.502929688 646.030273438 -213.7109375 641.563476562 -218.228515625 c 0
 637.045898438 -222.6953125 630.829101562 -225.454101562 623.981445312 -225.454101562 c 0
 617.1328125 -225.454101562 610.924804688 -222.6953125 606.407226562 -218.228515625 c 2
 606.407226562 -218.228515625 440.391601562 -50.2509765625 440.391601562 -50.259765625 c 1
 435.92578125 -45.7421875 433.166992188 -39.525390625 433.166992188 -32.677734375 c 0
 433.166992188 -25.8291015625 435.92578125 -19.62109375 440.391601562 -15.103515625 c 2
 440.391601562 -15.103515625 606.412109375 150.909179688 606.407226562 150.912109375 c 1
 610.923828125 155.377929688 617.137695312 158.134765625 623.985351562 158.134765625 c 0
EndSplineSet
EndChar

StartChar: U12226
Encoding: 276 74278 20
Width: 916
VWidth: 100
Flags: W
HStem: 275.908 48.8418<175.864 433.88 482.808 815.844> 748.771 48.916<311.146 433.88 482.708 605.441> 776.562 48.0664<268.027 373.479 542.992 648.56>
VStem: 100.012 48.0615<110.06 215.508 385.022 490.593> 126.948 48.916<153.179 275.912 324.74 447.473> 433.876 48.8418<-225.193 275.758 324.74 748.771>
LayerCount: 2
Fore
SplineSet
291.446289062 824.62890625 m 2xac
 291.490234375 824.623046875 l 2
 294.1484375 824.623046875 296.709960938 824.20703125 299.114257812 823.4375 c 0
 349.396484375 806.676757812 401.868164062 798.092773438 454.391601562 797.6875 c 0
 455.349609375 797.86328125 456.325195312 797.984375 457.317382812 798.046875 c 0
 457.450195312 798.048828125 457.553710938 798.05078125 457.6875 798.05078125 c 0
 459.141601562 798.05078125 460.56640625 797.92578125 461.952148438 797.6875 c 0xcc
 514.557617188 798.067382812 567.11328125 806.650390625 617.473632812 823.4375 c 0
 619.877929688 824.208007812 622.434570312 824.635742188 625.09375 824.635742188 c 0
 636.028320312 824.635742188 645.333007812 817.599609375 648.723632812 807.8125 c 0
 649.494140625 805.408203125 649.921875 802.8515625 649.921875 800.192382812 c 0
 649.921875 789.2578125 642.885742188 779.953125 633.098632812 776.5625 c 0xac
 584.249023438 760.278320312 533.602539062 751.015625 482.708007812 748.771484375 c 2
 482.708007812 324.740234375 l 1
 482.708007812 324.740234375 619.568684896 324.743272569 710.811161748 324.743272569 c 0
 756.432400174 324.743272569 790.649088542 324.742513021 790.651367188 324.740234375 c 0
 790.78515625 324.7421875 790.911132812 324.75 791.044921875 324.75 c 0
 804.842773438 324.75 816.044921875 313.547851562 816.044921875 299.75 c 0
 816.044921875 299.616210938 816.043945312 299.483398438 816.041992188 299.349609375 c 0
 815.225585938 286.286132812 804.366210938 275.908203125 791.098632812 275.908203125 c 0
 790.94921875 275.908203125 790.799804688 275.909179688 790.651367188 275.912109375 c 2
 482.708007812 275.912109375 l 1
 482.708007812 275.912109375 482.711046007 64.3986545139 482.711046007 -76.6123408565 c 0
 482.711046007 -147.117838542 482.710286458 -199.997721354 482.708007812 -200 c 0
 482.709960938 -200.133789062 482.717773438 -200.259765625 482.717773438 -200.393554688 c 0
 482.717773438 -214.19140625 471.515625 -225.393554688 457.717773438 -225.393554688 c 0
 457.583984375 -225.393554688 457.451171875 -225.392578125 457.317382812 -225.390625 c 0
 444.25390625 -224.57421875 433.875976562 -213.71484375 433.875976562 -200.447265625 c 0
 433.875976562 -200.297851562 433.876953125 -200.1484375 433.879882812 -200 c 2
 433.879882812 275.912109375 l 1
 175.864257812 275.912109375 l 2xcc
 173.620117188 225.017578125 164.356445312 174.372070312 148.073242188 125.521484375 c 0
 144.682617188 115.734375 135.383789062 108.709960938 124.448242188 108.709960938 c 0
 121.790039062 108.709960938 119.227539062 109.125976562 116.823242188 109.896484375 c 0
 107.036132812 113.287109375 100.01171875 122.5859375 100.01171875 133.521484375 c 0xd4
 100.01171875 136.1796875 100.427734375 138.7421875 101.198242188 141.146484375 c 0
 117.958984375 191.428710938 126.541992188 243.895507812 126.948242188 296.416015625 c 0
 126.772460938 297.375976562 126.651367188 298.354492188 126.588867188 299.349609375 c 0
 126.586914062 299.481445312 126.584960938 299.583984375 126.584960938 299.715820312 c 0
 126.584960938 301.169921875 126.709960938 302.594726562 126.948242188 303.98046875 c 0xcc
 126.568359375 356.5859375 117.986328125 409.142578125 101.198242188 459.505859375 c 0
 100.427734375 461.91015625 100 464.466796875 100 467.125976562 c 0
 100 478.060546875 107.036132812 487.365234375 116.823242188 490.755859375 c 0
 119.227539062 491.526367188 121.784179688 491.954101562 124.443359375 491.954101562 c 0
 135.377929688 491.954101562 144.682617188 484.91796875 148.073242188 475.130859375 c 0xd4
 164.356445312 426.280273438 173.620117188 375.633789062 175.864257812 324.740234375 c 2
 433.879882812 324.740234375 l 1
 433.879882812 748.771484375 l 2xcc
 382.985351562 751.015625 332.337890625 760.279296875 283.489257812 776.5625 c 0
 273.702148438 779.953125 266.677734375 789.251953125 266.677734375 800.1875 c 0
 266.677734375 802.845703125 267.09375 805.408203125 267.864257812 807.8125 c 0
 271.250976562 817.587890625 280.529296875 824.611328125 291.446289062 824.62890625 c 2xac
EndSplineSet
EndChar

StartChar: U12047
Encoding: 277 73799 21
Width: 916
VWidth: 100
Flags: W
HStem: 275.908 48.8418<175.864 433.88 482.808 815.844> 748.771 48.916<311.146 433.88 482.708 605.441> 776.562 48.0664<268.027 373.479 542.992 648.56>
VStem: 100.012 48.0615<110.06 215.508 385.022 490.593> 126.948 48.916<153.179 275.912 324.74 447.473> 433.876 48.8418<-225.193 275.758 324.74 748.771>
LayerCount: 2
Fore
SplineSet
291.446289062 824.62890625 m 2xac
 291.490234375 824.623046875 l 2
 294.1484375 824.623046875 296.709960938 824.20703125 299.114257812 823.4375 c 0
 349.396484375 806.676757812 401.868164062 798.092773438 454.391601562 797.6875 c 0
 455.349609375 797.86328125 456.325195312 797.984375 457.317382812 798.046875 c 0
 457.450195312 798.048828125 457.553710938 798.05078125 457.6875 798.05078125 c 0
 459.141601562 798.05078125 460.56640625 797.92578125 461.952148438 797.6875 c 0xcc
 514.557617188 798.067382812 567.11328125 806.650390625 617.473632812 823.4375 c 0
 619.877929688 824.208007812 622.434570312 824.635742188 625.09375 824.635742188 c 0
 636.028320312 824.635742188 645.333007812 817.599609375 648.723632812 807.8125 c 0
 649.494140625 805.408203125 649.921875 802.8515625 649.921875 800.192382812 c 0
 649.921875 789.2578125 642.885742188 779.953125 633.098632812 776.5625 c 0xac
 584.249023438 760.278320312 533.602539062 751.015625 482.708007812 748.771484375 c 2
 482.708007812 324.740234375 l 1
 482.708007812 324.740234375 619.568684896 324.743272569 710.811161748 324.743272569 c 0
 756.432400174 324.743272569 790.649088542 324.742513021 790.651367188 324.740234375 c 0
 790.78515625 324.7421875 790.911132812 324.75 791.044921875 324.75 c 0
 804.842773438 324.75 816.044921875 313.547851562 816.044921875 299.75 c 0
 816.044921875 299.616210938 816.043945312 299.483398438 816.041992188 299.349609375 c 0
 815.225585938 286.286132812 804.366210938 275.908203125 791.098632812 275.908203125 c 0
 790.94921875 275.908203125 790.799804688 275.909179688 790.651367188 275.912109375 c 2
 482.708007812 275.912109375 l 1
 482.708007812 275.912109375 482.711046007 64.3986545139 482.711046007 -76.6123408565 c 0
 482.711046007 -147.117838542 482.710286458 -199.997721354 482.708007812 -200 c 0
 482.709960938 -200.133789062 482.717773438 -200.259765625 482.717773438 -200.393554688 c 0
 482.717773438 -214.19140625 471.515625 -225.393554688 457.717773438 -225.393554688 c 0
 457.583984375 -225.393554688 457.451171875 -225.392578125 457.317382812 -225.390625 c 0
 444.25390625 -224.57421875 433.875976562 -213.71484375 433.875976562 -200.447265625 c 0
 433.875976562 -200.297851562 433.876953125 -200.1484375 433.879882812 -200 c 2
 433.879882812 275.912109375 l 1
 175.864257812 275.912109375 l 2xcc
 173.620117188 225.017578125 164.356445312 174.372070312 148.073242188 125.521484375 c 0
 144.682617188 115.734375 135.383789062 108.709960938 124.448242188 108.709960938 c 0
 121.790039062 108.709960938 119.227539062 109.125976562 116.823242188 109.896484375 c 0
 107.036132812 113.287109375 100.01171875 122.5859375 100.01171875 133.521484375 c 0xd4
 100.01171875 136.1796875 100.427734375 138.7421875 101.198242188 141.146484375 c 0
 117.958984375 191.428710938 126.541992188 243.895507812 126.948242188 296.416015625 c 0
 126.772460938 297.375976562 126.651367188 298.354492188 126.588867188 299.349609375 c 0
 126.586914062 299.481445312 126.584960938 299.583984375 126.584960938 299.715820312 c 0
 126.584960938 301.169921875 126.709960938 302.594726562 126.948242188 303.98046875 c 0xcc
 126.568359375 356.5859375 117.986328125 409.142578125 101.198242188 459.505859375 c 0
 100.427734375 461.91015625 100 464.466796875 100 467.125976562 c 0
 100 478.060546875 107.036132812 487.365234375 116.823242188 490.755859375 c 0
 119.227539062 491.526367188 121.784179688 491.954101562 124.443359375 491.954101562 c 0
 135.377929688 491.954101562 144.682617188 484.91796875 148.073242188 475.130859375 c 0xd4
 164.356445312 426.280273438 173.620117188 375.633789062 175.864257812 324.740234375 c 2
 433.879882812 324.740234375 l 1
 433.879882812 748.771484375 l 2xcc
 382.985351562 751.015625 332.337890625 760.279296875 283.489257812 776.5625 c 0
 273.702148438 779.953125 266.677734375 789.251953125 266.677734375 800.1875 c 0
 266.677734375 802.845703125 267.09375 805.408203125 267.864257812 807.8125 c 0
 271.250976562 817.587890625 280.529296875 824.611328125 291.446289062 824.62890625 c 2xac
EndSplineSet
EndChar

StartChar: U1244f
Encoding: 278 74831 22
Width: 916
VWidth: 100
Flags: W
HStem: 275.908 48.8418<175.864 433.88 482.808 815.844> 748.771 48.916<311.146 433.88 482.708 605.441> 776.562 48.0664<268.027 373.479 542.992 648.56>
VStem: 100.012 48.0615<110.06 215.508 385.022 490.593> 126.948 48.916<153.179 275.912 324.74 447.473> 433.876 48.8418<-225.193 275.758 324.74 748.771>
LayerCount: 2
Fore
SplineSet
291.446289062 824.62890625 m 2xac
 291.490234375 824.623046875 l 2
 294.1484375 824.623046875 296.709960938 824.20703125 299.114257812 823.4375 c 0
 349.396484375 806.676757812 401.868164062 798.092773438 454.391601562 797.6875 c 0
 455.349609375 797.86328125 456.325195312 797.984375 457.317382812 798.046875 c 0
 457.450195312 798.048828125 457.553710938 798.05078125 457.6875 798.05078125 c 0
 459.141601562 798.05078125 460.56640625 797.92578125 461.952148438 797.6875 c 0xcc
 514.557617188 798.067382812 567.11328125 806.650390625 617.473632812 823.4375 c 0
 619.877929688 824.208007812 622.434570312 824.635742188 625.09375 824.635742188 c 0
 636.028320312 824.635742188 645.333007812 817.599609375 648.723632812 807.8125 c 0
 649.494140625 805.408203125 649.921875 802.8515625 649.921875 800.192382812 c 0
 649.921875 789.2578125 642.885742188 779.953125 633.098632812 776.5625 c 0xac
 584.249023438 760.278320312 533.602539062 751.015625 482.708007812 748.771484375 c 2
 482.708007812 324.740234375 l 1
 482.708007812 324.740234375 619.568684896 324.743272569 710.811161748 324.743272569 c 0
 756.432400174 324.743272569 790.649088542 324.742513021 790.651367188 324.740234375 c 0
 790.78515625 324.7421875 790.911132812 324.75 791.044921875 324.75 c 0
 804.842773438 324.75 816.044921875 313.547851562 816.044921875 299.75 c 0
 816.044921875 299.616210938 816.043945312 299.483398438 816.041992188 299.349609375 c 0
 815.225585938 286.286132812 804.366210938 275.908203125 791.098632812 275.908203125 c 0
 790.94921875 275.908203125 790.799804688 275.909179688 790.651367188 275.912109375 c 2
 482.708007812 275.912109375 l 1
 482.708007812 275.912109375 482.711046007 64.3986545139 482.711046007 -76.6123408565 c 0
 482.711046007 -147.117838542 482.710286458 -199.997721354 482.708007812 -200 c 0
 482.709960938 -200.133789062 482.717773438 -200.259765625 482.717773438 -200.393554688 c 0
 482.717773438 -214.19140625 471.515625 -225.393554688 457.717773438 -225.393554688 c 0
 457.583984375 -225.393554688 457.451171875 -225.392578125 457.317382812 -225.390625 c 0
 444.25390625 -224.57421875 433.875976562 -213.71484375 433.875976562 -200.447265625 c 0
 433.875976562 -200.297851562 433.876953125 -200.1484375 433.879882812 -200 c 2
 433.879882812 275.912109375 l 1
 175.864257812 275.912109375 l 2xcc
 173.620117188 225.017578125 164.356445312 174.372070312 148.073242188 125.521484375 c 0
 144.682617188 115.734375 135.383789062 108.709960938 124.448242188 108.709960938 c 0
 121.790039062 108.709960938 119.227539062 109.125976562 116.823242188 109.896484375 c 0
 107.036132812 113.287109375 100.01171875 122.5859375 100.01171875 133.521484375 c 0xd4
 100.01171875 136.1796875 100.427734375 138.7421875 101.198242188 141.146484375 c 0
 117.958984375 191.428710938 126.541992188 243.895507812 126.948242188 296.416015625 c 0
 126.772460938 297.375976562 126.651367188 298.354492188 126.588867188 299.349609375 c 0
 126.586914062 299.481445312 126.584960938 299.583984375 126.584960938 299.715820312 c 0
 126.584960938 301.169921875 126.709960938 302.594726562 126.948242188 303.98046875 c 0xcc
 126.568359375 356.5859375 117.986328125 409.142578125 101.198242188 459.505859375 c 0
 100.427734375 461.91015625 100 464.466796875 100 467.125976562 c 0
 100 478.060546875 107.036132812 487.365234375 116.823242188 490.755859375 c 0
 119.227539062 491.526367188 121.784179688 491.954101562 124.443359375 491.954101562 c 0
 135.377929688 491.954101562 144.682617188 484.91796875 148.073242188 475.130859375 c 0xd4
 164.356445312 426.280273438 173.620117188 375.633789062 175.864257812 324.740234375 c 2
 433.879882812 324.740234375 l 1
 433.879882812 748.771484375 l 2xcc
 382.985351562 751.015625 332.337890625 760.279296875 283.489257812 776.5625 c 0
 273.702148438 779.953125 266.677734375 789.251953125 266.677734375 800.1875 c 0
 266.677734375 802.845703125 267.09375 805.408203125 267.864257812 807.8125 c 0
 271.250976562 817.587890625 280.529296875 824.611328125 291.446289062 824.62890625 c 2xac
EndSplineSet
EndChar

StartChar: U122e1
Encoding: 279 74465 23
Width: 917
VWidth: 100
Flags: W
HStem: 275.912 48.8281<175.864 600.548> 748.771 48.916<477.815 600.548 649.376 772.109> 776.562 48.0664<434.695 540.147 709.659 815.228>
VStem: 100.012 48.0615<110.06 215.508 385.023 490.593> 126.948 48.916<153.179 275.912 324.74 447.473> 600.544 48.8418<-225.193 275.912 324.74 748.628>
LayerCount: 2
Fore
SplineSet
458.112304688 824.62890625 m 2xac
 458.158203125 824.623046875 l 2
 460.81640625 824.623046875 463.377929688 824.20703125 465.782226562 823.4375 c 0
 516.06640625 806.67578125 568.53515625 798.092773438 621.057617188 797.6875 c 0
 622.015625 797.86328125 622.9921875 797.984375 623.985351562 798.046875 c 0
 624.118164062 798.048828125 624.221679688 798.05078125 624.35546875 798.05078125 c 0
 625.809570312 798.05078125 627.234375 797.92578125 628.620117188 797.6875 c 0xcc
 681.223632812 798.068359375 733.779296875 806.650390625 784.141601562 823.4375 c 0
 786.545898438 824.208007812 789.102539062 824.635742188 791.76171875 824.635742188 c 0
 802.696289062 824.635742188 812.000976562 817.599609375 815.391601562 807.8125 c 0
 816.162109375 805.408203125 816.58984375 802.8515625 816.58984375 800.192382812 c 0
 816.58984375 789.2578125 809.553710938 779.953125 799.766601562 776.5625 c 0xac
 750.916015625 760.279296875 700.26953125 751.015625 649.375976562 748.771484375 c 2
 649.375976562 748.771484375 649.37641059 551.734592014 649.37641059 420.370587384 c 0
 649.37641059 354.688585069 649.376302083 305.424804688 649.375976562 305.41796875 c 0
 649.802734375 303.588867188 650.029296875 301.704101562 650.029296875 299.74609375 c 0
 650.029296875 299.614257812 650.028320312 299.481445312 650.026367188 299.349609375 c 0
 649.934570312 297.877929688 649.711914062 296.431640625 649.375976562 295.0390625 c 2
 649.375976562 295.0390625 649.379014757 75.0247395833 649.379014757 -71.6535011574 c 0
 649.379014757 -144.992621528 649.378255208 -199.997721354 649.375976562 -200 c 0
 649.377929688 -200.133789062 649.385742188 -200.259765625 649.385742188 -200.393554688 c 0
 649.385742188 -214.19140625 638.18359375 -225.393554688 624.385742188 -225.393554688 c 0
 624.251953125 -225.393554688 624.119140625 -225.392578125 623.985351562 -225.390625 c 0
 610.921875 -224.57421875 600.543945312 -213.71484375 600.543945312 -200.447265625 c 0
 600.543945312 -200.297851562 600.544921875 -200.1484375 600.547851562 -200 c 2
 600.547851562 275.912109375 l 1
 175.864257812 275.912109375 l 2xcc
 173.620117188 225.017578125 164.356445312 174.372070312 148.073242188 125.521484375 c 0
 144.682617188 115.734375 135.383789062 108.709960938 124.448242188 108.709960938 c 0
 121.790039062 108.709960938 119.227539062 109.125976562 116.823242188 109.896484375 c 0
 107.036132812 113.287109375 100.01171875 122.5859375 100.01171875 133.521484375 c 0xd4
 100.01171875 136.1796875 100.427734375 138.7421875 101.198242188 141.146484375 c 0
 117.958984375 191.428710938 126.541992188 243.895507812 126.948242188 296.416015625 c 0
 126.772460938 297.375976562 126.651367188 298.354492188 126.588867188 299.349609375 c 0
 126.586914062 299.482421875 126.584960938 299.584960938 126.584960938 299.717773438 c 0
 126.584960938 301.171875 126.709960938 302.596679688 126.948242188 303.982421875 c 0xcc
 126.568359375 356.586914062 117.985351562 409.143554688 101.198242188 459.505859375 c 0
 100.427734375 461.91015625 100 464.466796875 100 467.125976562 c 0
 100 478.060546875 107.036132812 487.365234375 116.823242188 490.755859375 c 0
 119.227539062 491.526367188 121.784179688 491.954101562 124.443359375 491.954101562 c 0
 135.377929688 491.954101562 144.682617188 484.91796875 148.073242188 475.130859375 c 0xd4
 164.356445312 426.280273438 173.620117188 375.633789062 175.864257812 324.740234375 c 2
 600.547851562 324.740234375 l 1
 600.547851562 748.771484375 l 2xcc
 549.653320312 751.015625 499.0078125 760.279296875 450.157226562 776.5625 c 0
 440.370117188 779.953125 433.345703125 789.251953125 433.345703125 800.1875 c 0
 433.345703125 802.845703125 433.76171875 805.408203125 434.532226562 807.8125 c 0
 437.91796875 817.586914062 447.196289062 824.610351562 458.112304688 824.62890625 c 2xac
EndSplineSet
EndChar

StartChar: U1222e
Encoding: 280 74286 24
Width: 1749
VWidth: 100
Flags: W
HStem: 275.912 48.8281<175.864 850.548> 415.439 48.9141<727.815 850.548 899.376 1022.11> 443.229 48.0615<684.695 790.142 959.664 1065.23>
VStem: 100.012 48.0615<110.06 215.509 385.024 490.593> 126.948 48.916<153.179 275.912 324.74 447.473> 850.548 48.8312<109.495 275.912 324.74 415.404> 943.612 48.4707<-362.906 -282.489 882.489 962.906>
LayerCount: 2
Fore
SplineSet
967.614257812 963.857421875 m 2x86
 967.639648438 963.854492188 l 2
 969.818359375 963.854492188 971.932617188 963.575195312 973.948242188 963.05078125 c 0
 984.412109375 960.064453125 992.084960938 950.4375 992.084960938 939.01953125 c 0
 992.084960938 936.842773438 991.805664062 934.73046875 991.282226562 932.716796875 c 0
 977.734375 883.0390625 957.34765625 835.758789062 930.983398438 792.16796875 c 2
 930.983398438 792.16796875 1639.1328125 320.068359375 1639.15332031 320.0546875 c 0
 1645.15820312 315.486328125 1649.01660156 308.279296875 1649.01660156 300.16015625 c 2
 1649.01660156 300.03125 l 1
 1649.03808594 299.853515625 l 2
 1649.03808594 291.734375 1645.15820312 284.513671875 1639.15332031 279.9453125 c 2
 930.983398438 -192.16796875 l 2
 957.34765625 -235.758789062 977.734375 -283.0390625 991.282226562 -332.716796875 c 0
 991.805664062 -334.73046875 992.083007812 -336.830078125 992.083007812 -339.006835938 c 0
 992.083007812 -350.423828125 984.412109375 -360.064453125 973.948242188 -363.05078125 c 0
 971.93359375 -363.575195312 969.833984375 -363.8515625 967.65625 -363.8515625 c 0
 956.23828125 -363.8515625 946.598632812 -356.181640625 943.612304688 -345.716796875 c 0
 929.645507812 -294.50390625 907.63671875 -246.015625 878.774414062 -202.03515625 c 0
 877.701171875 -200.903320312 876.748046875 -199.69140625 875.899414062 -198.375 c 0
 875.408203125 -197.529296875 874.961914062 -196.643554688 874.571289062 -195.73828125 c 0
 845.099609375 -152.262695312 808.85546875 -113.365234375 767.018554688 -80.826171875 c 0
 761.267578125 -76.244140625 757.608398438 -69.1708984375 757.608398438 -61.2529296875 c 0
 757.608398438 -55.5849609375 759.5 -50.353515625 762.684570312 -46.158203125 c 0
 767.266601562 -40.4072265625 774.33984375 -36.748046875 782.2578125 -36.748046875 c 0
 787.92578125 -36.748046875 793.157226562 -38.6396484375 797.352539062 -41.82421875 c 0
 837.998046875 -73.4365234375 873.799804688 -110.439453125 903.897460938 -151.541015625 c 2
 1581.20996094 300 l 1
 903.897460938 751.541015625 l 2
 873.799804688 710.439453125 837.998046875 673.436523438 797.352539062 641.82421875 c 0
 793.157226562 638.639648438 787.915039062 636.71875 782.24609375 636.71875 c 0
 774.329101562 636.71875 767.266601562 640.407226562 762.684570312 646.158203125 c 0
 759.5 650.353515625 757.579101562 655.595703125 757.579101562 661.264648438 c 0
 757.579101562 669.181640625 761.267578125 676.244140625 767.018554688 680.826171875 c 0
 808.85546875 713.365234375 845.099609375 752.262695312 874.571289062 795.73828125 c 0
 874.961914062 796.643554688 875.408203125 797.529296875 875.899414062 798.375 c 0
 876.748046875 799.69140625 877.701171875 800.903320312 878.774414062 802.03515625 c 0
 907.63671875 846.015625 929.645507812 894.50390625 943.612304688 945.716796875 c 0
 946.594726562 956.169921875 956.213867188 963.83984375 967.614257812 963.857421875 c 2x86
124.491210938 491.947265625 m 2
 135.408203125 491.9296875 144.686523438 484.90625 148.073242188 475.130859375 c 0xd6
 164.356445312 426.280273438 173.620117188 375.633789062 175.864257812 324.740234375 c 2
 850.547851562 324.740234375 l 1
 850.547851562 415.439453125 l 2xce
 799.653320312 417.68359375 749.0078125 426.9453125 700.157226562 443.228515625 c 0
 690.370117188 446.619140625 683.345703125 455.91796875 683.345703125 466.853515625 c 0
 683.345703125 469.51171875 683.76171875 472.07421875 684.532226562 474.478515625 c 0
 687.922851562 484.265625 697.221679688 491.290039062 708.157226562 491.290039062 c 0xae
 710.815429688 491.290039062 713.377929688 490.874023438 715.782226562 490.103515625 c 0
 766.0625 473.34375 818.528320312 464.76171875 871.047851562 464.35546875 c 0
 872.009765625 464.530273438 872.989257812 464.651367188 873.985351562 464.712890625 c 0
 874.12109375 464.71484375 874.227539062 464.716796875 874.364257812 464.716796875 c 0
 875.818359375 464.716796875 877.243164062 464.591796875 878.629882812 464.353515625 c 0xce
 931.23046875 464.735351562 983.782226562 473.317382812 1034.14160156 490.103515625 c 0
 1036.54589844 490.874023438 1039.10253906 491.301757812 1041.76171875 491.301757812 c 0
 1052.69628906 491.301757812 1062.00097656 484.265625 1065.39160156 474.478515625 c 0
 1066.16210938 472.07421875 1066.58984375 469.517578125 1066.58984375 466.858398438 c 0
 1066.58984375 455.923828125 1059.55371094 446.619140625 1049.76660156 443.228515625 c 0xae
 1000.91601562 426.9453125 950.26953125 417.68359375 899.375976562 415.439453125 c 2
 899.375976562 415.439453125 899.37641059 366.551432292 899.37641059 333.953052662 c 0
 899.37641059 317.653862847 899.376302083 305.427083333 899.375976562 305.419921875 c 0
 899.802734375 303.590820312 900.029296875 301.706054688 900.029296875 299.748046875 c 0
 900.029296875 299.615234375 900.028320312 299.482421875 900.026367188 299.349609375 c 0
 899.934570312 297.876953125 899.712890625 296.4296875 899.375976562 295.037109375 c 2
 899.375976562 295.037109375 899.379014757 222.870008681 899.379014757 174.764684606 c 0
 899.379014757 150.712022569 899.378255208 132.674804688 899.375976562 132.681640625 c 1
 898.559570312 119.618164062 887.700195312 109.240234375 874.432617188 109.240234375 c 0
 874.283203125 109.240234375 874.133789062 109.241210938 873.985351562 109.244140625 c 0
 861.41015625 110.008789062 851.3125 120.106445312 850.547851562 132.681640625 c 2
 850.547851562 275.912109375 l 1
 175.864257812 275.912109375 l 2xce
 173.620117188 225.017578125 164.356445312 174.372070312 148.073242188 125.521484375 c 0
 144.682617188 115.734375 135.383789062 108.709960938 124.448242188 108.709960938 c 0
 121.790039062 108.709960938 119.227539062 109.125976562 116.823242188 109.896484375 c 0
 107.036132812 113.287109375 100.01171875 122.5859375 100.01171875 133.521484375 c 0xd6
 100.01171875 136.1796875 100.427734375 138.7421875 101.198242188 141.146484375 c 0
 117.958984375 191.428710938 126.54296875 243.896484375 126.948242188 296.41796875 c 0
 126.772460938 297.377929688 126.651367188 298.35546875 126.588867188 299.349609375 c 0
 126.586914062 299.483398438 126.584960938 299.586914062 126.584960938 299.721679688 c 0
 126.584960938 301.17578125 126.709960938 302.600585938 126.948242188 303.986328125 c 0xce
 126.567382812 356.58984375 117.985351562 409.14453125 101.198242188 459.505859375 c 0
 100.427734375 461.91015625 100 464.466796875 100 467.125976562 c 0
 100 478.060546875 107.036132812 487.365234375 116.823242188 490.755859375 c 0
 119.227539062 491.525390625 121.790039062 491.947265625 124.448242188 491.947265625 c 2
 124.491210938 491.947265625 l 2
EndSplineSet
EndChar

StartChar: U1235a
Encoding: 281 74586 25
Width: 1750
VWidth: 100
Flags: W
HStem: 25.9082 48.8418<899.61 1649.83> 275.912 48.8281<175.864 850.548> 748.771 48.916<727.815 850.548 899.376 1022.11> 776.562 48.0615<684.695 790.147 959.659 1065.23>
VStem: 100.012 48.0615<110.06 215.509 385.024 490.593> 126.948 48.916<153.179 275.912 324.74 447.473> 850.544 48.8418<-225.193 -200 -199.922 25.8391 74.7402 275.912 324.74 490.044 609.896 748.771>
LayerCount: 2
Fore
SplineSet
1124.63574219 825.390625 m 0xe6
 1131.54882812 825.229492188 1137.78222656 822.262695312 1142.21386719 817.578125 c 0
 1146.68066406 813.060546875 1149.43945312 806.84375 1149.43945312 799.99609375 c 0
 1149.43945312 793.147460938 1146.68066406 786.939453125 1142.21386719 782.421875 c 2
 909.791992188 550 l 1
 909.791992188 550 1142.21386719 317.569335938 1142.21386719 317.578125 c 1
 1146.68066406 313.060546875 1149.43945312 306.84375 1149.43945312 299.99609375 c 0
 1149.43945312 293.147460938 1146.68066406 286.939453125 1142.21386719 282.421875 c 0
 1137.69628906 277.955078125 1131.47949219 275.196289062 1124.63183594 275.196289062 c 0
 1117.78320312 275.196289062 1111.57519531 277.955078125 1107.05761719 282.421875 c 2
 899.375976562 490.103515625 l 1
 899.375976562 490.103515625 899.37641059 408.031467014 899.37641059 353.310402199 c 0
 899.37641059 325.949869792 899.376302083 305.427083333 899.375976562 305.419921875 c 0
 899.802734375 303.590820312 900.029296875 301.706054688 900.029296875 299.748046875 c 0
 900.029296875 299.615234375 900.028320312 299.482421875 900.026367188 299.349609375 c 0
 899.934570312 297.876953125 899.712890625 296.4296875 899.375976562 295.037109375 c 2
 899.375976562 74.740234375 l 1
 899.375976562 74.740234375 1221.71061198 74.7432725694 1436.60239439 74.7432725694 c 0
 1544.04828559 74.7432725694 1624.63346354 74.7425130208 1624.63574219 74.740234375 c 0
 1624.76953125 74.7421875 1624.89550781 74.75 1625.02929688 74.75 c 0
 1638.82714844 74.75 1650.02929688 63.5478515625 1650.02929688 49.75 c 0
 1650.02929688 49.6162109375 1650.02832031 49.4833984375 1650.02636719 49.349609375 c 0
 1649.20996094 36.2861328125 1638.35058594 25.908203125 1625.08300781 25.908203125 c 0
 1624.93359375 25.908203125 1624.78417969 25.9091796875 1624.63574219 25.912109375 c 2
 899.375976562 25.912109375 l 1
 899.375976562 25.912109375 899.379014757 -74.490234375 899.379014757 -141.427155671 c 0
 899.379014757 -174.895616319 899.378255208 -199.997721354 899.375976562 -200 c 0
 899.377929688 -200.133789062 899.385742188 -200.259765625 899.385742188 -200.393554688 c 0
 899.385742188 -214.19140625 888.18359375 -225.393554688 874.385742188 -225.393554688 c 0
 874.251953125 -225.393554688 874.119140625 -225.392578125 873.985351562 -225.390625 c 0
 860.921875 -224.57421875 850.543945312 -213.71484375 850.543945312 -200.447265625 c 0
 850.543945312 -200.297851562 850.544921875 -200.1484375 850.547851562 -200 c 2
 850.547851562 -200 850.54437934 -92.0759548611 850.54437934 -20.1344039352 c 0
 850.54437934 15.8363715278 850.545247396 42.8115234375 850.547851562 42.802734375 c 1
 849.83984375 44.8681640625 849.38671875 47.0810546875 849.245117188 49.349609375 c 0
 849.243164062 49.4814453125 849.249023438 49.611328125 849.249023438 49.744140625 c 0
 849.249023438 52.529296875 849.705078125 55.2099609375 850.547851562 57.712890625 c 2
 850.547851562 275.912109375 l 1
 175.864257812 275.912109375 l 2xe6
 173.620117188 225.017578125 164.356445312 174.372070312 148.073242188 125.521484375 c 0
 144.682617188 115.734375 135.383789062 108.709960938 124.448242188 108.709960938 c 0
 121.790039062 108.709960938 119.227539062 109.125976562 116.823242188 109.896484375 c 0
 107.036132812 113.287109375 100.01171875 122.5859375 100.01171875 133.521484375 c 0xea
 100.01171875 136.1796875 100.427734375 138.7421875 101.198242188 141.146484375 c 0
 117.958984375 191.428710938 126.54296875 243.896484375 126.948242188 296.41796875 c 0
 126.772460938 297.377929688 126.651367188 298.35546875 126.588867188 299.349609375 c 0
 126.586914062 299.483398438 126.584960938 299.586914062 126.584960938 299.721679688 c 0
 126.584960938 301.17578125 126.709960938 302.600585938 126.948242188 303.986328125 c 0xe6
 126.567382812 356.58984375 117.985351562 409.14453125 101.198242188 459.505859375 c 0
 100.427734375 461.91015625 100 464.466796875 100 467.125976562 c 0
 100 478.060546875 107.036132812 487.365234375 116.823242188 490.755859375 c 0
 119.227539062 491.526367188 121.784179688 491.954101562 124.443359375 491.954101562 c 0
 135.377929688 491.954101562 144.682617188 484.91796875 148.073242188 475.130859375 c 0xea
 164.356445312 426.280273438 173.620117188 375.633789062 175.864257812 324.740234375 c 2
 850.547851562 324.740234375 l 1
 850.547851562 324.740234375 850.547851562 544.051757812 850.547851562 544.076171875 c 0
 850.083984375 545.979492188 849.837890625 547.943359375 849.837890625 549.98828125 c 0
 849.837890625 552.033203125 850.083984375 554.020507812 850.547851562 555.923828125 c 2
 850.547851562 748.771484375 l 2xe6
 799.653320312 751.015625 749.0078125 760.279296875 700.157226562 776.5625 c 0
 690.370117188 779.953125 683.345703125 789.251953125 683.345703125 800.1875 c 0
 683.345703125 802.845703125 683.76171875 805.408203125 684.532226562 807.8125 c 0
 687.922851562 817.599609375 697.221679688 824.624023438 708.157226562 824.624023438 c 0xd6
 710.815429688 824.624023438 713.377929688 824.208007812 715.782226562 823.4375 c 0
 766.06640625 806.67578125 818.53515625 798.092773438 871.057617188 797.6875 c 0
 872.015625 797.86328125 872.9921875 797.984375 873.985351562 798.046875 c 0
 874.118164062 798.048828125 874.221679688 798.05078125 874.35546875 798.05078125 c 0
 875.809570312 798.05078125 877.234375 797.92578125 878.620117188 797.6875 c 0xe6
 931.223632812 798.068359375 983.779296875 806.650390625 1034.14160156 823.4375 c 0
 1036.54589844 824.208007812 1039.10253906 824.635742188 1041.76171875 824.635742188 c 0
 1052.69628906 824.635742188 1062.00097656 817.599609375 1065.39160156 807.8125 c 0
 1066.16210938 805.408203125 1066.58984375 802.8515625 1066.58984375 800.192382812 c 0
 1066.58984375 789.2578125 1059.55371094 779.953125 1049.76660156 776.5625 c 0xd6
 1000.91601562 760.279296875 950.26953125 751.015625 899.375976562 748.771484375 c 2
 899.375976562 609.896484375 l 1
 899.375976562 609.896484375 1107.06738281 817.571289062 1107.05761719 817.578125 c 1
 1111.48925781 822.262695312 1117.72265625 825.229492188 1124.63574219 825.390625 c 0xe6
1374.63574219 825.390625 m 0
 1381.54882812 825.229492188 1387.78222656 822.262695312 1392.21386719 817.578125 c 0
 1396.68066406 813.060546875 1399.43945312 806.84375 1399.43945312 799.99609375 c 0
 1399.43945312 793.147460938 1396.68066406 786.939453125 1392.21386719 782.421875 c 2
 1159.79199219 550 l 1
 1159.79199219 550 1392.21386719 317.569335938 1392.21386719 317.578125 c 1
 1396.68066406 313.060546875 1399.43945312 306.84375 1399.43945312 299.99609375 c 0
 1399.43945312 293.147460938 1396.68066406 286.939453125 1392.21386719 282.421875 c 0
 1387.69628906 277.955078125 1381.47949219 275.196289062 1374.63183594 275.196289062 c 0
 1367.78320312 275.196289062 1361.57519531 277.955078125 1357.05761719 282.421875 c 2
 1357.05761719 282.421875 1107.05761719 532.430664062 1107.05761719 532.421875 c 1
 1102.59179688 536.939453125 1099.83300781 543.15625 1099.83300781 550.00390625 c 0
 1099.83300781 556.852539062 1102.59179688 563.060546875 1107.05761719 567.578125 c 2
 1107.05761719 567.578125 1357.06738281 817.571289062 1357.05761719 817.578125 c 1
 1361.48925781 822.262695312 1367.72265625 825.229492188 1374.63574219 825.390625 c 0
1624.63574219 825.390625 m 0
 1631.54882812 825.229492188 1637.78222656 822.262695312 1642.21386719 817.578125 c 0
 1646.68066406 813.060546875 1649.43945312 806.84375 1649.43945312 799.99609375 c 0
 1649.43945312 793.147460938 1646.68066406 786.939453125 1642.21386719 782.421875 c 2
 1409.79199219 550 l 1
 1409.79199219 550 1642.21386719 317.569335938 1642.21386719 317.578125 c 1
 1646.68066406 313.060546875 1649.43945312 306.84375 1649.43945312 299.99609375 c 0
 1649.43945312 293.147460938 1646.68066406 286.939453125 1642.21386719 282.421875 c 0
 1637.69628906 277.955078125 1631.47949219 275.196289062 1624.63183594 275.196289062 c 0
 1617.78320312 275.196289062 1611.57519531 277.955078125 1607.05761719 282.421875 c 2
 1607.05761719 282.421875 1357.05761719 532.430664062 1357.05761719 532.421875 c 1
 1352.59179688 536.939453125 1349.83300781 543.15625 1349.83300781 550.00390625 c 0
 1349.83300781 556.852539062 1352.59179688 563.060546875 1357.05761719 567.578125 c 2
 1357.05761719 567.578125 1607.06738281 817.571289062 1607.05761719 817.578125 c 1
 1611.48925781 822.262695312 1617.72265625 825.229492188 1624.63574219 825.390625 c 0
EndSplineSet
EndChar

StartChar: U12137
Encoding: 282 74039 26
Width: 1250
VWidth: 100
Flags: W
HStem: 275.912 48.8281<175.864 600.548> 748.771 48.916<477.815 600.548 649.376 771.997 811.258 933.88 982.708 1105.44> 776.562 48.0732<434.695 540.147 710.741 872.401 1042.99 1148.56>
VStem: 100.012 48.0615<110.06 215.508 385.023 490.593> 126.948 48.916<153.179 275.912 324.74 447.473> 600.544 48.8418<-225.193 275.912 324.74 748.771> 933.876 48.8351<-225.193 -200 -199.925 32.403 67.5781 532.422 567.578 748.465>
LayerCount: 2
Fore
SplineSet
458.112304688 824.62890625 m 2xae
 458.158203125 824.623046875 l 2
 460.81640625 824.623046875 463.377929688 824.20703125 465.782226562 823.4375 c 0
 516.06640625 806.67578125 568.53515625 798.092773438 621.057617188 797.6875 c 0
 622.015625 797.86328125 622.9921875 797.984375 623.985351562 798.046875 c 0
 624.118164062 798.048828125 624.221679688 798.05078125 624.35546875 798.05078125 c 0
 625.809570312 798.05078125 627.234375 797.92578125 628.620117188 797.6875 c 0
 680.364257812 798.061523438 732.060546875 806.372070312 781.668945312 822.62109375 c 0
 784.678710938 823.90625 788.0078125 824.62890625 791.484375 824.62890625 c 2
 791.532226562 824.62890625 l 1
 791.625976562 824.62890625 l 1
 791.723632812 824.62890625 l 1
 791.788085938 824.6171875 l 2
 795.265625 824.6171875 798.577148438 823.90625 801.586914062 822.62109375 c 0
 851.115234375 806.397460938 902.728515625 798.0859375 954.391601562 797.6875 c 0
 955.349609375 797.86328125 956.325195312 797.984375 957.317382812 798.046875 c 0
 957.450195312 798.048828125 957.553710938 798.05078125 957.6875 798.05078125 c 0
 959.141601562 798.05078125 960.56640625 797.92578125 961.952148438 797.6875 c 0xce
 1014.55761719 798.067382812 1067.11328125 806.650390625 1117.47363281 823.4375 c 0
 1119.87792969 824.208007812 1122.43457031 824.635742188 1125.09375 824.635742188 c 0
 1136.02832031 824.635742188 1145.33300781 817.599609375 1148.72363281 807.8125 c 0
 1149.49414062 805.408203125 1149.921875 802.8515625 1149.921875 800.192382812 c 0
 1149.921875 789.2578125 1142.88574219 779.953125 1133.09863281 776.5625 c 0xae
 1084.24902344 760.278320312 1033.60253906 751.015625 982.708007812 748.771484375 c 2
 982.708007812 748.771484375 982.711046007 327.098307292 982.711046007 45.9808304398 c 0
 982.711046007 -94.5779079861 982.710286458 -199.997721354 982.708007812 -200 c 0
 982.709960938 -200.133789062 982.717773438 -200.259765625 982.717773438 -200.393554688 c 0
 982.717773438 -214.19140625 971.515625 -225.393554688 957.717773438 -225.393554688 c 0
 957.583984375 -225.393554688 957.451171875 -225.392578125 957.317382812 -225.390625 c 0
 944.25390625 -224.57421875 933.875976562 -213.71484375 933.875976562 -200.447265625 c 0
 933.875976562 -200.297851562 933.876953125 -200.1484375 933.879882812 -200 c 2
 933.879882812 -200 933.875976562 -96.7013888889 933.875976562 -27.8356481481 c 0
 933.875976562 6.59722222222 933.876953125 32.421875 933.879882812 32.421875 c 1
 929.362304688 27.955078125 923.145507812 25.1962890625 916.297851562 25.1962890625 c 0
 909.44921875 25.1962890625 903.241210938 27.955078125 898.723632812 32.421875 c 2
 649.375976562 281.76953125 l 1
 649.375976562 281.76953125 649.379014757 67.6527777778 649.379014757 -75.09375 c 0
 649.379014757 -146.467013889 649.378255208 -199.997721354 649.375976562 -200 c 0
 649.377929688 -200.133789062 649.385742188 -200.259765625 649.385742188 -200.393554688 c 0
 649.385742188 -214.19140625 638.18359375 -225.393554688 624.385742188 -225.393554688 c 0
 624.251953125 -225.393554688 624.119140625 -225.392578125 623.985351562 -225.390625 c 0
 610.921875 -224.57421875 600.543945312 -213.71484375 600.543945312 -200.447265625 c 0
 600.543945312 -200.297851562 600.544921875 -200.1484375 600.547851562 -200 c 2
 600.547851562 275.912109375 l 1
 175.864257812 275.912109375 l 2xce
 173.620117188 225.017578125 164.356445312 174.372070312 148.073242188 125.521484375 c 0
 144.682617188 115.734375 135.383789062 108.709960938 124.448242188 108.709960938 c 0
 121.790039062 108.709960938 119.227539062 109.125976562 116.823242188 109.896484375 c 0
 107.036132812 113.287109375 100.01171875 122.5859375 100.01171875 133.521484375 c 0xd6
 100.01171875 136.1796875 100.427734375 138.7421875 101.198242188 141.146484375 c 0
 117.958984375 191.428710938 126.541992188 243.895507812 126.948242188 296.416015625 c 0
 126.772460938 297.375976562 126.651367188 298.354492188 126.588867188 299.349609375 c 0
 126.586914062 299.482421875 126.584960938 299.584960938 126.584960938 299.717773438 c 0
 126.584960938 301.171875 126.709960938 302.596679688 126.948242188 303.982421875 c 0xce
 126.568359375 356.586914062 117.985351562 409.143554688 101.198242188 459.505859375 c 0
 100.427734375 461.91015625 100 464.466796875 100 467.125976562 c 0
 100 478.060546875 107.036132812 487.365234375 116.823242188 490.755859375 c 0
 119.227539062 491.526367188 121.784179688 491.954101562 124.443359375 491.954101562 c 0
 135.377929688 491.954101562 144.682617188 484.91796875 148.073242188 475.130859375 c 0xd6
 164.356445312 426.280273438 173.620117188 375.633789062 175.864257812 324.740234375 c 2
 600.547851562 324.740234375 l 1
 600.547851562 748.771484375 l 2xce
 549.653320312 751.015625 499.0078125 760.279296875 450.157226562 776.5625 c 0
 440.370117188 779.953125 433.345703125 789.251953125 433.345703125 800.1875 c 0
 433.345703125 802.845703125 433.76171875 805.408203125 434.532226562 807.8125 c 0
 437.91796875 817.586914062 447.196289062 824.610351562 458.112304688 824.62890625 c 2xae
791.627929688 773.919921875 m 0
 745.30078125 759.2734375 697.44921875 750.890625 649.375976562 748.771484375 c 2
 649.375976562 318.23046875 l 1
 649.375976562 318.23046875 898.733398438 567.571289062 898.723632812 567.578125 c 1
 903.155273438 572.262695312 909.388671875 575.229492188 916.301757812 575.390625 c 0
 923.21484375 575.229492188 929.448242188 572.262695312 933.879882812 567.578125 c 1
 933.879882812 748.771484375 l 2
 885.805664062 750.890625 837.953125 759.2734375 791.627929688 773.919921875 c 0
933.879882812 532.421875 m 1
 701.458007812 300 l 1
 933.879882812 67.578125 l 1
 933.879882812 532.421875 l 1
EndSplineSet
EndChar

